<?xml version="1.0" encoding="utf-8"?>
<svg version="1.1" id="Layer_1" xmlns="http://www.w3.org/2000/svg" xmlns:xlink="http://www.w3.org/1999/xlink" x="0px" y="0px"
	 viewBox="0 0 1155.304 1633.757" enable-background="new 0 0 1155.304 1633.757" xml:space="preserve">
<g>
	<g id="XMLID_1_">
		<path d="M406.886,160.317c-6.804-0.06-12.987-3.497-19.431-5.331c-25.484-7.075-70.448-11.835-87.093,2.405
			c1.694,4.018,23.59,6.544,20.243,34.042c-3.738,13.999-15.543,19.752-28.089,19.03c-14.45-0.812-29.883-10.191-35.184-25.434
			c-9.871-23.94,20.603-46.047,44.995-55.056C340.617,112.567,402.166,136.317,406.886,160.317z M392.486,153.884
			c3.778,1.393,7.556,3.688,11.735,2.896c-4.329-7.295-27.197-18.9-41.467-23.149c-31.777-7.646-62.983-3.818-87.224,18.509
			c-37.188,28.851,5.111,66.37,29.723,50.887c11.274-6.864,13.017-24.151,4.67-33.931c-8.708-10.482-30.574-5.742-27.538,14.861
			c1.253,4.55,6.494,5.361,10.222,6.995c-4.53,7.265-28.36-7.145,1.022-34.142C310.924,136.798,364.076,143.382,392.486,153.884z"/>
		<path d="M488.548,93.296c-37.95-9.61-68.805,22.477-87.604,9.811c-8.408-5.842-4.81-17.206,1.894-23.479
			C433.292,53.904,481.604,76.892,488.548,93.296z M454.757,90.12c5.832-2.315,12.126-2.465,18.148-3.938
			c-2.485-8.197-53.793-27.317-70.579,1.663c-1.844,3.357-3.117,7.957-0.06,11.043C413.601,107.707,439.204,94.168,454.757,90.12z"
			/>
		<path d="M541.47,86.592c-0.772-0.03-1.503-0.17-2.215-0.381c-2.134-0.651-4.039-1.974-6.073-2.896
			c-17.537-8.167-46.798-2.495-50.406-23.349c0.371-5.652,5.582-9.46,10.652-10.843C508.44,46.328,528.883,54.615,541.47,86.592z
			 M531.589,78.896c1.473,0.07,3.688,0.641,3.958-1.443c-10.803-17.627-31.757-27.819-43.211-23.439
			c-5.742,1.403-8.358,10.873,3.026,17.908C507.248,75.138,519.664,75.8,531.589,78.896z"/>
		<path d="M568.907,49.504c-0.391-13.619,29.141-18.499,18.499,13.849c-0.301-3.347,0.09-6.694,0.772-9.971
			c-0.351-3.337-0.972-6.654-1.824-9.901c-3.297-1.824-7.235-1.293-10.191,0.952c-3.117,3.066-3.467,7.766-3.908,11.865
			c0.671,4.249,0.872,8.578,1.774,12.807C570.29,63.383,568.486,56.319,568.907,49.504z"/>
		<path d="M671.473,54.515c4.9,5.922-3.086,18.008-12.767,20.543c-19.541,5.381-14.621-0.501-44.303,12.065
			c6.484-12.266,8.678-29.061,36.016-37.619C657.684,47.53,666.282,48.602,671.473,54.515z M660.55,72.082
			c11.254-5.953,12.546-18.469,0.501-18.299c-4.65,0.13-9.49-0.591-13.919,1.193c-10.843,4.62-20.263,12.576-26.646,22.507
			c1.894,2.716,5.201,0.742,7.826,0.661C639.085,76.311,650.168,75.75,660.55,72.082z"/>
		<path d="M719.785,67.993c31.496,0,46.077,23.199,38.742,31.115c-9.46,13.719-27.979,4.359-48.803-2.485
			c-14.009-4.61-29.071-8.067-43.111-2.565c8.478-11.364,20.774-20.072,34.583-23.59C707.92,68.745,714.123,67.993,719.785,67.993z
			 M755.851,97.265c0-2.325,0.01-4.66,0.06-6.985c-6.874-7.035-13.999-16.645-30.494-16.445
			c-14.831-3.117-43.662,6.383-43.181,12.146c41.157,8.608,45.686,16.555,62.341,15.543
			C748.535,100.732,753.055,100.622,755.851,97.265z"/>
		<path d="M883.529,146.939c45.806,38.802-15.873,77.673-40.004,59.205c-12.817-10.412-7.967-35.906,5.171-44.804
			c2.235-1.433,5.311-2.575,5.592-5.632c-4.038-2.084-8.378-3.487-12.827-4.329c-54.455-10.111-78.986,8.458-91.483,9.059
			c-1.984-12.857,33.45-33.631,56.97-35.485c7.325-1.353,14.811-0.451,22.217-0.722C839.216,123.57,862.124,129.974,883.529,146.939
			z M856.052,206.104c25.383,3.948,46.738-17.697,34.292-40.024c-22.537-41.327-92.054-47.971-134.804-13.418
			c-1.734,1.463-3.527,3.016-4.199,5.261c2.736-0.461,5.421-1.253,7.987-2.335c30.154-12.436,45.205-10.562,56.319-11.995
			c13.669,3.578,39.142-7.416,59.625,30.795c3.147,6.323,1.273,15.683-5.993,18.078c-1.954,1.323-4.008-0.17-5.842-0.872
			c2.345-1.864,5.401-2.295,7.927-3.808c1.864-2.255,3.367-5.261,2.565-8.247c-1.193-4.92-2.726-10.232-6.504-13.799
			C839.717,154.145,826.239,198.317,856.052,206.104z"/>
		<path d="M936.681,410.233c26.927,3.397,52.982,34.483-0.732,36.817c-4.94-1.112-24.672-1.363-28.189-2.355
			c-30.204-2.225-44.894,15.533-64.416,26.466c-3.497,1.904-5.211,5.602-6.854,9.019c-1.293-28.39,56.529-71.06,84.939-70.007
			c2.365,0.23,4.66-1.263,7.015-0.501C931.12,410.424,933.926,410.083,936.681,410.233z M963.688,434.695
			c0.301-2.435,0.301-5.191-1.443-7.125c-10.622-13.559-36.256-11.434-40.856-11.544c-20.834-1.002-60.878,25.243-65.257,37.9
			c5.111-0.23,15.613-9.3,26.887-11.464c23.58-2.696,28.49,0.772,38.14,0.531c6.434,1.553,13.108-0.05,19.571,1.353
			C949.087,443.974,958.878,442.491,963.688,434.695z"/>
		<path d="M928.875,469.849c21.155,3.357,28.881,22.137,25.644,26.917c-3.978,6.995-20.894,0.972-35.585-3.818
			c-19.611-7.215-44.744-0.23-50.326,0.451c13.118-14.47,34.643-23.459,48.803-23.96
			C921.199,468.135,925.027,469.769,928.875,469.849z M951.082,494.992c0.08-1.844,0.451-3.908-0.902-5.421
			c-13.468-17.477-35.645-16.144-38.842-15.102c-11.685,0.581-24.371,6.293-27.077,8.618c0.661,2.626,4.379,1.313,6.393,1.764
			c3.788,0.732,7.636,0.882,11.504,0.902c11.895,1.814,23.028,6.674,34.573,9.891C941.501,495.643,946.402,496.244,951.082,494.992z
			"/>
		<path d="M287.195,494.08c-11.384-3.437-23.369-7.726-35.374-5.081c-14.911,2.165-41.608,16.465-50.246,8.548
			c-3.197-6.734,6.444-21.776,17.737-25.915c4.289-1.904,9.209-2.766,14.41-2.786C253.524,468.767,277.454,480.862,287.195,494.08z
			 M255.628,485.762c5.401-0.882,11.524,1.503,16.334-1.794c-7.806-7.466-26.606-9.68-37.539-9.229
			c-11.053-0.762-21.656,5.081-28.64,13.358c-1.934,2.806-0.06,6.133,1.804,8.448C220.013,497.627,226.026,491.194,255.628,485.762z
			"/>
		<path d="M320.014,481.173c-2.245-3.267-3.487-7.416-6.995-9.64c-19.05-11.274-39.533-31.717-70.037-26.215
			c-0.421,0.04-4.229,0.611-9.49,1.142c-10.552,1.062-26.977,1.944-33.701-2.034c-14.26-6.293-13.078-18.469-2.946-25.123
			c6.754-5.251,14.601-8.077,22.998-8.949C261.17,406.055,315.945,448.875,320.014,481.173z M284.479,447.422
			c4.86,2.004,9.29,5.512,14.741,5.692c-5.702-14.751-60.798-51.929-93.597-33.571c-4.389,2.325-9.841,4.54-11.384,9.74
			c-0.541,3.908,2.124,7.626,5.321,9.63c5.472,4.419,12.767,4.991,19.481,5.682C269.888,438.563,268.726,441.148,284.479,447.422z"
			/>
		<path d="M1074.602,752.514c38.411,65.227,55.547,92.314,56.028,163.735c-4.299,83.576-46.027,125.584-120.474,149.214
			c-14.28,6.033-13.358-3.978-24.932,41.517c-29.382,104.44,29.723,263.635-99.76,388.207
			c-52.05,54.865-146.398,106.664-252.291,119.922c-0.251,0.02-80.7,1.483-88.416,1.764c-1.233,0.09-28.811-0.752-71.621-10.372
			c-323.27-93.777-286.363-326.327-291.534-358.735c-0.341-71.15-0.241-119.311-20.423-172.914c-0.952-1.784-0.17-3.658,0.241-5.441
			c-1.203,0.08-2.415,0.321-3.628,0.301c-47.129-16.695-60.718-18.138-95.752-54.164c-35.575-41.207-49.685-109.32-24.852-175.519
			c14.601-38.762,39.734-76.481,44.534-86.282c0.441-95.311-30.915-133.03-36.166-213.75
			c-8.588-40.485,3.367-192.385,96.964-314.301C274.107,42.419,453.044,28.841,534.164,16.896c98.748-0.16,95.18,0.862,95.18,0.862
			c389.319,36.727,484.069,376.031,481.173,460.359c1.293,7.015,0.641,9.46,0.812,50.927
			C1106.208,618.341,1073.72,660.32,1074.602,752.514z M1115.458,897.98c-1.152-4.179,0.1-8.929-2.716-12.566
			c-6.253,4.74-9.61,24.963-10.723,32.729c0.421,4.219,2.976,8.087,2.615,12.466c-0.311,5.251,0.842,10.763-1.233,15.793
			c-1.794,5.451-6.343,9.229-9.209,14.07c2.666,2.816,6.283,4.279,9.781,5.792C1115.197,958.668,1115.347,910.095,1115.458,897.98z
			 M1096.427,984.853c3.998-3.568,9.24-14.801,7.365-17.357c-5.512-3.377-12.226-2.636-18.328-3.768
			c-91.773-3.828-96.613,88.276-92.545,89.589c4.269,0.571,23.038-5.722,25.313-6.644c0.832-5.532-2.285-10.632-1.724-16.144
			c2.064-22.447,12.576-37.649,28.239-46.708C1073.118,971.064,1087.619,981.977,1096.427,984.853z M1087.639,896.938
			c12.075-9.4,22.167-38.14,11.544-47.029C1090.194,888.139,1076.736,887.778,1087.639,896.938z M1092.128,572.214
			c0.17-0.972,7.897-31.196,6.464-49.334c-0.932-0.14-1.854-0.261-2.756-0.361c-5.281,11.925-7.807,25.083-15.072,36.106
			c-12.476,20.433-31.246,17.316-37.258,13.518c-9.981-4.119-7.085-21.656,2.656-31.757c20.102-17.036,49.805-21.545,50.256-70.809
			c1.663-5.542-1.784-30.715-4.89-36.497c-2.636,1.864-2.686,5.321-3.187,8.207c-8.458,66.43-42.91,80.72-51.669,79.628
			c-3.898,0.671-6.544-2.646-8.798-5.271c-2.165-3.287-2.986-6.544-2.766-9.831c1.463-22.046,49.214-45.496,46.818-88.306
			c-0.15-3.177,1.263-6.203,0.832-9.4c-2.094-9.851,0.401-20.082-1.593-29.943c-1.353-20.313,1.613-21.124-8.909-45.766
			C987.849,169.377,873.368,83.275,727,45.506c-35.535-9.159-72.933-15.483-112.106-19.361c-2.124,0.16-49.975-4.359-67.672-0.23
			c-9.751,0.521-19.421,1.724-29.121,2.866c-9.27,1.283-18.379,2.666-27.328,4.149C377.515,51.669,288.698,87.214,204.781,169.777
			c-5.411,6.484-70.248,64.085-115.663,174.467c-3.828,10.622-6.564,57.411-6.434,58.884c-0.501,4.55,0.982,8.939,0.892,13.468
			c4.018,42.77,20.674,52.791,36.998,69.627c5.221,4.62,8.157,9.58,9.39,14.29c2.796,10.622-3.056,19.962-10.793,21.215
			c-15.623-1.954-34.312-23.76-39.714-35.845c-8.368-15.533-10.462-47.159-13.138-57.14c-5.902,1.463-8.157,34.994-6.444,42.89
			c3.046,32.699,12.386,42.73,29.963,54.896c11.384,7.235,29.963,17.377,28.961,34.152c0.341,5.311-3.217,10.572-8.107,12.536
			c-3.568,2.175-7.836,1.072-11.775,1.343c-24.081,0.681-34.062-40.365-37.589-50.075c-0.722-1.684-1.233-4.049-3.427-4.249
			c-1.313,8.047,2.555,36.988,4.119,43.862c1.122,3.638,3.217,7.095,3.056,11.033c-0.591,26.125,38.752,67.141,45.516,46.187
			c-3.417-12.286-21.084-24.141-26.355-30.805c29.853,18.679,30.574,27.398,32.017,32.599c-2.836,9.57-10.652,10.953-18.8,8.217
			c-15.112-5.101-18.719-19.05-24.842-19.311c0.401,7.726,6.514,40.615,11.665,44.103c19.691,16.064,48.843-9.65,52.07-23.439
			c13.118-57.732,10.773-98.618,3.788-132.128c-5.241-25.193-13.108-46.227-18.99-67.121c2.816,2.375,25.884,35.855,36.817,100.782
			c0.531,4.008-0.17,8.067,0.381,12.085c1.112,4.389,0.501,8.959,0.641,13.438c-1.443,126.276-49.404,168.535-92.384,247.431
			c-1.573,3.357-3.457,6.784-3.357,10.622c0.742-0.06,2.205-0.18,2.946-0.241c8.478-6.654,39.543-33.13,47.239-45.396
			c2.145,3.778,0.742,8.328,1.102,12.466c2.525,53.944,43.742,72.262,22.367,122.528c-2.285,5.101-5.792,9.841-6.383,15.533
			c6.153,0.07,11.394-3.928,17.497-4.399c9.219-2.004,20.052-1.714,26.877-9.33c7.376,15.573,0.521,42.8,0.842,47.109
			c4.56,0.2,9.209-0.461,13.709,0.541c19.762,2.736,30.384,14.21,50.266,7.576c-1.623,6.734-6.013,8.448-12.095,7.806
			c-12.977-1.373-33.661-13.488-51.538-10.552c-7.616,1.102-7.376,13.438-24.051,22.197c-1.653,0.942-3.918,2.114-3.487,4.389
			c3.217,6.323,7.857,11.805,11.725,17.737c3.467,5.241,7.325,8.177,23.309,11.534c15.182-1.233,25.734-14.931,42.319-30.053
			c-2.094,5.451-6.884,10.041-7.335,16.004c10.793-3.768,20.573-10.312,32.007-12.216c9.52-2.245,19.321-1.193,29.001-1.393
			c48.282,5.772,53.242,28.5,93.096,45.977c4.289,2.004,9.019,2.746,13.428,4.399c-17.196,11.685-42.71,26.035-47.159,30.765
			c5.011,2.736,17.256-0.17,24.522-1.253c12.216-1.213,21.615-4.209,49.885,0.351c87.324,18.92,74.888,75.479,57.992,74.076
			c2.756-1.413,5.782-2.656,7.636-5.261c3.778-8.588,0.722-26.997-12.817-40.094c-32.228-26.716-87.294-28.139-93.878-24.762
			c1.303,2.265,3.888,2.956,6.143,3.898c25.514,11.494,31.336,18.8,43.211,30.825c6.905,9.26,35.124,34.593,35.124,34.603
			c-21.926-5.091-30.885-33.741-53.452-47.991c-45.285-30.364-71.641-15.362-116.345-8.889c2.756,8.257,11.825,11.534,16.405,18.509
			c21.826,23.449,24.932,58.172,28.52,66.921c7.045,0.431,21.956-12.356,42.189,6.514c30.534-19.281,37.99,1.162,46.879,5.592
			c2.806-0.712,4.339-3.578,6.734-5.071c13.548-12.246,31.617-10.202,39.493-0.391c3.097,2.345,4.499,7.616,9.009,7.506
			c2.205-1.704,10.081-12.136,16.314-16.375c12.536-9.37,27.418-5.311,33.08,4.149c1.273,2.515,1.984,5.301,3.628,7.646
			c1.102-0.481,2.185-1.032,3.217-1.643c4.94-5.331,15.012-19.852,34.763-14.881c4.64,1.092,6.133,7.576,11.023,7.927
			c6.864-2.956,5.482-12.687,28.3-6.995c8.318,2.766,12.877,10.813,18.96,16.465c3.537-1.744,3.177-6.103,5.361-8.889
			c20.754-25.574,45.616,9.149,49.474,12.947c5.391-2.475,7.466-8.638,12.486-11.574c5.902-4.93,23.86-8.839,39.744,8.277
			c2.155,2.245,4.279-0.461,5.922-1.904c14.841-15.493,28.59-13.388,43.572-2.465c17.617-18.308,34.693-7.035,41.497-7.706
			c4.229-12.075,5.552-34.543,23.259-58.273c10.302-14.3,25.925-23.61,21.656-25.965c-2.505-0.671-5.091-0.902-7.626-1.243
			c-14.35-0.762-78.425-26.987-119.822,19.401c-19.08,22.427-25.474,34.503-42.62,38.351c3.517-3.347,7.746-5.832,11.133-9.34
			c29.312-29.672,27.869-28.791,27.869-28.791c20.112-23.038,38.341-24.401,48.312-30.264c-0.291-0.351-0.892-1.062-1.193-1.403
			c-26.045-7.546-116.325,13.629-107.897,56.9c2.856,7.947,10.151,9.73,14.791,12.737c0.311,0.2,0.611,0.411,0.892,0.621
			c-29.993,10.582-37.729-64.896,64.846-75.789c32.458-2.004,54.705,7.456,58.834,2.275c-7.907-6.865-36.346-23.149-45.235-29.111
			c0.01-0.351,0.01-1.022,0.02-1.363c4.179-1.583,8.668-2.074,12.787-3.828c18.529-6.383,42.459-30.775,67.051-40.385
			c32.849-10.743,65.117-4.69,79.607,5.131c2.054,1.433,4.5,2.004,7.005,1.694c-0.772-6.123-5.702-10.532-7.907-16.124
			c14.46,12.376,27.267,31.977,43.091,30.414c21.986-2.034,22.307-10.211,29.943-20.353c2.084-2.996,4.96-5.922,5.191-9.74
			c-2.756-3.477-11.995-5.441-20.343-18.719c-2.024-2.495-3.467-6.073-7.055-6.504c-9.239-0.701-18.459,1.082-27.247,3.828
			c-14.561,5.131-22.648,7.075-27.448,7.075c-6.664,0-7.015-3.758-9.61-7.967c2.826,0.601,5.482,2.145,8.448,2.094
			c17.417,0.822,32.699-10.502,50.065-10.111c2.195,0.18,4.339-0.321,6.393-1.122c-0.19-5.642-2.084-11.033-2.605-16.635
			c-0.06-0.962-0.221-18.078,0.671-19.611c0.872,31.135,10.893,39.774,32.328,61.61c2.896,3.618,7.215-1.493,18.339-8.879
			c3.507-2.335,7.616-3.778,10.672-6.764c1.092-3.177-1.323-17.647-8.328-27.247c-12.897-19.04-38.421-12.015-48.272-22.918
			c-1.213-1.343-2.195-2.946-2.876-4.91c17.747,10.632,23.991,5.562,39.694,12.316c1.744,0.812,3.718,0.681,5.602,0.842
			c0.16-4.319-3.057-7.476-4.78-11.113c-26.416-54.364,17.767-68.955,19.972-125.825c1.052-4.59,0.11-9.4,1.864-13.869
			c2.856,3.247,2.265,7.195,1.684,11.143c-0.321,2.125-0.631,4.259-0.411,6.283c3.267,32.328-28.65,68.043-26.826,91.282
			c-0.932,15.763,8.808,41.377,17.296,44.714c4.91-1.994,4.51-7.977,6.363-12.115c-2.425-3.267-5.401-6.333-6.454-10.382
			c2.896,1.523,4.91,5.371,8.348,5.351c3.337-2.846,6.133-6.293,8.197-10.171c-4.99-7.155-12.857-12.286-16.284-20.553
			c9.801,5.732,15.643,12.917,20.613,12.406c3.477-3.768,4.73-9.34,3.527-14.26c-7.826-6.163-18.729-14.671-21.696-23.81
			c10.392,6.343,23.96,22.437,33.681,23.129c0.14-4.028,0.391-8.217-1.243-11.995c-3.207-3.788-23.068-13.789-25.654-26.846
			c8.718,6.454,14.631,17.767,22.838,16.886c-0.461-8.388-3.447-16.395-5.01-24.622c6.253,9.761,8.217,22.327,12.907,24.692
			c6.384-6.965,10.432-18.83,11.855-26.285c-2.445-8.147-31.817-35.114-36.557-43.622c4.95,2.515,36.707,35.374,42.86,34.643
			c-1.062-15.473-62.983-100.792-83.616-164.496c-22.107-68.885-16.214-157.391,25.343-220.414
			c-2.836,13.368-12.907,32.689-19.661,71.721c-1.724,9.941-3.237,21.175-4.349,33.911c0,36.487-0.17,35.304,0.491,37.97
			c5.261,65.518,11.474,67.542,28.229,79.547c12.606,9.41,33.31,4.429,35.885-5.822c0.932-2.756,10.161-34.292,7.496-39.062
			c-1.964,1.433-27.358,35.645-42.539,14.741c-3.397-12.015,18.148-25.574,26.977-32.569c-5.321,6.644-19.341,18.058-22.397,29.863
			c1.062,1.393,1.754,3.237,3.377,4.139C1072.156,628.904,1092.309,588.479,1092.128,572.214z M1081.807,877.757
			c7.646-6.173,18.018-29.783,13.619-38.561c-1.684-3.788-3.948-7.396-6.885-10.332c-1.684,2.014-2.425,4.519-2.726,7.085
			c-1.082,8.909-4.399,17.326-7.887,25.534c-0.471,1.413-1.393,2.906-0.651,4.429C1078.61,869.921,1079.652,874.07,1081.807,877.757
			z M1085.615,958.507c10.422-11.274,17.006-23.98,9.37-39.062c-4.239-8.388-22.878-35.615-27.127-33.601
			c-3.036,3.267-4.58,7.616-7.035,11.314c-27.979,43.451-15.242,45.997-16.545,65.718c6.534-0.351,12.717-3.087,19.271-3.427
			c2.505-0.12,5.041,0.19,7.536-0.261C1075.834,957.976,1080.775,958.938,1085.615,958.507z M1088.27,532.481
			c1.894-6.564,4.289-13.208,3.768-20.142c-3.026,1.182-4.92,4.018-7.556,5.792c-13.308,12.576-36.036,23.119-40.866,34.212
			C1039.728,567.735,1069.872,588.96,1088.27,532.481z M1082.147,441.76c1.082-4.059,1.032-20.764-0.09-25.273
			c0.15-6.644-2.385-30.113-6.674-36.908c-0.19,4.349-0.421,8.768,0.621,13.047c5.041,81.622-31.677,83.887-43.712,108.699
			c-2.776,4.499-0.912,10.903,3.427,13.669C1049.068,516.557,1082.198,486.845,1082.147,441.76z M1091.477,992.338
			c-2.836-1.162-20.834-4.87-27.869-4.419c-20.293-1.313-43.732,24.642-41.137,56.279
			C1043.586,1044.388,1091.106,1004.875,1091.477,992.338z M982.538,1056.093c0.17-0.361,3.277-27.267,3.066-31.296
			c-7.766-3.668-16.986,8.778-43.251-16.845c-9.199,1.814-10.201,4.279-38.361,18.218c0.321,4.389,4.319,6.935,6.624,10.302
			c20.213,22.467,33.511,17.106,47.901,22.347C964.56,1062.246,981.586,1056.503,982.538,1056.093z M971.525,1099.935
			c-3.838-2.786-8.378-6.233-13.318-3.918c-3.998,8.548-10.783,67.522-11.745,70.278c-0.08-0.962-5.261-42.8-4.279-46.849
			c0.491-2.054,0.721-4.159,0.651-6.243c-0.531-9.5,4.209-24.201,3.096-30.284c-2.966-0.21-6.784-1.002-8.839,1.784
			c-1.203,3.698-13.188,74.116-14.13,78.736c-3.016-17.547-5.011-42.57-2.054-61.92c0.09-4.369,2.706-9.49-0.742-13.188
			c-6.754,1.253-7.616-1.122-12.627,39.102c-1.674,11.995-2.054,24.071-3.618,36.066c-6.323-20.162-5.752-50.817-7.716-57.922
			c-5.121-0.19-9.039,4.179-12.586,7.335c-4.319,3.888-4.189,10.041-3.297,15.312c5.692,23.64,2.255,84.818-14.891,121.105
			c-16.725,37.329-33.49,49.454-36.367,63.544c-7.596,30.654-28.42,24.612-35.154,24.802c-5.331,11.975-14.26,17.577-26.235,17.587
			c-7.095,0-13.148-5.061-20.293-4.279c-11.464,20.704-27.348,16.395-33.521,16.835c-5.732,0.521-11.274-1.884-15.653-5.441
			c-1.373-0.742-2.716-2.485-4.359-2.074c-1.142,0.591-39.243,39.112-59.646,17.036c-1.393-1.223-2.585-3.347-4.72-2.876
			c-6.013,3.457-9.821,9.911-16.314,12.727c-6.464,3.638-14.07,2.225-21.135,2.315c-6.223-1.633-9.48-7.686-13.749-11.925
			c-4.439,2.866-6.203,8.678-11.354,10.552c-10.051,4.69-24.291,2.826-37.99-12.146c-3.988-6.073-7.345,6.313-18.97,7.696
			c-18.78,0.281-29.272-6.434-47.791-23.86c-4.92,3.578-10.322,6.955-16.435,7.917c-12.617,0.431-22.728,1.213-30.815-8.468
			c-3.337-2.686-4.78-7.075-8.458-9.35c-7.255,2.626-19.401,9.32-31.556,2.165c-5.802-3.116-10.181-8.398-12.627-14.47
			c-9.851-0.04-14.781,2.736-24.371-5.101c-11.995-9.991-9.52-23.62-15.873-31.276c-55.306-74.136-44.413-115.473-48.181-129.483
			c0.902-54.084,4.419-48.823,1.363-55.216c-3.127-3.758-11.384-12.506-15.493-10.031c-0.641,1.664-2.585,47.931-7.967,56.148
			c-8.087-69.877-4.81-73.986-17.206-74.296c-0.301,7.265,2.205,24.932,2.345,25.895c0.251,9.66-0.671,40.726-4.419,48.001
			c-1.493-9.37-2.435-18.85-4.63-28.109c-9.109-48.472-7.315-48.021-11.133-51.418c-2.225-0.09-4.479-0.1-6.654,0.481
			c-0.471,12.807,8.688,22.367-0.17,80.459c-0.311,0.21-0.922,0.631-1.233,0.832c-0.261-4.129-5.602-47.47-9.73-66.53
			c-2.555-4.089-7.776-2.575-11.264-0.762c-3.107,1.884-1.674,6.003-1.704,8.989c30.284,115.263-31.957,260.338,98.998,383.036
			c100.912,95.902,225.424,113.028,251.149,111.665c0,0,0.641,0.932,50.927,0.862c27.077-0.381-5.862-0.772,42.309-0.822
			c101.704-6.524,241.829-80.72,293.037-176.321C981.275,1322.804,944.207,1229.478,971.525,1099.935z M910.987,1016.429
			c0.972-0.421,14.681-6.754,15.372-11.334c-11.584-5.091-24.291-7.165-36.777-8.678c-54.695-2.716-70.789,29.472-103.347,41.137
			c-8.758,3.988-1.994,3.457,21.425,17.266c15.432,8.368,50.647,28.65,71.691,23.038c11.564-0.701,14.27-1.653,15.944-5.983
			c2.826-7.025,13.037-8.007,14.37-15.954c-9.31-0.872-22.227,17.306-38.581,14.811c5.882-5.131,13.819-7.125,19.782-12.166
			c0.852-0.932,0.641-2.285,0.842-3.407c-16.304-4.7-33.651,10.252-48.021,8.989c0.311-0.311,0.962-0.972,1.273-1.293
			c13.508-6.644,20.814-5.632,22.738-11.594c-18.208-7.385-19.541,6.484-45.345,2.415c6.634-2.966,14.18-2.676,21.004-5.071
			c1.734-0.25,1.253-2.305,1.523-3.497c-9.169-3.247-19.11-2.846-28.39-5.552c9.76-0.992,19.601-0.16,29.392-0.531
			c-2.345-5.973-14.09-10.803-15.873-16.234c6.844,2.385,25.925,22.277,43.602,20.423c-1.854-5.882-20.533-11.354-26.385-26.957
			c6.584,3.688,7.857,9.66,24.061,18.078c19.2,7.195,25.784,13.057,30.845,7.887c-4.88-4.299-30.634-21.365-36.637-34.543
			c19.601,16.074,25.023,21.976,33.029,23.229c0.331-4.089-3.317-6.744-4.099-10.532
			C899.643,1017.882,905.786,1018.974,910.987,1016.429z M920.728,1065.122c-2.816-3.818-9.169-1.273-9.239,3.327
			C914.916,1068.809,918.493,1067.867,920.728,1065.122z M821.108,1302.09c8.388-10.662,10.262-18.329,4.169-49.214
			c-10.232,0.782-20.343,2.525-30.374,4.69c-1.393,9.34-1.463-4.229-1.273,43.782c11.053,7.285,5.922,7.736,17.146,7.696
			C815.176,1308.494,818.302,1305.217,821.108,1302.09z M792.859,1251.784c10.532,0.702,21.185,0.12,31.767,0.281
			c0-0.982-1.383-45.215-4.219-50.486c-1.493-4.269-6.333-5.351-9.921-7.265c-5.782-0.551-11.594,1.663-16.334,4.87
			c-5.602,4.008-6.784,11.364-7.285,17.747C788.209,1226.621,789.993,1247.014,792.859,1251.784z M820.878,1193.712
			c1.453-4.81,1.403-9.841,1.162-14.801c-4.059-6.704-25.734-10.913-35.124,0.601c-1.754,1.413-3.056,4.189-5.652,3.878
			c-8.127-4.049-4.169-5.802-21.515-9.209c-8.568,0.14-17.948,4.028-21.716,12.206c-0.952,1.253-1.724,4.068-3.678,3.537
			c-2.024-1.994-14.11-21.465-35.725-13.128c-8.077,2.375-13.188,9.51-17.737,16.084c-6.935-8.257-13.849-17.547-24.381-21.345
			c-19.671-8.338-27.698,12.045-30.354,15.422c-2.104,0.421-2.615-2.245-3.758-3.447c-8.418-15.623-29.723-21.175-45.045-4.87
			c-17.457-18.138-32.909-8.217-38.772-1.513c-3.477,3.127-5.331,7.646-8.989,10.582c-2.896-6.153-6.013-13.168-12.777-15.883
			c-9.981-5.291-26.466-1.032-41.407,21.084c-4.479-4.329-7.305-14.26-22.537-17.537c-16.334-3.808-27.648,10.472-31.997,14.711
			c-3.547-3.608-5.542-8.578-9.871-11.434c-13.979-8.558-22.547-3.678-35.565,4.53c-2.686,1.062-4.109-2.014-5.832-3.417
			c-8.418-9.67-23.75-9.3-34.052-2.996c-3.708,1.553-2.315,13.839-1.253,16.695c5.061,0.541,9.32-3.257,14.41-2.635
			c14.12-1.423,21.796,12.657,24.762,15.463c4.039-3.768,8.027-7.786,13.057-10.202c16.815-9.149,28.62,14.25,29.402,15.212
			c3.948-2.545,5.271-7.686,9.47-9.921c6.474-4.038,14.751-4.67,21.986-2.475c10.602,2.144,15.593,16.124,18.689,20.754
			c9.079-8.708,5.802-27.638,40.826-26.155c12.085,2.976,15.062,11.905,19.591,14.4c2.826-1.463,4.079-4.73,5.993-7.125
			c7.917-12.176,33.651-19.301,43.101,5.522c-19.481-20.162-36.306-12.146-41.998,1.513c-7.436,16.575-9.65,48.512-7.115,55.196
			c4.109,3.698,42.269,4.359,47.931,4.038c3.788-2.505,1.603-7.846,2.074-11.624l0.832-0.11c0,3.437,0.06,6.985,1.383,10.231
			c1.283,2.806,11.534,1.493,12.837,1.233c6.113-1.223,12.476,0.451,18.559-1.072c4.249-0.641,8.618,0.331,12.837-0.601
			c1.954-0.461,3.968-0.491,5.973-0.641c0.601-8.448,2.305-17.026,0.521-25.464c-0.381-3.928,0.311-7.917-0.691-11.755
			c-3.598-24.441-15.863-32.699-27.207-33.02c-11.494,1.714-15.924,8.999-20.112,11.594c12.376-25.013,34.703-16.665,43.401-1.654
			c1.483,1.643,2.475,5.101,5.311,4.249c10.612-11.985,8.227-13.218,24.171-15.753c3.117,0.651,17.066,0.291,26.265,12.436
			c3.738,4.53,5.241,10.512,9.249,14.871c3.397-3.758,3.908-9.26,7.486-12.887c3.547-3.628,6.965-8.007,12.266-8.989
			c8.839-1.884,19.07,0.641,24.932,7.857c1.804,1.583,2.956,4.97,5.922,4.159c5.762-5.161,7.265-16.795,28.961-14.921
			c5.702,2.014,9.931,6.564,13.559,11.204c2.455-3.317,4.63-6.895,7.726-9.67C801.126,1186.337,816.328,1192.81,820.878,1193.712z
			 M809.634,1332.935c8.498-2.656,13.248-11.995,12.376-20.533c-4.179-0.09-7.806,2.676-11.985,2.585
			c-14.971-0.341-11.564-3.006-18.349-4.52c-21.906,39.533-37.379,14.641-47.049,9.169c-1.052,1.193-13.819,28.179-36.597,23.189
			c-6.925-0.271-11.815-5.802-17.998-8.007c-4.109,6.173-10.121,22.066-25.454,24.291c-19.772,5.932-31.456-10.212-36.667-14.02
			c-5.602,6.534-11.043,14.581-19.892,16.765c-15.262,0.681-19.02-3.417-29.692-11.905c-4.219,2.175-6.945,6.363-11.304,8.328
			c-8.498,4.95-25.985,5.161-37.86-11.484c-1.122-0.01-2.235,0-3.357,0.02c-19.912,20.383-43.842,19.25-59.114-11.705
			c-1.834-0.08-3.708,0.16-5.101,1.463c-8.678,6.614-21.124,9.37-31.186,4.309c-10.061-3.848-15.753-18.319-19.331-21.746
			c-8.197,5.792-16.936,20.433-36.747,5.812c-6.083-4.249-9.55-13.999-12.146-13.358c-6.103,1.052-3.778,4.189-19.09,3.307
			c-2.816-0.671-5.311-2.445-8.257-2.575c-2.646,9.049,4.169,18.91,13.078,20.974c5.642,1.082,10.803-1.934,16.274-2.595
			c2.485,4.63,4.259,9.801,8.077,13.589c14.771,14.17,27.488,2.926,36.246-2.014c4.199,2.565,5.051,7.796,8.307,11.224
			c11.885,13.568,29.903,10.382,32.689,9.33c7.065-2.275,12.426-9.65,14.18-8.328c11.584,9.55,24.922,27.418,48.352,23.8
			c7.716-1.784,10.282-10.061,12.566-16.625c1.633,0.431,4.379,0.24,4.56,2.525c1.283,11.544,18.739,25.273,34.873,20.162
			c5.802-1.643,9.68-6.554,14.26-10.141c3.648,3.507,6.864,7.947,11.885,9.53c12.376,4.72,27.037-1.694,33.801-12.667
			c1.804-2.956,5.031-13.398,8.307-7.045c1.984,5.381,4.109,15.613,17.206,14.711c21.255,0.942,36.747-20.523,44.103-24.622
			c3.517,2.696,6.704,5.943,10.863,7.716c4.509,2.325,20.253,5.061,33.861-7.065c5.822-6.123,6.123-15.442,11.434-11.364
			c4.439,2.746,8.799,5.922,14.02,7.005c9.039,2.756,18.288-3.066,23.399-10.242c2.395-2.836,1.924-7.476,5.461-9.4
			C798.24,1331.642,803.852,1334.859,809.634,1332.935z M747.994,1312.572c36.597,48.251,46.027-38.852,40.515-52.992
			c-13.829-0.651-27.348,2.926-40.996,4.399c-0.07,4.49,0.08,9.009-0.05,13.528c-1.603,8.849-0.481,17.918-0.812,26.867
			C746.962,1307.091,745.649,1310.498,747.994,1312.572z M788.59,1251.895c0.802-12.085-5.141-44.985-18.329-52.05
			c-9.881-4.71-22.688,2.896-24.391,13.458c-1.243,8.207-5.361,10.232,0.07,43.812
			C759.549,1256.795,780.382,1253.688,788.59,1251.895z M740.859,1296.769c1.132-4.58,1.363-26.927-0.401-31.366
			c-9.059-0.481-41.758,2.976-46.528,5.592c-2.014,4.069-0.371,8.859-1.002,13.238c-1.954,9.48,0.441,19.321-1.563,28.791
			c-0.15,4.149,0.03,8.318-0.05,12.486C715.356,1349.32,742.312,1329.177,740.859,1296.769z M740.709,1257.196
			c0.05-12.977,0.451-36.377-8.608-46.919c-14.029-15.112-38.07-5.361-41.628,27.818c1.704,8.187-0.04,17.006,3.267,24.862
			C700.855,1262.748,735.047,1261.445,740.709,1257.196z M688.599,1260.833c1.263-5.291,1.523-10.843,0.471-16.194
			c-1.042-20.092-3.848-37.058-22.678-44.484c-17.908-9.37-41.417,7.396-33.831,36.968c0.431,8.889-0.681,17.878,1.052,26.676
			c3.748,1.623,42.519,1.012,45.846,0.271C682.627,1263.689,686.926,1264.321,688.599,1260.833z M682.035,1334.048
			c4.92-15.573,7.686-57.531,5.722-62.672c-53.112,1.854-53.192,2.766-53.192,2.776c0,0-1.022,41.578-1.162,43.672
			c-0.802,4.79-1.433,9.63-2.335,14.43c-0.802,6.433-4.279,7.997,12.065,16.966C659.047,1356.515,674.369,1353.338,682.035,1334.048
			z M629.345,1281.286c0.06-2.505,0.16-5.943-2.295-7.315c-0.962-0.07-28.751-1.062-48.221-0.852
			c-1.293,3.557-1.804,7.305-1.523,11.093c3.147,64.897-3.578,59.465,16.234,70.358c13.118,7.386,25.213-3.237,30.815-17.437
			C628.884,1323.125,628.473,1296.789,629.345,1281.286z M575.692,1295.807c0.772-3.788,1.213-7.686,0.491-11.514
			c-0.802-3.688-0.271-7.496-1.052-11.173c-21.706-0.591-26.556,0.762-48.021,0.691c0.03,11.384-3.948,87.775,26.846,82.955
			c8.087-1.894,16.485-5.201,21.535-12.146C575.882,1328.366,575.451,1312.071,575.692,1295.807z M526.478,1339.549
			c-0.301-3.187-1.243-6.243-1.824-9.35c-1.283-12.406-1.443-51.017-2.285-56.058c-4.379-0.591-8.728-1.363-13.158-1.162
			c-5.241-1.363-30.705-1.102-35.555-2.395c-1.874,0.271-3.778,0.661-5.502,1.453c-1.323,4.078-2.124,8.548-1.012,12.797
			c1.052,6.313-1.132,19.641,4.71,42.499C481.022,1358.77,505.674,1359.391,526.478,1339.549z M524.474,1228.485
			c-0.18-5.01,0.872-10.282-1.243-15.012c-5.482-16.865-19.732-18.85-35.334-13.017c-24.091,13.268-19.361,39.253-21.014,45.466
			c-0.511,5.652-0.481,11.414,0.802,16.976c3.838,1.213,36.186,4.189,54.374,1.493
			C524.384,1260.473,522.87,1236.172,524.474,1228.485z M463.285,1301.549c0-3.648,0.261-7.335-0.621-10.903
			c-2.806-26.957,10.612-18.699-41.237-25.534c-1.583-0.2-3.588-1.152-4.88,0.261c-2.646,1.894-1.734,5.552-2.575,8.318
			c-1.824,72.282,32.448,69.947,51.148,51.749C465.119,1325.239,463.235,1302.651,463.285,1301.549z M462.774,1262.768
			c15.913-54.996-47.971-100-47.33-6.664C420.224,1259.901,454.807,1263.579,462.774,1262.768z M413.029,1231.331
			c0.08-13.007-7.596-32.118-21.084-33.751c-15.042,0.481-24.421,31.125-24.221,54.284c4.64,1.062,34.042,5.191,42.249,4.189
			C412.117,1247.956,411.737,1239.529,413.029,1231.331z M409.492,1310.969c0.752-11.484-0.441-34.342-0.691-46.177
			c-8.859-2.255-31.316-5.902-41.337-5.091c-3.107,19.952,0.261,15.553-0.541,24.562c1.383,10.352,2.425,39.744,20.233,37.449
			C403.108,1322.974,408.41,1312.392,409.492,1310.969z M373.947,1040.971c-0.712-0.892-0.842-2.475-2.094-2.736
			c-29.873-8.358-44.313-42.419-105.722-41.076c-9.931-0.621-32.258,4.469-37.248,9.29c8.267,6.895,18.469,12.566,29.522,12.576
			c1.273-0.23,3.026,0.411,2.966,1.944c-1.042,3.838-4.93,6.594-4.349,10.873c13.238-3.668,27.358-21.676,33.19-23.71
			c-7.305,15.042-34.743,30.685-36.978,35.034c13.999,1.673,40.295-11.965,48.823-20.934c2.205-2.385,4.88-4.239,7.576-6.023
			c-4.379,8.157-11.234,14.751-19.07,19.571c-2.776,2.024-6.393,3.748-7.305,7.365c15.302,1.513,33.51-14.972,43.752-21.976
			c-3.457,7.165-11.404,10.402-16.545,16.094c0.23,0.391,0.722,1.142,0.962,1.533c9.019,0.842,18.158-0.17,27.207,0.511
			c-8.748,3.127-18.509,2.555-27.217,6.113c-0.251,0.401-0.742,1.182-0.982,1.583c2.996,2.606,7.997,2.405,23.199,5.902
			c-0.22,0.261-0.651,0.772-0.872,1.032c-21.595,2.505-31.115-9.35-44.063-3.177c2.265,7.746,15.052,7.676,24.011,13.348
			c-10.743,1.774-28.36-10.011-41.808-9.961c-2.545,0.16-5.001,0.952-7.546,1.243c2.475,7.185,14.43,8.257,20.834,15.493
			c-17.296,1.092-29.773-16.144-37.288-15.112c0.321,7.155,11.103,8.849,13.949,16.625c1.493,3.928,6.333,4.9,10.051,5.261
			c30.354-0.331,28.811,3.698,80.189-24.552C358.485,1048.647,366.602,1045.51,373.947,1040.971z M368.526,1222.603
			c-0.19-8.047,3.818-24.472-19.06-28.37c-21.605-0.782-14.871,26.917-17.747,39.052c0.611,6.013-1.674,11.875-0.581,17.858
			c0.17,0.601,0.18,1.193,0.1,1.774c-0.2,1.523-1.042,2.986-1.303,4.519c-2.074,10.011-3.016,20.273-2.275,30.484
			c4.199,15.422,12.085,20.714,19.19,21.225c5.652,0.531,10.151-3.537,14.16-6.935c-0.16-3.197,0.16-6.363,0.772-9.48
			c0.651-21.405-0.782-34.533-0.782-34.533c-7.436-2.736-15.503-2.886-23.059-5.131c2.956-0.25,5.922-0.13,8.909-0.12
			c3.578,0.21,7.005-1.253,10.612-0.862C363.846,1251.905,364.086,1255.252,368.526,1222.603z M250.978,1029.366
			c0.2-1.223,0.311-2.435,0.361-3.658c-9.761-3.588-18.238-9.63-27.317-14.521c-14.771-8.718-16.415,9.119-35.745,12.737
			c-5.842,0.21-11.695,0.02-17.537,0.05c0.01,1.403,0.722,29.011,3.417,32.308c6.834,2.455,14.37,3.327,21.615,2.776
			c8.027-2.756,16.615-2.986,24.792-5.091C232.449,1050.421,247.08,1035.249,250.978,1029.366z M243.583,1066.865
			c0.381-1.523-1.032-2.445-1.764-3.527c-2.094-0.18-4.099,0.22-5.592,1.794C238.282,1066.655,241.087,1068.91,243.583,1066.865z
			 M142.229,982.327c36.216-28.38,33.961-47.28,33.44-65.939c-1.854-5.281-6.063,4.049-25.824,6.393
			c-15.833,2.145-30.855,13.478-34.192,38.04C113.95,965.793,119.622,966.013,142.229,982.327z M164.005,1049.729
			c0.431-8.658-3.487-35.906-17.717-54.044c-17.186-23.74-58.112-39.102-92.154-29.071c-5.552,1.523-2.495,6.604,2.716,16.575
			c0.742,1.543,2.535,3.016,4.269,1.984c13.168-8.297,20.583-7.436,32.919-7.245c14.921,2.094,26.566,7.796,38.892,30.113
			c12.256,23.099,4.239,28.831,5.071,37.88c7.726,3.437,15.913,5.742,24.131,7.636
			C162.813,1052.315,164.035,1051.222,164.005,1049.729z M112.276,1036.301c7.195,3.307,23.68,13.899,21.595,2.966
			c-1.503-47.089-35.605-60.608-69.296-47.931C56.589,993.2,86.192,1024.165,112.276,1036.301z M131.477,905.456
			c11.464-14.841,5.752-35.395-0.561-52.009c-10.863-25.233-20.293-40.886-20.744-73.885c-0.491,0.361-1.463,1.072-1.954,1.423
			c-4.499,7.576-11.414,13.188-16.835,20.032c-22.638,22.457-23.109,24.502-20.112,32.268c1.854,6.063,4.66,11.785,7.877,17.226
			c0.631,1.293,2.195,1.413,3.387,1.874c4.359-8.147,6.624-17.377,11.865-25.043c-5.882,25.524-4.98,20.132-4.98,25.834
			c10.362-2.235,15.002-13.108,23.56-18.128c-1.814,13.128-23.92,25.293-25.634,28.159c-0.872,3.277-1.503,6.664-1.293,10.071
			c10.442-0.842,26.656-19.621,32.949-21.636c-0.802,4.049-2.916,7.716-5.792,10.642c-17.026,17.206-17.838,14.691-12.897,25.884
			c1.213-0.16,2.605,0.17,3.688-0.551c14.901-9.38,15.964-12.677,19.932-13.108c-3.417,9.089-10.642,15.923-16.374,23.55
			c0.711,0.872,1.433,1.754,2.155,2.646c6.063-2.195,2.155,3.096,11.965-0.641c0.521,0.25,1.603,0.762,2.134,1.012
			c0.742,2.415,0.872,4.94,0.952,7.466C127.098,907.851,129.924,907.61,131.477,905.456z M119.131,514.924
			c16.976-7.195-3.267-24.772-10.101-33.511c-20.293-19.281-28.009-37.218-28.861-59.024c0.06-10.171-0.501-30.945,2.195-46.498
			c-4.76,0.932-9.901,35.665-9.63,60.888c1.363,4.439,0.18,9.139,1.223,13.639c6.293,40.375,21.615,49.033,33.601,61.269
			C110.803,514.182,115.022,515.555,119.131,514.924z M113.709,943.135c0.05-28.169-15.062-36.948-23.95-55.166
			c-3.297-6.584-5.862,1.754-11.915,7.145c-32.078,35.725-17.467,51.268-7.556,63.454c4.079,0.09,8.147-0.12,12.226,0.11
			c2.555,0.531,5.151,0.942,7.776,0.772c6.283-0.411,12.166,2.295,18.268,3.327C113.84,963.939,112.326,948.646,113.709,943.135z
			 M107.737,565.721c23.189-13.418-20.573-27.127-39.192-50.566c-1.844-2.555-2.796-5.862-5.712-7.466
			c-1.132,6.193,1.293,12.156,2.746,18.078c3.507,12.977,8.107,26.365,17.607,36.276C94.018,570.37,96.183,572.134,107.737,565.721z
			 M70.709,872.306c3.187,6.634,9.771-7.586,5.381-13.027c-3.467-5.742-5.381-22.638-7.947-28.971
			c-0.441,0.01-1.333,0.01-1.774,0.01C54.775,844.187,60.598,856.743,70.709,872.306z M69.096,890.083
			c0.722-2.966-1.273-5.441-2.415-7.997c-7.907-14.881-8.738-26.456-10.061-29.402c-0.541,0.2-1.603,0.611-2.134,0.812
			c-0.331,2.004-1.032,3.938-1.152,5.993c1.233,5.772,0.281,11.985,3.267,17.367C59.205,882.237,62.071,889.813,69.096,890.083z
			 M50.667,966.224c3.537-1.513,7.355-2.425,10.512-4.71c-2.826-8.107-15.002-16.134-8.648-37.82
			c3.227-10.582-5.301-33.771-7.636-37.138C35.956,883.389,40.565,959.94,50.667,966.224z"/>
		<path d="M975.112,345.938c0.571,1.092,45.065,49.103,38.631,57.08c-6.203-4.319-11.725-9.56-18.298-13.338
			c-8.498-5.131-41.437-21.906-51.168-21.455c1.814,6.123,5.682,11.384,7.556,17.467c-0.24,0.261-0.732,0.782-0.972,1.042
			c-20.443-4.429-23.099-8.237-39.243-8.398c0.11,5.712,5.492,9.149,7.225,14.28c-3.958,0.321-7.466-1.674-11.154-2.706
			c-19.822-6.013-17.336-5.902-20.704-3.247c1.002,2.355,4.69,4.55,3.397,7.255c-2.826,0.701-5.782,1.663-8.678,0.852
			c-3.768-0.942-7.686-0.15-11.454-1.012c-12.797-1.293-23.59-6.403-22.167-1.313c1.132,2.535,3.086,4.71,3.547,7.526
			c-7.646,1.934-15.593,0.511-23.349,1.072c-10.322,7.325-16.354,42.65-36.537,61.7c-18.93,20.303-45.295,33.921-73.054,36.316
			c-0.992,0.04-1.954,0.06-2.896,0.06c-20.403,0-29.632-9.53-36.597-14.971c-34.593,8.027-38.571,1.393-47.019,2.335
			c-5.892,2.656-23.82,22.357-57.902,22.978c-12.897,0.23-28.099-2.265-45.836-9.45c-7.486,6.724-14.07,15.352-24.131,18.278
			c-44.744,12.055-96.714-53.553-138.592-59.124c-7.185-1.393-14.911,1.273-21.786-1.573c3.768-7.867,13.659-12.366-8.348-61.389
			c-2.124-4.61-37.679,10.101-50.476,2.816c1.493-2.946,3.227-5.792,4.029-9.029c-8.418,0.291-17.878,4.58-34.573,4.309
			c-2.876,0.311-5.842,1.453-8.598-0.04c0.281-2.996,2.325-5.301,3.948-7.676c-3.848-5.121-15.473,3.527-31.516,6.193
			c0.08-5.732,7.165-8.458,7.095-14.32c-18.519-0.511-34.613,9.42-40.856,7.656c1.663-6.283,6.143-11.444,7.225-17.908
			c-7.145-0.441-29.532,10.432-31.105,11.304c-35.615,18.88-16.334,8.478-38.21,23.57c-4.109-9.911,38.411-55.908,39.032-56.87
			c-3.257-1.984-7.075-1.263-10.672-1.563c-4.59-2.305,15.603-25.253,30.314-35.104c2.605-1.924,5.772-3.838,6.564-7.225
			c-2.726-0.691-5.532-1.072-8.197-2.014c13.579-13.669,21.996-23.489,40.736-31.847c0.671-4.028-3.638-5.151-6.243-6.935
			c0.531-5.983,21.676-18.038,49.304-21.475c3.217-0.531,6.945-0.541,9.36-3.056c-2.736-4.099-7.796-5.301-11.143-8.738
			c3.978-4.489,16.174-8.027,30.284-6.594c9.4,0.962,19.641,4.119,28.871,10.682c5.391,4.74,8.889-6.554,14.851-10.572
			c12.767-10.783,20.864-8.418,27.588-8.648c15.372,0.832,19.932,7.305,25.013,9.41c2.555-0.802,3.788-3.417,4.93-5.612
			c8.558-16.475,18.89-32.047,27.498-48.492c3.367-6.434,6.474-12.997,9.099-19.812c2.245-5.652,1.824-11.885,3.467-17.677
			c33.009-0.21,26.626,2.265,54.805-10.302c14.23-6.383,28.751-13.989,44.674-13.989c0.451,0,0.912,0.01,1.363,0.02
			c15.152,2.545,38.992,4.129,52.49,48.312c0.571,0.09,1.714,0.271,2.275,0.371c1.904-7.265,0.842-21.004,23.008-29.031
			c30.404-9.56,56.439-4.269,83.025-14.33c4.109-1.323,7.726-3.898,11.965-4.84c8.768,31.416,20.393,36.757,41.628,63.484
			c1.303,1.664,2.816,3.337,4.89,4.039c3.758-1.243,10.492-12.176,23.88-8.909c14.831,4.7,41.878,37.329,42.58,38.291
			c3.117,4.409,12.366,12.506,24.932,19.12c5.532-0.311,11.053-2.726,16.585-1.112c5.451,1.413,11.915,1.633,15.843,6.223
			c-4.289,4.209-11.294,4.82-14.4,10.342c3.578,1.944,44.764,3.137,60.888,22.066c-2.385,2.355-6.414,3.648-7.055,7.295
			c12.125,7.235,32.679,20.223,40.696,32.418c-2.736,1.403-6.283-0.09-8.688,1.904c0.241,2.686,2.986,3.838,4.75,5.492
			c12.687,8.638,24.652,19.261,34.352,36.006C983.76,345.708,979.121,343.994,975.112,345.938z M934.216,359.918
			c30.554-0.281,56.158,24.862,65.117,24.321c-8.498-19.461-43.882-44.925-32.689-43.592c3.988-0.02,8.137,0.241,11.705-1.904
			c-10.191-20.393-47.059-37.529-49.384-38.782c5.512-3.547,12.707-1.333,18.509-4.269c-2.686-5.642-21.866-21.595-36.567-25.103
			c-1.714-0.822-5.421-1.012-4.76-3.638c3.137-2.405,6.885-3.998,9.58-6.985c-21.736-17.186-58.633-16.485-61.84-17.567
			c-0.261-6.063,7.015-8.318,8.157-13.899c-11.244-1.964-24.702,5.111-25.534,8.207c-2.165,6.053-7.125,25.704-5.662,35.685
			c7.335-5.381,11.053-14.1,17.858-20.032c0.261,0.421,0.772,1.283,1.032,1.714c-5.391,16.254-20.944,30.705-23.73,37.84
			c14.14-5.081,33.06-30.574,38.04-34.773c-2.505,16.966-21.575,27.458-23.329,35.264c14.601,1.894,35.845-26.666,42.96-28.851
			c-4.78,10.191-24.502,25.534-27.668,31.256c2.195,0.501,4.469,1.904,6.764,0.942c15.603-4.469,31.747-16.014,36.677-17.537
			c-1.714,7.606-18.439,13.999-24.111,20.293c6.163,9.971,28.099-0.732,39.403-3.046c-6.273,5.862-16.966,8.568-16.344,11.324
			c5.451,5.682,29.552,10.973,38.671,33.931c-7.025-4.96-12.787-12.386-21.545-14.32c-3.588,0.07-7.496-0.882-10.773,0.932
			c3.187,6.634,8.287,12.296,10.532,19.391c-2.595-2.195-5.081-4.54-7.015-7.335c-15.924-18.93-26.997-15.392-30.995-15.533
			c-0.261,3.978,3.447,6.343,5.411,9.38c6.123,8.628,12.416,17.316,16.855,26.947c-6.414-1.373-27.267-40.756-46.708-33.901
			c4.089,9.62,6.754,8.999,22.267,34.853c-8.648-6.063-27.618-34.342-42.339-35.705c1.493,7.055,24.912,27.528,22.888,41.427
			c-4.82-1.473-24.792-34.022-38.311-40.395c-1.684-0.832-4.479,0.491-3.457,2.585c5.832,11.043,22.157,28.6,25.043,39.643
			c-7.155-3.678-21.024-24.752-27.097-26.596c3.788,15.463,11.845,30.013,23.169,41.257c27.398,0.251,28.38,5.401,40.245,3.898
			c-1.393-3.207-4.499-5.852-4.389-9.54c11.494-1.694,22.257,3.477,33.43,5.031c-0.591-3.698-2.786-6.844-3.698-10.432
			c9.269-3.247,32.819,7.315,42.419,6.854C942.113,371.963,936.331,366.722,934.216,359.918z M913.172,320.254
			c-0.762-1.233-1.814-2.205-3.127-2.776c-30.294-14.571-43.973-14.35-63.544-16.284c-3.598,0.14-18.048-2.084-25.714-1.704
			c-4.059,3.978-7.846,8.257-12.156,11.965c-2.585,2.335-7.506,3.006-7.546,7.215c8.157,0.07,16.004-3.497,24.221-3.257
			c3.127,0.04,38.26-0.291,45.185,1.493C900.886,319.482,903.371,321.266,913.172,320.254z M839.858,397.056
			c0.691-1.884,0.792-3.888,0.431-5.842c-1.533-0.05-3.357-0.802-4.62,0.461c-0.15,1.313-0.251,2.636-0.301,3.968
			C836.841,396.144,838.334,396.635,839.858,397.056z M834.747,228.17c0.802-1.283,0.912-2.816,0.822-4.279
			c-4.339-4.75-14.751-5.702-29.392-24.562c-13.128-14.18-19.922-32.649-46.428-24.201c-1.042,0.722-3.006,0.772-3.157,2.285
			c0.932,3.417,2.255,6.734,3.948,9.851c15.102,26.075-1.573,40.956-3.157,59.385c8.789-2.425,20.774-24.822,36.617-25.153
			c-2.365,5.832-33.891,24.572-34.803,46.147c0.02,3.056-0.271,7.766,3.447,8.778c6.905-9.971,15.002-27.257,26.365-31.596
			c-2.535,9.32-16.845,22.608-15.443,31.556c3.507-0.892,6.434-3.177,9.921-4.129c0.972,4.83-9.37,12.216-11.133,21.084
			c5.852,3.537,12.326,6.153,17.477,10.773c2.886,2.104,5.081,5.752,9.079,5.662c5.051-5.592,7.386-5.562,16.134-21.535
			C823.313,270.209,827.772,240.647,834.747,228.17z M825.788,395.933c1.874-2.525,4.86-4.099,5.842-7.265
			c-4.269-6.965-11.715-11.274-15.543-18.549c-9.45-16.715-14.801-35.475-25.203-51.679c-9.199-14.31-16.855-15.102-29.913-16.465
			c-1.523,0.23-4.289-0.772-4.72,1.373c-2.836,12.657-12.326,24.812-8.608,35.765c5.291-0.291,8.217-6.033,13.559-6.343
			c-3.277,11.053-10.823,2.666-9.36,27.648c3.457,1.383,5.021-2.605,7.436-4.199c3.618-2.515,7.426-5.522,12.045-5.592
			c-0.291,0.481-0.842,1.453-1.122,1.934c-4.81,3.878-9.69,8.047-12.977,13.328c-2.906,7.626-5.371,16.184-2.836,24.251
			c5.291-0.491,10.592-1.473,15.944-0.772c0.381,0.261,1.162,0.762,1.553,1.022c-5.311,3.066-11.755,4.028-16.465,8.107
			c-3.367,3.958-6.834,8.738-6.313,14.22c4.309,0.01,8.608-0.07,12.917,0.13c-0.17,1.092-0.391,2.195-0.641,3.287
			c-5.502,3.267-12.426,4.089-17.116,8.728c-5.021,6.233-8.177,21.425-23.58,36.026c-15.362,14.791-20.383,10.191-20.152,24.742
			c23.74,13.288,65.348-7.716,82.023-25.363C805.746,435.737,808.101,420.976,825.788,395.933z M754.698,217.227
			c2.475-2.435,2.004-6.023,2.746-9.119c-4.119-41.938-50.136-56.379-50.586-97.134c-3.868-0.671-7.155,2.044-10.362,3.768
			c-33.571,22.838-73.214,1.503-95.611,27.438c-13.468,15.222-0.842,54.154,32.057,39.794c5.762-3.357,8.398-20.203,15.703-26.165
			c-4.089,23.429-11.644,25.413,1.934,36.938c1.243,0.531,2.646,0.691,3.988,0.451c3.828-5.391,6.514-24.792,14.971-34.262
			c0.511,10.542-9.009,23.429-8.307,52.731c1.393,3.668,12.516,4.409,14.591-5.131c2.345-9.59,2.756-18.459,11.043-41.748
			c1.704,11.013-3.347,21.565-3.117,32.528c1.493-0.251,3.387-0.01,4.279-1.553c5.932-7.235,11.073-15.172,14.491-23.92
			c1.062-2.726-0.18-5.943,1.684-8.438c13.378,28.109,18.739,28.129,34.272,50.857C742.262,219.051,745.429,226.346,754.698,217.227
			z M748.225,306.856c2.044-32.559-10.432-28.861-12.506-40.185c1.944-12.055,6.814-8.187,6.674-29.582
			c-3.036-13.248-34.372-58.804-35.194-59.766c-3.046,3.046-4.179,7.295-6.484,10.823c-9.019,13.288-20.974,24.231-29.923,37.569
			c-1.613-0.01-3.217,0.01-4.82,0.06c0.14,1.493,0.06,3.076,0.842,4.419c3.167,6.243,3.317,13.378,4.63,20.122
			c0.671,2.545,3.658,1.343,4.429-0.461c3.958-6.343,5.582-13.769,7.486-20.904c1.934,2.595,1.092,5.953,1.283,8.939
			c0.681,12.586-12.717,22.838-7.005,30.634c12.426,0.862,14.511-24.622,20.263-44.243c4.039,44.053-11.023,46.508-11.875,53.563
			c1.313,0.772,2.585,1.633,3.978,2.285c10.021-0.932,15.432-32.088,16.815-36.457c0.832,1.513,2.114,2.956,2.084,4.78
			c0.291,28.57-3.417,19.762-5.121,33.019c20.664-11.865,13.999-24.231,15.272-41.086c0.962,2.555,1.754,5.231,1.623,7.997
			c-1.022,87.113-63.293,104.821-104.821,146.117c-7.165,6.824-26.325,28.71-18.258,33.871c2.165-2.475,3.317-5.692,5.822-7.897
			c7.726-7.857,16.645-5.953,45.105-6.113c29.492-3.097,24.261-22.427,21.605-37.329c7.626-4.58,27.518-0.732,42.83-12.276
			c14.821-8.368,5.882-26.005,7.015-34.052C733.995,329.554,742.914,324.423,748.225,306.856z M712.259,456.3
			c22.287-14.982,41.517-75.659,19.641-109.871c-0.361,0.11-1.062,0.331-1.413,0.451c-1.583,3.537-1.423,7.616-3.046,11.153
			c-9.119,22.127-37.028,22.317-50.055,24.652c1.022,7.566,0.461,15.292,0.381,22.888c-5.953,13.939-23.78,14.671-29.001,13.639
			c-5.882-1.553-12.055,0.16-17.978-1.122c-20.243-3.377-34.954,9.68-33.29,34.022c1.062,9.009,16.956,18.439,21.305,20.273
			c0.351-0.271,1.052-0.802,1.403-1.072c-1.132-5.401-5.441-9.39-6.694-14.761c-2.726-10.111-1.934-22.998,7.285-29.612
			c-0.952,4.139-2.595,8.087-3.557,12.226c-5.772,24.953,21.435,33.571,32.629,39.513
			C666.693,483.828,696.115,470.921,712.259,456.3z M683.789,320.495c1.122-26.375-14.2-56.96-20.273-54.435
			c-3.307,4.109-7.265,7.616-10.953,11.364c6.253,9.55,3.618,22.207-2.525,31.116c-8.999,13.969-27.668,11.905-29.081,12.115
			c-2.225,3.026-0.742,16.074-18.138,24.311c-15.062,8.027-33.21-12.747-44.504,1.543c-6.694,6.814-6.564,16.946-6.083,25.824
			c1.433,3.187,3.357,7.476,7.275,7.887c2.305-8.708-0.661-18.289,3.798-26.506c4.259,5.772-0.521,36.116,11.174,40.094
			c2.936-8.799-1.002-27.328,3.708-31.346c4.219,14.521,1.854,37.699,10.572,37.92c2.395-5.121,0.371-10.883,1.413-16.254
			c1.243-4.229-0.661-9.159,2.605-12.737c2.626,4.129,0.411,19.691,4.9,28.189c1.403-0.491,2.976-0.812,4.149-1.804
			c9.781-8.849,8.007-11.434,58.022-48.642C689.501,325.756,682.887,329.564,683.789,320.495z M659.608,257.562
			c7.325-22.307-2.676-30.254-12.937-30.244c-7.977,0.12,1.774-8.428,0.07-16.234c-3.968-15.463-25.784-17.998-37.689-10.512
			c-0.18,4.429,2.365,8.247,4.089,12.156c16.425,34.583,6.063,42.69,7.195,52.871c6.754-3.828,5.091-6.243,12.426-11.404
			c-0.07,0.661-0.21,2.014-0.281,2.686c-7.836,17.316-12.236,21.796-35.535,35.114c-11.204,6.454-57.882,24.712-52.911,63.393
			c4.069-1.924,4.77-14.681,17.346-19.381c12.937-3.948,28.44,15.382,44.213,1.112c5.461-6.143,5.993-14.681,7.736-22.337
			c1.443-0.11,2.906-0.301,4.359-0.05c5.331,1.152,10.823,0.641,16.234,0.651c8.077-1.714,18.268-16.645,16.114-29.141
			c-1.854-3.377-6.915-6.403-4.409-10.803C650.569,269.748,657.183,265.028,659.608,257.562z M611.477,489.901
			c3.387-1.814,7.325-2.896,9.871-5.963c-20.423-13.779-35.775-22.277-37.369-47.169c-0.531-5.331,2.786-10.372,1.313-15.663
			c-5.131,0.11-10.292-0.301-15.402,0.16c-13.649,3.588-24.802,13.629-45.335,16.535c-28.851-3.307-30.184-16.906-34.873-23.469
			c-3.207,0.992-5.822,3.036-8.027,5.512c0.06,7.917,6.273,23.85,8.588,29.181C510.334,484.079,556.461,519.002,611.477,489.901z
			 M613.16,261.15c8.428-26.867-6.514-38.782-14.831-61.74c-5.642,1.443-14.47,25.023-31.556,23.91
			c41.938-23.57,31.065-64.145-2.896-69.737c-17.026-3.928-40.816,6.874-51.879,18.81c-19.581,18.329-13.749,35.916-9.49,49.284
			c1.152,3.297,0.621,6.965,2.245,10.121c4.259,1.122,9.149,2.686,13.298,0.411c-3.848-9.54-10.582-16.926-2.505-36.888
			c-1.062-0.481-2.124-0.952-3.177-1.433c9.48-24.011,54.054-37.369,66.089-26.195c15.262,14.931-3.858,44.754-15.463,46.157
			c-20.052,3.918-29.933-4.269-31.887-11.865c6.414,8.698,18.499,11.394,28.54,8.518c2.225-7.816,0.261-16.044-0.13-23.99
			c-4.95-1.012-9.239,2.425-14.06,2.916c-5.963,0.641-11.614,2.676-17.457,3.948c-6.604,3.698-10.211,11.294-11.083,18.589
			c0.521,8.959,8.137,21.836,14.34,21.295c6.253,0.23,13.498-1.293,18.639,3.277c2.906,3.307,7.646,1.423,11.244,0.501
			c21.666-4.319,32.549,15.823,39.613,18.379c0.431-12.156-8.698-21.626-12.867-32.378c6.093,0.932,20.744,25.664,21.275,33.04
			c-0.02,2.084,1.253,3.818,2.165,5.602C611.788,261.551,612.7,261.29,613.16,261.15z M600.193,283.106
			c-1.804-6.524-3.107-13.328-6.444-19.281c-5.882-4.87-13.999-6.504-21.405-5.081c-9.43,4.059-14.561,13.649-21.926,20.303
			c-5.792,5.111-12.657,10.853-20.974,9.56c-7.145-1.102-14.631-5.391-16.966-12.617c-1.042-1.814-1.263-5.832-4.179-4.94
			c-11.434,6.955-13.839,8.969-26.826,6.003c-6.233-1.152-11.163-7.967-13.889-2.104c-4.86,12.627-8.478,26.105-7.566,39.744
			c6.884,8.508,14.881,16.044,22.577,23.82c3.708-4.189,0.732-27.177,8.899-37.719c-0.351,1.643-2.866,23.469,0.05,37.439
			c1.944,4.91,5.041,9.901,10.131,12.025c4.479-5.542,0.581-36.827,5.792-42.018c1.633,17.968,2.315,59.876,18.689,62.842
			c-0.17-5.522-4.008-13.198-4.97-23.69c0.03-2.595-0.231-5.161-0.832-7.676c1.112-3.958,0.281-18.8,6.464-22.137
			c1.193,6.794-2.475,25.153,5.341,43.331c0.772,1.453,1.643,4.079,3.818,3.056c2.245-4.81,0.351-10.242,1.403-15.272
			c0.732-3.046,0.371-6.233,1.243-9.249C546.45,299.44,585.442,297.206,600.193,283.106z M593.619,436.879
			c1.984-1.734,2.295-4.269,2.144-6.744c-0.611,0.17-1.854,0.521-2.475,0.691C593.219,432.841,593.229,434.885,593.619,436.879z
			 M519.954,157.461c33.21-23.249,55.387-6.033,63.363-6.243c-0.681-6.203-13.869-29.111-29.221-35.134
			c-22.477-9.249-50.085,5.441-69.496,13.569c-28.34,12.957-40.275,6.844-47.28,5.311c-2.636,4.94-2.786,10.703-4.57,15.954
			c-7.426,27.628-24.993,50.817-36.437,76.701c-10.943,26.285,0.391,39.814,8.558,53.072c1.002,1.243,1.613,3.056,3.307,3.537
			c26.706,9.149,24.001,11.464,30.955,11.153c-0.842-11.925-16.294-22.938-18.82-29.773c8.307,2.716,15.673,13.278,21.114,16.775
			c-0.13-23.99-15.513-40.515-18.559-52.711c15.012,11.093,21.455,38.251,28.73,46.067c8.889-11.484-6.293-50.035-8.758-58.323
			c6.945,5.662,11.344,20.453,18.168,28.831c1.864-2.275,3.598-4.66,5.001-7.245c-3.898-4.69-8.378-9.45-9.37-15.703
			c0.03-5.141-0.822-10.572,1.523-15.372c4.459-13.037,18.068-23.56,36.777-22.467C504.492,169.357,515.485,160.247,519.954,157.461
			z M579.199,411.366c0.18-0.381,0.521-1.162,0.701-1.543c-20.623-24.532-103.498-14.14-118.389-60.457
			c4.239,2.726,28.39,25.654,39.132,23.82c-4.55-7.706-12.316-12.697-17.537-19.882c-14.27-13.579-27.548-35.916-56.208-52.26
			c-13.679-7.857-34.212-10.021-39.824-8.638c0.932,2.916,2.064,5.772,3.517,8.468c12.977,23.92,4.499,47.72,29.011,60.247
			c7.937,4.008,17.086,2.766,25.534,4.83c-3.277,5.512-6.965,11.214-7.045,17.858c2.726,16.304,17.918,28.71,53.142,17.727
			c5.812,5.632,2.074,17.086,12.637,25.203C521.327,436.849,551.731,416.787,579.199,411.366z M569.088,254.536
			c3.487-1.974,7.556-2.215,11.354-3.247c-2.986-7.175-14.48-6.504-22.006-6.243c-7.385,1.363-13.238,6.363-19.862,9.42
			c1.112-5.742,7.626-8.448,8.237-14.31c-13.128-0.511-26.305,0.04-39.443-0.271c-22.628-8.738-13.118-38.411-17.647-47.059
			c-15.042,0.431-26.526,14.531-28.901,29.682c1.894,12.236,10.222,11.264,15.392,14.35c-2.926,8.508-10.382,15.853-3.778,26.345
			c3.778,6.203,11.484,9.4,18.579,8.608c8.398-0.972,14.41-7.366,21.044-11.865c1.613,0.611,1.473,2.475,1.884,3.868
			c4.319,19.912,9.981,18.379,19.09,17.898C548.234,277.404,555.81,261.921,569.088,254.536z M567.755,202.446
			c6.814,6.434,27.458-34.723-4.68-34.643c-13.017-0.762-31.647,7.366-43.341,20.363c1.363,0.732,2.906,0.862,4.289,0.12
			c14.1-5.421,32.518-7.135,37.569-3.878C565.36,189.769,564.318,196.925,567.755,202.446z M488.087,510.845
			c16.785-1.774,35.404-12.657,29.693-17.276c-8.448-7.275-27.768-20.924-41.367-46.959c-1.894-3.377-7.546-26.145-15.142-18.379
			c-6.634,6.233-7.085,13.047-10.462,13.428c-0.351-7.496,3.648-14.25,7.355-20.463c2.275-6.103-12.286-6.333-16.445-3.908
			c-3.828,3.217-7.315,6.814-10.632,10.562c-1.343,1.623-2.475,3.497-4.399,4.499c-4.55-9.229,10.923-17.076,13.088-25.213
			c-0.782-1.092-1.323-2.515-2.626-3.076c-2.134-1.443-19.07,2.766-27.177,9.41c-5.051,3.758-9.029,8.708-13.669,12.937
			c-1.774-15.332,23.339-25.965,28.34-29.943c2.255-2.084,2.074-5.421,1.182-8.117c-21.355,0.641-21.114,7.776-36.407,16.234
			c1.663-9.771,15.072-18.048,16.034-18.749c4.76-3.728,17.046-5.702,14.881-9.27c-7.756-4.96-32.448,3.227-38.852,4.389
			c6.153-7.366,15.893-9.62,24.461-12.917c7.035-3.918,0.461-0.401-9.259-22.367c-0.902-1.373-1.182-3.527-2.856-4.129
			c-25.985-1.503-42.8,4.83-52.38,28.4c-8.338,20.784,13.288,45.867,11.925,76.331c-0.241,2.265-1.684,5.061-0.09,7.065
			c11.624,3.728,18.048-4.58,58.212,19.601C440.367,489.831,459.667,507.799,488.087,510.845z M381.824,257.843
			c1.423-23.489,2.746-18.619,3.447-26.586c-4.179-4.93-10.322-7.937-16.445-9.67c-5.983-0.07-12.005-0.281-17.978,0.11
			c-19.661,6.524-28.891,24.842-41.076,36.377c-0.431,4.52,3.768,7.376,6.404,10.472c7.877,9.771,9.73,26.836,9.801,36.357
			c1.253,4.439,0.341,9.069,0.812,13.599c2.746,11.975-3.056,14.48,13.859,31.556c3.237-0.341,5.602-2.786,8.127-4.58
			c8.468-6.744,18.178-12.586,29.081-14.04c2.054-0.12,3.227-1.964,3.618-3.788c-4.409-4.409-20.072-10.693-23.429-13.819
			c7.516-0.732,14.2,3.738,21.555,4.259c4.98-10.883-23.56-15.883-27.227-19.301c9.56-3.187,17.667,2.435,25.584,2.435
			c-4.429-12.877-8.698-6.794-14.571-10.412c0.892-3.568,5.281-3.708,7.987-5.281c11.604-2.956-18.068-13.108-28.881-22.908
			c8.718,0.17,26.917,11.424,37.95,11.725c0.621-10.723-15.402-16.164-21.475-26.897
			C367.644,246.559,376.082,258.444,381.824,257.843z M332.089,366.271c0.581-2.746,2.064-5.311,2.124-8.117
			c-3.096-4.309-6.864-8.067-10.001-12.326c-3.477-1.182-5.732,2.666-7.887,4.7c-2.064,2.786-15.513,17.577-19.351,18.499
			c4.85-10.903,12.126-20.543,19.812-29.582c1.423-1.924,3.507-3.838,3.207-6.454c-0.17-1.924-0.581-4.97-2.996-5.141
			c-15.312,9.51-27.989,35.084-35.475,38.892c-5.482-6.123,20.363-36.226,24.231-42.509c-1.623-0.271-3.467-0.902-4.92,0.24
			c-21.716,13.699-27.448,27.969-38.882,37.419c5.762-14.891,21.626-29.462,21.215-36.166
			c-19.351-2.605-34.493,25.564-45.526,34.442c4.59-10.232,11.093-19.431,17.597-28.51c2.034-3.056,4.82-5.792,5.472-9.54
			c-17.026-0.02-25.614,9.189-39.934,26.476c2.505-8.127,8.488-14.551,11.424-22.457c-3.337-1.303-6.744,0.531-10.181,0.271
			c-9.28,0.772-14.531,9.51-22.177,13.589c1.884-3.778,5.191-6.614,7.035-10.422c4.6-8.698,15.202-13.138,31.977-22.748
			c-4.78-5.051-11.865-6.864-17.186-11.194c14.751,2.746,26.867,10.903,39.994,3.638c-0.22-0.591-0.661-1.764-0.892-2.355
			c-8.468-5.351-18.339-9.921-23.76-18.749c2.235,0.451,43.912,25.654,42.75,15.473c-1.423-3.347-23.439-21.124-26.386-30.524
			c7.776,3.848,29.181,31.035,43.311,29.723c-1.203-4.099-4.87-6.634-7.666-9.6c-5.011-4.97-16.284-19.311-16.184-25.794
			c6.353,4.56,20.012,25.734,37.058,34.002c-0.06-0.601-0.16-1.804-0.22-2.405c-8.418-10.943-18.118-21.525-22.337-34.984
			c0.18-0.481,0.541-1.443,0.732-1.914c6.273,5.472,11.404,16.274,25.494,29.743c0.571-0.01,1.704-0.01,2.265-0.01
			c-0.15-1.864,0.23-3.858-0.681-5.562c-2.786-5.832-6.895-10.973-11.574-15.402c4.92-7.606,12.617-13.348,15.603-22.187
			c-0.08-3.307-31.847-13.328-46.398-8.668c3.227,4.179,10.863,6.534,9.239,13.047c-4.8,0.581-9.7-0.351-14.44,0.752
			c-17.497,1.403-47.41,12.256-45.556,17.757c2.676,2.405,6.193,3.648,8.899,6.053c-11.645,6.975-9.921,1.283-29.472,15.954
			c-4.279,3.638-9.229,6.895-11.865,12.025c6.033,2.575,13.057,1.413,19.2,3.968c-6.073,3.958-15.302,5.572-35.034,21.696
			c-12.957,12.176-14.541,14.39-15.142,17.958c4.449,1.994,9.36,1.132,14.08,1.403c-6.153,11.454-34.142,34.102-33.901,43.662
			c4.83,0.01,8.137-4.028,12.115-6.163c15.483-8.648,31.777-16.956,49.604-19.14c4.74,2.295-4.499,10.332-7.476,19.962
			c11.504,0.411,29.893-8.348,41.086-7.376c0.631,0.651,1.273,1.323,1.924,1.984c-1.062,2.736-2.325,5.371-3.588,8.017
			c15.803,0.251,30.735-9.43,33.961-2.445c-0.842,3.117-4.199,5.001-4.54,8.368c11.695,0.271,22.868-4.82,34.593-4.299
			c0.261,4.008-0.271,7.967-1.032,11.895c11.645-1.754,10.181,0.401,35.425-6.183c-0.02-3.938,0.261-7.927-0.772-11.775
			C330.756,373.536,330.746,369.758,332.089,366.271z M319.042,316.436c0.14-5.922,0.04-11.845,0.06-17.767
			c-4.329,1.443-33.22,1.904-37.86,3.127c-24.852,1.283-54.034,14.851-55.757,17.497c5.371,1.062,10.662-0.531,15.964-1.172
			C284.489,312.628,293.007,311.395,319.042,316.436z"/>
		<path d="M786.024,504.201c110.903-6.033,175.299,82.123,173.555,97.355c-6.834-1.213,3.628,3.728-27.197-18.188
			c-23.59-15.863-53.943-29.131-85.861-34.994c-51.388-8.167-95.09,2.656-148.943,49.895c-76.872,72.553-82.524,112.176-85.7,118.59
			c2.625-21.345,7.255-41.267,13.528-59.676c21.355-62.762,61.65-108.027,105.492-132.87
			C749.026,514.052,767.766,507.278,786.024,504.201z M917.14,565.871c1.924,0.902,4.029,1.453,6.143,0.802
			c-3.207-3.988-7.927-6.303-11.865-9.46c-55.326-36.196-118.519-40.706-187.294,2.275c-55.156,33.611-84.147,78.275-89.238,94.9
			c1.593-0.341,2.896-1.303,3.968-2.505C729.505,547.182,779.37,509.182,917.14,565.871z M888.62,538.744
			c3.898,1.463,7.606,4.048,11.925,3.948c-1.423-3.157-4.7-4.65-7.335-6.594c-139.133-89.218-247.461,74.246-249.796,93.216
			c2.716-0.862,3.898-3.658,5.722-5.612c32.178-42.349,97.185-94.509,154.054-97.816
			C828.834,525.957,856.613,523.011,888.62,538.744z"/>
		<path d="M825.337,596.335c156.86,3.578,219.121,173.685,110.322,258.263c-42.58,34.653-91.342,38.932-149.515,29.893
			C652.774,864.64,613.581,689.922,721.027,627.41c42.459-23.149,68.695-28.871,95.13-30.624
			C819.164,596.044,822.271,596.405,825.337,596.335z M963.768,783.549c0.15-18.329-14.29-27.809-18.198-27.007
			c-6.033,2.405-10.923,7.045-17.196,8.939c-4.109,1.874-10.111,3.948-10.051,9.37c5.592,3.237,12.486,2.906,18.118,6.093
			c-2.976,2.505-3.808,0.491-15.833,2.866c-1.984,4.049,0.361,8.177,2.555,11.584c2.094,3.147,2.636,7.436,5.943,9.68
			c2.876,0.2,5.842,0.23,8.678-0.491C954.298,801.547,961.143,799.463,963.768,783.549z M961.423,694.251
			c2.886-10.021-5.902-22.958-15.032-23.259c-21.896,0.18-8.287,0.862-21.165,0.802c-0.671,1.042-1.523,2.014-1.654,3.307
			c-3.447,16.775-12.476,25.764-11.895,31.977c10.392,0.331,26.446-12.536,30.735-13.458c-4.82,7.145-12.196,11.965-18.83,17.286
			c-1.042,0.611-0.782,1.984-1.052,2.996c5.441,3.277,11.725,5.702,18.138,5.712C951.553,715.857,959.84,705.635,961.423,694.251z
			 M919.375,674.089c2.415-20.022-24.692-29.542-61.97,17.707c-4.099,6.013-7.897,12.526-9.38,19.701
			c10.813,13.088,30.665-15.473,38.421-19.892c-3.868,12.727-25.674,30.254-26.846,36.557c4.199-0.641,33.691-17.316,34.663-17.858
			C912.35,698.771,917.371,693.469,919.375,674.089z M948.717,737.532c-3.537-17.958-20.152-15.964-57.932-15.302
			c-27.277,15.503-22.217,11.284-26.255,19.02c6.243,2.966,37.659,2.034,43.502,0.952c-8.508,8.789-19.18,7.826-49.224,7.566
			c-0.351,1.233-0.641,2.485-0.892,3.758C869.42,765.411,943.275,782.136,948.717,737.532z M855.5,803.381
			c51.749,60.517,103.057,8.548,31.727-32.689c-6.343-3.708-13.679-4.96-20.754-6.464c-1.633-0.621-3.207,0.12-4.54,1.022
			c5.562,9.861,21.415,21.495,25.594,35.014c-7.646-6.263-24.471-27.899-35.394-31.977c-2.165-0.14-4.349-0.05-6.514-0.05
			c-3.948,3.507-0.02,8.167,1.383,11.915C850.881,787.497,852.153,795.825,855.5,803.381z M897.208,641.049
			c0.721-2.996-0.541-5.973-0.862-8.929c-3.287-21.615-29.883-18.048-33.17-18.068c-7.245,2.054-12.707,7.746-17.677,13.138
			c2.966,6.333,8.628,8.929,13.579,27.468c0.521,1.824,0.872,3.928,2.666,4.981c11.765-17.357,11.113-18.248,14.29-20.343
			c-1.102,7.426-5.832,14.09-5.291,21.766c6.223,0.281,19.12-7.005,24.822-10.171C896.797,647.723,896.577,644.316,897.208,641.049z
			 M865.842,866.163c35.134,3.337,31.206-28.38,25.484-30.314c-7.095-3.137-14.08-6.554-21.425-9.089
			c-1.142,6.003,2.786,11.264,2.515,17.186c-4.179-3.758-6.013-9.45-10.532-12.937c-1.283,0.03-2.525,0.16-3.768,0.371
			c-3.026,3.337-3.788,7.987-5.993,11.805c-2.044,3.527-4.008,7.125-6.524,10.352C851.382,859.038,857.896,864.269,865.842,866.163z
			 M844.187,708.281c3.327-6.434,11.013-29.372,9.68-51.308c-2.756-16.274-7.786-23.72-22.427-30.073
			c-12.566-6.073-21.385,9.7-23.369,23.339c-1.152,11.424,1.072,22.818,3.447,33.951c7.656,27.478,4.449,21.716,14.5,20.433
			c3.838-9.61,0.842-21.355,2.275-42.82c0.561,0.03,1.684,0.09,2.255,0.13c6.253,15.022,2.375,39.704,5.702,47.29
			C838.885,710.235,841.631,709.022,844.187,708.281z M808.401,850.55c24.151,19.882,55.076-11.895,36.667-58.844
			c-1.734-3.788-3.407-7.847-6.814-10.432c-3.016-2.445-6.604-5.411-10.743-4.449c-2.215,20.233-0.301,34.132-4.93,40.535
			c-7.606-19.13,0.441-40.846-7.796-39.914c-4.299-0.832-7.766,2.515-10.211,5.612C799.122,795.865,792.648,837.202,808.401,850.55z
			 M841.13,762.896c14.37-17.998,5.201-42.73-10.983-44.924c-26.526-4.59-40.275,19.922-24.632,43.141
			C813.322,771.003,827.682,773.568,841.13,762.896z M804.283,655.84c6.925-27.638,7.456-25.514,6.894-30.785
			c-8.528-20.092-52.521-17.336-49.304,19.15c1.253,5.431,4.349,2.445,24.421,16.084c3.828,2.555,6.203,7.867,11.514,7.496
			c0.872-6.484-5.592-14.761-8.578-26.556c4.289,4.7,8.067,9.801,12.176,14.651C802.128,655.87,803.561,655.85,804.283,655.84z
			 M809.604,710.415c0.501-5.351-1.363-10.422-3.497-15.212c-24.672-54.294-70.889-44.834-67.712-22.507
			c3.307,19.471,31.586,41.978,48.793,52.09c3.096,1.864,7.987,0.561,8.578-3.367c1.964-3.537-2.575-4.68-4.59-6.484
			c-7.355-7.115-20.243-20.714-22.056-30.805c7.576,3.066,16.575,21.475,32.629,27.819
			C804.443,712.219,807.55,712.59,809.604,710.415z M785.904,863.187c2.776-1.162,14.791-10.913,12.446-17.878
			c-1.834-5.983-1.944-12.817-5.943-17.878c-6.404,4.249-8.728,14.631-18.178,22.517c1.513-8.277,7.215-15.032,9.31-23.129
			c0.932-2.696-2.084-3.978-4.239-3.127c-5.201,2.134-9.901,5.311-15.222,7.165c-3.728,1.643-8.247,2.215-11.113,5.301
			C743.284,857.775,767.555,870.773,785.904,863.187z M729.896,822.361c20.233,20.263,70.739-11.935,67.813-48.682
			c-6.524,2.285-22.718,18.148-33.04,25.053c11.544-19.19,28.72-32.498,28.179-38.922c-5.391-0.742-9.941,2.545-14.771,4.279
			c-7.997,2.736-16.244,4.59-24.502,6.233c-4.87,2.625-8.738,6.744-12.526,10.693c-4.89,5.922-10.201,11.885-12.266,19.481
			C726.86,804.473,725.938,816.729,729.896,822.361z M790.353,749.998c-0.261-0.631-0.782-1.924-1.042-2.555
			c-6.764-3.287-31.075,2.315-43.121-8.107c7.907-5.031,35.284,3.227,41.127-4.65c-5.612-5.562-11.935-10.642-19.15-13.939
			c-35.334-4.65-56.91-11.003-62.461,11.364c-1.233,14.41,0.732,18.218,5.742,23.139
			C737.442,777.035,784.601,757.154,790.353,749.998z M744.156,701.476c0.882-5.081-3.237-8.768-5.381-12.887
			c-3.187-5.151-5.421-10.793-8.478-15.994c-20.333-0.1-33.661,7.726-32.999,28.269c1.674,5.502,3.618,11.544,8.077,15.382
			c4.369-0.621,8.097-3.698,12.576-4.099c1.824-0.14,3.688-0.1,5.512-0.521c5.351-1.092,10.893,0.281,16.254-0.832
			c-3.197-4.399-18.359-10.562-19.351-18.83c6.975,3.638,13.799,7.776,21.455,9.891
			C742.412,701.767,743.575,701.567,744.156,701.476z M729.776,776.424c0.752-2.836-1.182-5.912-3.898-6.774
			c-10.452-3.658-13.569-7.406-18.489-5.291c-25.634,22.868-6.564,43.141-5.602,43.782c5.031,4.119,12.246,3.417,18.078,1.643
			c2.886-2.886,3.157-7.325,4.66-10.963c1.172-4.55,5.291-8.207,4.53-13.188c-5.542,0.661-10.713,3.868-16.445,2.545
			C716.618,782.216,724.876,781.475,729.776,776.424z M697.688,827.602c-0.461-1.373-1.112-2.646-2.044-3.718
			c-0.23,0.992-0.391,2.014-0.511,3.046C695.764,827.091,697.047,827.431,697.688,827.602z"/>
		<path d="M929.296,1352.737c0.03,8.889-2.746,17.547-4.379,26.255c-3.958,18.759-17.537,35.565-35.745,42.119
			c-14.681,5.432-47.7,2.125-53.483,5.201c-7.275,3.337-15.072,5.361-22.287,8.808c0.762,3.708,4.469,5.411,7.235,7.506
			c11.494,7.005,21.676,16.655,34.743,20.734c3.778,1.573,8.187-0.11,11.695,2.275c-11.604,12.817-30.143,19.681-47.229,16.054
			c-33.28-5.371-53.793-42.66-78.595-29.723c-1.664,2.295,1.213,4.369,2.395,6.163c11.063,11.244,19.511,24.702,29.161,37.138
			c7.656,10.502,13.879,11.635,18.79,16.705c-8.648,8.328-37.208,8.548-55.216-7.135c-12.045-8.718-16.876-26.145-33.511-33.701
			c-6.574-3.317-15.252-2.635-20.593,2.716c-0.942,2.315,2.044,3.457,3.537,4.59c7.907,4.75,12.396,13.078,16.485,21.034
			c11.494,19.511,12.025,13.148,17.747,19.942c-2.064,1.934-4.92,2.014-7.556,2.485c-11.184,0.872-18.9-0.18-24.702-2.175
			c-15.723-5.401-17.467-17.747-36.316-17.747c-29.051,25.163,7.015,59.666,24.983,48.422c3.107-2.395,3.507-6.584,4.55-10.041
			c0.1-0.481,0.331-0.651,0.631-0.651c0.661,0,1.643,0.852,2.275,0.892c-2.195,4.98-2.976,11.083-7.646,14.551
			c-11.645,6.564-27.969-3.447-35.515-14.3c-0.982-1.363-2.175-2.545-3.658-3.297c-5.512,15.893,23.79,38.19,40.215,28.029
			c4.149-2.175,6.373-6.504,8.859-10.262c0.721,3.868-2.175,7.195-4.259,10.151c-15.783,15.402-47.119,1.082-50.045-19.852
			c-0.19-27.979,6.043-28.029,16.094-49.123c-0.832-1.253-1.082-3.056-2.485-3.738c-3.387-0.421-6.434,1.573-9.53,2.635
			c-29.823,14.11-46.618,57.611-56.559,82.083c-9.911-30.244-37.8-81.932-69.015-84.899c-3.407,3.347-1.092,7.997,1.142,11.274
			c46.137,67.833-42.6,84.338-41.698,51.268c2.074,2.996,3.547,6.654,6.824,8.608c17.828,12.757,43.852-5.572,42.91-25.023
			c-2.856-0.18-4.449,2.415-6.123,4.289c-7.486,10.392-23.499,18.91-35.495,10.773c-2.405-2.666-3.377-6.213-4.129-9.63
			c-0.832,0.01-2.495,0.05-3.327,0.07c0.671-1.994,1.633-3.908,3.287-5.261c1.684,2.515,0.812,6.053,3.187,8.217
			c1.864,1.944,3.798,4.109,6.414,5.021c26.456,2.605,44.223-31.767,21.776-49.805c-12.206-3.517-21.064,9.42-29.743,14.06
			c-13.589,7.436-35.154,7.105-39.493,2.285c2.495-2.605,6.003-3.778,8.738-6.053c6.083-5.141,11.304-22.808,19.661-30.234
			c2.916-2.415,6.544-3.698,9.48-6.073c-9.219-12.607-23.59-6.243-31.366,2.385c-15.543,14.47-13.118,23.54-37.048,34.954
			c-10.582,4.389-32.158,5.582-41.197-1.092c2.455-2.615,5.181-4.95,8.257-6.794c16.505-13.939,25.945-34.062,41.127-49.224
			c1.533-1.092,1.002-3.147,1.273-4.73c-13.398-4.71-15.763-3.006-24.081,1.263c-34.693,20.293-36.056,30.524-71.34,28.45
			c-11.845-1.152-22.968-7.175-30.504-16.354c12.326-3.107,11.604,3.507,52.009-26.546c4.73-2.996-6.674-6.243-11.845-8.097
			c-5.592-1.673-10.813-4.69-16.735-5.071c-7.045-1.543-14.34,0.21-21.355-1.493c-57.691,1.874-60.327-49.113-64.766-67.091
			c-0.491-1.363,0.521-2.535,1.022-3.688c11.985,16.565,27.468,25.784,36.858,28.029c0.09-6.243-3.948-11.364-5.922-17.016
			c-10.572-29.983-4.98-21.265-16.615-33.36c-31.025-35.825-21.175-47.57,1.533-94.88c-1.884,14.871-22.277,35.795-13.569,64.506
			c3.888,9.229,10.853,16.655,16.415,24.872c1.032-0.661,2.064-1.313,3.107-1.944c3.698,16.415,0.441,11.033,4.74,15.663
			c0.521-0.952,14.02-33.781,16.425-46.828c2.706-17.597-11.554-45.205-20.343-60.477c-3.658-6.343-6.363-10.562-6.504-11.033
			c4.379,3.157,29.432,34.954,32.919,57.912c0.03,29.031-0.661,27.107-15.432,59.766c-2.175,4.479-4.88,8.879-6.033,13.749
			c7.656,18.86,18.679,37.178,35.244,49.474c0.591-0.331,1.794-0.992,2.395-1.333c-10.372-52.601,1.623-46.869,5.652-79.658
			c0.07-1.563,0.611-3.016,1.483-4.289c1.373,19.441-7.225,38.16-5.482,57.661c4.089-1.824,4.329-15.372,11.484-21.545
			c0.591,6.323-8.398,31.476-0.02,46.107c3.608-5.892,9.189-31.366,9.62-38.431c2.495-8.498-5.922-25.744-7.897-32.999
			c3.277,2.736,5.371,6.544,7.756,10.031c19.521,29.081-8.368,54.896,1.854,80.73c4.55,3.918,22.247,11.825,27.618,9.54
			c-2.295-6.283-6.584-11.775-7.746-18.459c-1.012-4.089-0.792-8.318-1.714-12.386c1.172-5.762,2.676-33.21,4.099-40.135
			c33.09,36.026,16.585,57.291,39.132,77.804c6.323,6.423,26.556,9.68,29.943,7.937c-0.471-3.237-2.876-5.602-4.53-8.257
			c-9.44-14.18-8.027-26.115-11.103-50.466c-0.631-3.076-1.443-6.123-1.503-9.259c6.484,2.215,22.507,16.635,27.468,21.776
			c12.156,12.637,16.565,30.103,25.213,44.945c3.357,5.732,8.037,10.492,12.005,15.793c3.998,5.391,13.739,9.36,17.677,9.169
			c0.431-5.983-3.347-11.093-3.998-16.906c0,0-1.213-43.902-1.213-43.912c6.023,2.395,10.713,7.045,15.863,10.823
			c11.825,11.434,16.665,15.783,17.056,37.068c1.583,6.073-0.411,23.469,4.349,32.268c8.829,1.142,42.028-26.476,52.28-41.116
			c11.234-14.541,16.274-31.597,20.182-38.03c10.652,20.082,10.693,41.277,63.063,75.699c2.786,1.463,5.792,4.169,9.149,3.116
			c11.464-15.803-13.258-53.352,37.629-79.778c0.321,3.277,0.11,6.584-0.611,9.811c-0.711,16.224,2.215,33.51-5.421,48.562
			c-0.942,1.443-0.481,2.926,0.481,4.259c6.754-1.924,13.579-5.061,18.098-10.632c5.381-7.095,12.326-13.098,16.114-21.305
			c4.88-9.56,6.945-20.433,12.957-29.412c9.229-15.633,34.192-32.088,35.675-32.779c-1.052,5.692-1.563,11.454-2.465,17.166
			c-0.06,41.778-13.619,41.938-15.322,52.43c7.285,0.621,14.31-1.654,21.275-3.467c27.758-7.015,16.715-50.837,48.161-83.015
			c2.976,9.49,3.046,44.784,2.756,53.202c-1.864,6.153-6.784,11.504-6.764,18.228c5.141,0.521,21.936-6.223,25.073-8.558
			c9.269-10.763-2.235-39.964-4.249-54.334c-3.407-11.685,6.584-28.239,15.422-39.102c-5.221,18.218-14.42,18.649,0.411,72.663
			c10.272-5.732,0.461-44.033,0.411-45.887c6.023,2.756,8.047,17.086,11.123,21.826c0.341-0.12,1.032-0.371,1.383-0.501
			c1.172-20.854-9.099-40.846-5.522-56.82c1.523,4.91,1.613,10.121,2.786,15.112c14.861,65.368,4.459,46.368,4.459,68.905
			c9.34,0.481,39.132-43.742,36.627-53.342c-10.482-17.116-23.149-42.018-21.485-62.01c3.217-22.537,16.465-44.554,25.664-55.266
			c-0.902,2.335-1.884,4.65-2.886,6.935c-3.026,6.885-6.383,13.619-9.3,20.543c-14.601,30.645-0.281,50.496,4.84,67.071
			c1.784,4.289,2.325,9.29,5.652,12.787c2.014-3.588,2.906-7.616,3.948-11.544c5.251-1.764,8.017-6.875,11.174-11.013
			c11.194-15.984,13.017-17.978,9.29-36.818c-8.117-25.784-10.642-26.436-14.009-41.307c22.367,46.849,27.919,56.208,10.201,81.702
			c-6.023,9.079-16.936,18.078-19.271,24.872c-1.613,12.436-7.786,23.55-11.344,35.415c7.476,1.112,23.73-11.725,28.66-17.116
			C924.546,1359.401,926.299,1355.563,929.296,1352.737z M924.516,1372.529c-3.267,0.641-37.459,21.465-38.611,22.197
			c-1.343,0.611-2.024,1.834-2.135,3.297c8.698-0.922,16.465-5.161,24.071-9.149c-8.909,15.653-45.616,14.731-47.49,28.31
			C896.747,1419.708,917.942,1393.683,924.516,1372.529z M784.671,1456.515c33.611,28.049,66.33,20.152,71.521,13.158
			c-24.692-9.58-44.444-29.612-62.862-28.079c0.19,0.671,0.581,2.014,0.772,2.686c4.76,2.656,24.041,11.033,27.037,19.311
			c0,0-24.993-9.069-37.669-10.422C783.238,1454.531,783.639,1455.643,784.671,1456.515z M810.776,1416.281
			c7.546-7.416,4.199-41.187,2.756-46.989c-1.243,0.281-2.796,0.321-3.187,1.814c-5.692,12.877-12.356,43.261-11.965,48.863
			c7.626-5.912,6.604-16.645,12.376-26.676C813.482,1399.646,809.193,1410.799,810.776,1416.281z M721.288,1471.437
			c0.241,1.122,22.547,41.648,53.412,39.704c-0.742-3.688-3.748-6.093-5.892-8.939c-13.308-16.595-26.345-43.922-41.808-42.159
			c8.277,6.624,24.832,24.752,23.78,34.112C741.501,1491.178,730.838,1474.593,721.288,1471.437z M741.37,1437.465
			c16.795-19.311,14.06-35.124,17.066-56.82c-14.28,8.047-34.302,51.488-30.925,54.244c8.428-4.289,12.085-20.172,17.507-22.267
			c-0.611,4.84-1.102,9.75-2.776,14.36c-0.932,3.547-3.187,6.724-3.247,10.462C739.597,1437.455,740.779,1437.465,741.37,1437.465z
			 M675.872,1424.167c3.638,0.311,4.149-3.497,3.738-6.263c-4.179,1.072-7.776,5.441-7.616,9.781
			C674.249,1427.845,674.951,1425.771,675.872,1424.167z M679.56,1438.848c0.331-2.315,0.2-5.031-2.195-6.173
			c-1.122,3.407-2.195,6.915-1.924,10.552C676.804,1441.754,678.508,1440.582,679.56,1438.848z M678.929,1428.967
			c-0.16-1.363-0.331-2.706-0.541-4.018c-1.623,0.932-2.445,2.375-2.185,4.279C676.885,1429.158,678.247,1429.027,678.929,1428.967z
			 M672.375,1428.456c-0.551-0.04-1.654-0.12-2.205-0.17c-0.14,1.974-1.293,3.517-2.325,5.131c-0.241,1.654,0.15,3.317,0.762,4.88
			C671.082,1435.371,669.469,1431.142,672.375,1428.456z M632.221,1491.729c8.167-7.025,0.251-1.583-31.977-37.128
			c-18.699-24.341-16.425-29.602-22.036-38.511c-4.369,6.063-5.502,13.689-9.54,19.922c-15.082,27.498-42.59,45.997-48.442,52.14
			c6.013,5.341,12.987,9.53,18.739,15.182c27.728,22.327,34.022,45.295,40.555,54.394
			C584.831,1552.698,591.926,1518.596,632.221,1491.729z M488.418,1436.593c0.04-0.581,0.15-1.724,0.2-2.295
			c-0.681-0.06-2.044-0.2-2.736-0.261c0.21,0.621,0.611,1.864,0.812,2.485C487.125,1436.543,487.987,1436.573,488.418,1436.593z
			 M483.367,1431.463c1.303,0.22,2.605,0.441,3.928,0.621c-0.762-1.764-2.135-3.177-2.816-4.95
			c-1.162-4.66-5.171-7.706-8.538-10.803c-0.711,5.993,1.122,11.805,0.812,17.777c0.371,3.106,0.661,6.413,2.595,9.029
			C482.145,1439.85,482.385,1435.451,483.367,1431.463z M414.031,1414.938c11.324,21.084,13.248,19.19,15.803,19.641
			c-7.406-29.352-26.476-50.135-31.055-50.166c-0.1,19.2,2.285,43.682,18.749,53.933c-0.752-3.918-6.834-18.95-6.173-25.634
			C412.418,1413.184,413.601,1413.715,414.031,1414.938z M394.901,1509.256c21.024-6.804,39.092-36.186,39.343-37.789
			c-7.506,2.756-22.848,22.387-29.602,23.249c-0.05-1.253-0.01-2.485,0.1-3.708c6.313-15.152,20.513-27.378,23.63-31.065
			c-18.82,3.207-25.444,26.195-39.433,42.209c-2.636,2.525-4.97,5.341-7.225,8.207
			C385.952,1512.403,390.572,1509.787,394.901,1509.256z M363.204,1443.678c-0.962-0.782-1.934-1.533-2.916-2.265
			c-29.933,7.797-34.523,16.906-50.296,24.021c-3.267,1.794-7.155,2.205-10.232,4.319c0.01,0.411,0.03,1.223,0.04,1.633
			c34.643,15.943,72.823-11.965,73.244-18.92c-13.037,2.796-25.925,6.574-38.14,11.955
			C337.35,1454.812,359.386,1445.582,363.204,1443.678z M357.583,1420.169c0.671-5.371-7.376-48.632-15.543-52.761
			c-1.283,6.784-2.185,13.689-1.944,20.623c0.331,3.788-1.653,7.426-0.641,11.234c1.012,4.66,1.032,10.422,4.76,13.839
			c0.261-1.563,1.112-3.117,0.661-4.7c-1.162-4.9-0.461-9.981-0.571-14.952C348.453,1394.365,350.588,1417.253,357.583,1420.169z
			 M232.65,1373.02c-4.54,2.395,20.934,48.232,60.648,44.203c-0.822-13.949-36.056-12.486-44.925-28.32
			c4.269,2.155,25.203,13.949,25.464,7.025c-9.33-7.466-21.054-10.803-30.965-17.286
			C239.544,1376.647,236.428,1374.102,232.65,1373.02z"/>
		<path d="M793.73,1148.938c-24.141-8.237,18.098-60.517,48.923-57.631c-1.002,3.868-4.129,6.594-6.343,9.801
			C811.528,1131.291,803.822,1150.141,793.73,1148.938z M836.811,1093.772c-17.186-0.932-39.704,22.838-45.586,39.984
			c0,2.986-1.263,6.915,1.583,9.029c6.584,8.237,18.339-9.57,21.986-14.17C823.112,1116.219,836.009,1099.464,836.811,1093.772z"/>
		<path d="M823.573,1085.555c-0.331,2.125-2.616,2.626-4.199,3.537c-9.43,4.479-18.629,9.7-26.275,16.865
			c-14.891,13.128-24.612,51.248-46.478,48.823c-17.186-5.712,2.686-61.9,64.325-68.614
			C815.166,1086.026,819.334,1084.593,823.573,1085.555z M790.183,1103.041c2.515-3.578,6.434-6.123,7.877-10.422
			c-35.274,5.722-66.65,55.106-44.834,59.054C770.431,1143.436,777.196,1117.883,790.183,1103.041z"/>
		<path d="M666.904,1057.716c12.847-5.091,19.772,7.856,19.441,15.122c0.671,14.701-30.845,32.839-53.543,17.587
			c-10.552-6.043-26.375-21.014-36.226-40.786c6.293,6.834,25.424,19.651,33.691,18.83c5.101-0.2,10.252,0.301,15.322-0.24
			C652.754,1064.861,659.678,1060.983,666.904,1057.716z M650.449,1087.739c25.163,0,33.26-13.198,29.121-22.808
			c-7.897-12.837-22.167,1.664-36.036,7.596c-4.109,0.26-8.227,0.04-12.336,0.13c-7.115,0.24-17.186-7.125-16.725-2.956
			C615.756,1073.86,634.616,1089.072,650.449,1087.739z"/>
		<path d="M660.59,927.352c20.674,34.002,18.118,46.007,19.01,66.73c-1.383,17.427-4.229,31.747-19.601,40.154
			c-13.979,6.193-30.995,3.457-43.381-8.237c-33.36-30.093-26.846-81.231-28.119-91.523c-0.451-3.698-0.902-62.241,9.801-111.625
			c1.112-4.519,1.654-9.29,4.089-13.338c5.291,7.355,17.968,43.842,29.221,67.793C639.476,894.964,651.02,910.616,660.59,927.352z"
			/>
		<path d="M594.832,1470.475c6.163,6.373,13.559,11.324,20.323,16.996c-31.506,19.611-25.163,42.55-37.81,49.314
			c-4.499-3.417-5.441-9.239-7.987-13.949c-11.023-27.458-23.018-30.554-28.289-35.535c6.033-5.271,12.967-9.49,18.689-15.142
			c2.455-2.415,4.65-5.271,7.917-6.624c-16.024,21.796-24.562,17.978-14.641,26.536c11.334,7.786,19.401,19.792,23.51,32.839
			c0.611-0.19,1.834-0.591,2.445-0.782c3.578-5.822,5.872-12.406,9.911-17.978c8.879-12.577,16.465-14.03,19.15-20.062
			c-3.237-3.718-14.851-11.925-20.233-21.816C590.653,1465.685,592.567,1468.33,594.832,1470.475z"/>
		<path d="M606.537,554.617c17.878,29.893,7.215,71.971-2.495,101.604c-4.88,14.901-9.52,26.656-10.171,32.128
			c-0.862,2.806-2.826,5.111-3.978,7.806c-4.991,11.334-7.706,23.59-13.498,34.593c-0.621,1.353-0.992,2.786-1.493,4.189
			c-5-46.197-21.776-72.733-34.062-98.487c-6.003-12.566-10.943-24.963-12.917-39.373c-0.16-9.48-0.732-19.321,2.896-28.299
			c3.578-9.47,9.139-18.739,17.818-24.311c4.83-3.477,10.502-5.782,16.344-6.784c3.457-0.03,6.674-0.16,9.71-0.19
			C587.306,537.321,596.726,538.654,606.537,554.617z M609.162,592.407c2.104-77.643-67.141-54.906-74.527-20.914
			c-6.584,24.772,16.725,77.643,22.347,80.76c0.571-9.44-0.641-36.146,2.996-48.512c5.021,13.298,5.331,55.657,9.911,60.327
			c2.716-6.724,2.114-57.541,3.287-78.215c0.371-0.371,1.092-1.122,1.443-1.493c0,0.03,5.131,73.344,5.141,73.374
			c-0.381,6.253,0.922,12.336,1.032,18.569c0.571,0.18,1.724,0.531,2.305,0.722c4.239-7.245,1.974-11.294,2.696-32.739
			c1.874-8.528-0.391-17.387,1.533-25.914c-0.21-4.62,0.591-9.149,1.213-13.689c2.325,3.197,2.706,28.58,3.447,31.607
			c1.724,7.005-2.976,33.01,12.206,6.003C609.212,628.072,609.122,605.083,609.162,592.407z"/>
		<path d="M554.116,809.814c10.282,29.352,18.699,125.624,13.348,147.049c-3.748,86.081-74.457,99.75-87.654,58.002
			c-16.314-45.897,17.878-91.112,31.737-113.559c18.89-30.204,33.731-78.676,41.287-91.422
			C553.144,809.864,553.786,809.834,554.116,809.814z"/>
		<path d="M545.899,1060.582c4.91-3.167,9.009-7.335,13.498-11.013c-16.575,34.974-53.352,62.842-83.586,35.505
			c-10.272-8.157-5.642-24.762,2.044-28.219C504.592,1055.121,507.258,1084.643,545.899,1060.582z M540.748,1070.102
			c-8.608-0.792-16.966,5.782-25.494,2.445c-28.219-14.02-26.967-12.566-35.785-12.476c-10.332,8.318-1.563,25.764,18.188,27.668
			c6.454-0.281,13.168,0.912,19.351-1.503C526.117,1083.22,535.337,1078.279,540.748,1070.102z"/>
		<path d="M523.341,636.93c11.584,28.3,20.523,72.352,20.433,79.848c-2.766-5.001-3.337-10.823-5.512-16.064
			c-16.635-43.131-92.294-128.1-150.376-146.458c-48.602-16.475-105.332-5.251-153.834,22.457
			c-28.43,16.344-31.767,25.494-38.381,24.762c7.245-28.65,51.047-68.885,99.91-87.664c12.446-4.79,25.233-8.177,37.82-9.63
			c0.962,0.01,24.121-2.255,36.457-0.08C421.978,511.747,495.763,565.921,523.341,636.93z M491.655,622.46
			c21.776,23.7,25.133,32.418,29.211,32.809c-2.766-24.291-70.609-105.041-152.321-123.039
			c-75.519-15.693-134.102,29.893-134.263,34.182c23.119-4.72,85.54-44.844,160.167-17.637
			C448.694,570.35,490.933,621.488,491.655,622.46z M504.602,618.201c1.343,1.754,2.636,3.748,4.9,4.409
			c-5.842-19-56.258-83.396-113.158-103.849c-57.01-24.111-130.605,9.65-139.003,23.028c0.491-0.03,1.453-0.09,1.934-0.12
			c7.436-2.485,14.46-6.083,22.006-8.277c25.734-9.219,40.134-7.255,45.265-7.576c4.69-0.962,9.56-1.032,14.31-0.451
			C346.469,526.658,416.206,517.649,504.602,618.201z"/>
		<path d="M428.101,623.612c62.471,29.342,72.182,104.851,67.111,124.562c1.423,37.068-23.52,100.481-83.957,124.953
			c-39.814,17.106-79.457,15.633-83.646,16.715c-6.173-1.513-115.784,3.788-153.553-99.57
			c-25.173-76.701,13.719-157.361,103.428-185.581c24.922-8.428,48.642-8.408,50.556-8.909c4.339-0.641,8.778-0.361,13.068,0.471
			C369.788,596.165,402.487,610.936,428.101,623.612z M458.736,699.502c2.585-10.081-6.233-24.101-22.157-25.664
			c-3.628-0.231-7.215-1.623-10.853-1.062c-3.247,3.107-3.688,7.907-6.243,11.484c-2.796,5.782-7.596,11.113-7.406,17.888
			c8.809-1.152,16.214-6.464,23.95-10.402c-2.926,9.71-14.11,13.318-16.565,17.517c3.267,0.852,6.614,1.263,10.001,1.162
			c5.672,0.661,11.384,2.084,16.314,5.041c1.433,0.571,2.846,1.904,4.479,1.613C455.328,712.7,457.242,705.795,458.736,699.502z
			 M423,765.02c20.673-0.1,32.639-20.754,26.937-34.412c-9.971-22.006-41.317-10.943-62.522-10.051
			c-3.568,1.463-15.823,10.863-18.118,14.03c-1.102,6.043,11.534,1.774,40.134,4.52c-7.987,8.358-21.916,6.173-41.066,7.396
			C352.512,751.391,404.792,769.149,423,765.02z M446.65,811.257c11.214-1.583,26.786-24.652,1.142-46.919
			c-4.309-3.267-8.598,1.704-12.797,2.756c-4.279,1.403-10.682,4.98-8.127,10.352c5.131,3.918,11.614,5.461,16.845,9.229
			c-5.291,4.259-11.524-0.661-17.256-1.052c-0.251,2.495,0.291,5.001,1.573,7.175c5.602,9.39,5.902,16.775,9.4,17.306
			C440.447,810.756,443.554,812.59,446.65,811.257z M416.867,827.712c31.657-11.294-0.451-45.887-10.933-55.056
			c-2.435-1.463-5.201-2.235-7.927-2.896c-28.32-6.383-28.63-11.123-34.412-9.64c-1.152,7.135,20.453,23.86,26.245,36.968
			c-10.813-6.053-23.62-20.253-30.624-23.359c-0.822,0.912-1.934,1.784-1.603,3.197
			C360.128,808.622,395.061,834.677,416.867,827.712z M357.683,848.867c7.806,28.53,59.555,16.976,44.925-13.428
			c-3.257-2.615-7.506-3.297-11.314-4.76c-6.203-2.084-11.324-6.424-17.687-8.157c-3.006,6.925,4.369,14.4,7.776,26.345
			c-0.581-0.251-1.734-0.752-2.325-0.992c-13.027-15.563-11.264-21.776-17.497-19.872
			C360.158,834.917,357.352,841.721,357.683,848.867z M418.05,670.291c-3.437-16.565-25.674-26.766-56.238,6.333
			c-5.812,6.854-21.545,31.907-13.559,35.425c16.645,1.493,31.366-26.175,38.15-27.879c-3.357,17.306-25.644,33.621-26.586,35.084
			c-0.341,3.107,1.944,5.522,4.239,7.255C383.307,717.219,414.813,693.449,418.05,670.291z M391.163,648.345
			c5.852-2.074,7.005-26.666-14.24-34.032c-10.753-3.938-25.864-0.16-31.807,10.051c-2.004,3.237-0.12,6.784,1.132,9.891
			c4.219,9.65,3.327,25.043,8.839,21.245c4.429-4.389,7.285-10.161,11.945-14.33c-6.654,19.18-12.436,24.973-7.837,28.52
			C367.263,663.587,370.991,656.772,391.163,648.345z M354.095,755.44c3.157-6.143,3.066-13.218,2.565-19.902
			c-2.766-12.226-7.426-15.212-20.373-17.537c-39.854-3.257-34.883,51.599-4.92,51.919
			C340.567,768.928,349.766,763.848,354.095,755.44z M356.741,827.772c0.311-12.025,1.102-43.01-9.66-49.093
			c-2.696-2.345-6.403-1.002-9.41-0.11c-0.23,2.896,0.341,28.961-4.239,39.122c-5.782-9.67-3.127-34.352-4.991-41.928
			c-21.155,1.313-27.648,45.997-21.305,61.008C312.778,855.561,350.197,872.115,356.741,827.772z M337.981,705.445
			c11.735-28.57,18.379-85.71-15.112-79.377c-12.907,4.479-21.124,24.822-20.553,38.401c-0.401,14.02,4.309,27.458,7.716,40.866
			c0.651,4.67,7.776,5.612,10.682,3.026c0.2-4.72-0.661-42.65,6.624-47.079C330.616,703.891,323.25,705.314,337.981,705.445z
			 M311.415,774.831c0.16-2.094,0.942-5.141-1.483-6.193c-13.939-4.099-32.077,26.035-41.147,30.925
			c3.157-12.887,22.578-25.714,25.073-35.254c-5.963-1.203-11.514,1.874-17.236,2.976c-5.682,1.092-10.252,4.79-14.801,8.127
			c-53.282,37.309-20.213,67.302,8.708,51.949c13.559-6.744,28.139-21.395,29.412-23.369c3.006-3.547,3.287-8.408,4.82-12.627
			C306.435,785.643,309.231,780.352,311.415,774.831z M285.391,866.383c10.292,0.17,24.612-10.322,23.63-12.426
			c-1.884-5.031-4.87-9.61-6.323-14.811c-3.367-9.33-3.327-8.077-8.237-7.977c-5.101,3.578-7.466,9.64-11.504,14.2
			c-0.301-6.424,3.998-12.075,3.507-18.549c-1.433,0.22-3.066-0.17-4.349,0.671c-5.562,3.768-12.216,5.421-17.908,8.989
			C258.695,838.555,258.163,868.358,285.391,866.383z M307.347,711.377c0.611-8.548-23.72-49.855-57.571-53.853
			c-13.739-0.431-14.09,10.191-11.594,23.65c5.031,23.109,28.44,30.143,47.219,41.778c3.357,1.894,6.434,4.83,10.452,5.071
			c-0.301-8.418-21.946-21.064-26.426-37.088c6.634,5.241,20.092,21.545,28.49,23.59
			C301.234,714.865,305.613,714.784,307.347,711.377z M297.366,652.263c2.856-12.947,11.153-19.782,12.747-25.203
			c-18.449-27.147-59.455-12.206-50.356,21.666c1.573,2.395,4.389,3.437,6.784,4.83c15.002,8.768,14.851,7.566,18.639,6.955
			c-0.09-7.706-4.319-14.49-5.652-21.946c6.223,6.023,8.939,14.681,14.871,20.934C296.063,657.404,296.825,654.828,297.366,652.263z
			 M294.851,756.512c1.583-1.122,4.69-3.157,2.756-5.231c-10.031-4.249-31.877,2.135-44.083-4.94
			c-1.934-1.082-4.379-1.824-5.181-4.109c6.193,0.902-0.19,1.092,35.014,0.842c2.545-0.421,5.612-0.501,7.215-2.836
			c0.24-5.642-24.762-18.279-26.376-18.088c-6.413,0.381-43.051-7.526-53.743,7.786
			C193.848,757.384,249.425,780.583,294.851,756.512z M240.326,706.868c1.603,0.711,3.117-0.351,4.56-0.922
			c-2.365-7.756-6.564-8.408-11.404-22.167c-1.373-3.848-1.613-7.977-2.926-11.845c-2.425,0.06-13.518-2.004-23.89-0.762
			c-9.39,2.535-20.413,21.736-3.778,40.265c7.115,7.536,12.436,10.502,30.173,3.016c-0.561-5.802-6.915-7.536-10.412-11.254
			c-3.287-3.557-7.365-6.504-9.821-10.743C221.456,698.199,230.375,703.731,240.326,706.868z M226.707,805.134
			c3.337-3.377,10.983-15.893,9.059-21.004c-4.86-2.545-11.043-0.451-16.034-2.886c5.642-3.878,14.02-2.265,18.439-8.067
			c-2.205-4.079-6.424-6.273-10.703-7.536c-6.624-2.064-12.075-6.494-17.978-9.971C181.622,771.233,187.344,807.63,226.707,805.134z
			"/>
		<path d="M340.366,1085.865c67.783,4.419,89.669,67.522,66.089,68.975c-14.761-2.806-21.175-15.292-28.65-28.43
			c-16.044-30.885-35.124-31.356-46.518-41.046C334.324,1085.054,337.39,1085.174,340.366,1085.865z M407.969,1150.291
			c1.674-1.553,2.936-3.908,2.485-6.233c-7.255-35.134-45.606-51.248-52.45-50.406c2.906,3.998,6.103,7.766,9.61,11.254
			C380.421,1121.831,389.189,1155.101,407.969,1150.291z"/>
		<path d="M359.326,1143.978c3.748,0.802,6.925-3.157,5.852-6.694c-2.696-11.163-9.741-20.633-16.946-29.312
			c-8.869-8.007-22.618-13.629-28.219-13.739c0.09,6.283,5.892,10.472,11.534,21.024c-6.945-7.626-13.138-15.943-19.341-24.171
			c33.541-2.585,74.046,50.065,49.063,57.922c-6.093-1.002-10.502-5.902-13.629-10.883
			C351.47,1140.16,354.596,1144.318,359.326,1143.978z"/>
	</g>
</g>
</svg>
