<?xml version="1.0" encoding="utf-8"?>

<!DOCTYPE svg PUBLIC "-//W3C//DTD SVG 1.1//EN" "http://www.w3.org/Graphics/SVG/1.1/DTD/svg11.dtd">
<svg version="1.1" id="Layer_1" xmlns="http://www.w3.org/2000/svg" xmlns:xlink="http://www.w3.org/1999/xlink" x="0px" y="0px"
	 viewBox="0 0 1550 1670.036" enable-background="new 0 0 1550 1670.036" xml:space="preserve">
<g>
	<path d="M496.84,1048.049l-1.943-0.046c-20.09-0.469-36.679-2.033-55.469-5.231l-2.79-0.476l0.815-2.709
		c2.569-8.541,7.53-22.205,11.539-31.782l0.789-1.886l2.004,0.398c6.303,1.252,13.909,2.496,21.417,3.503l3.153,0.423l-1.746,4.471
		c-1.261,3.226-2.172,5.557-3.27,8.603l-4.704-1.695c0.948-2.631,1.753-4.723,2.751-7.28c-5.779-0.822-11.506-1.766-16.561-2.728
		c-3.383,8.27-7.266,18.919-9.744,26.698c16.799,2.742,32.02,4.154,49.993,4.645c7.767-27.302,17.164-50.433,29.392-72.313
		c-42.816-3.372-83.588-15.194-127.797-37.035c-47.438,70.356-71.878,150.038-74.671,243.438
		c138.904,35.305,270.812,12.089,364.721-63.682c-46.061,25.808-101.689,39.711-162.616,39.713
		c-1.089,0.001-2.168-0.004-3.261-0.013l-1.99-0.017l-0.43-1.943c-12.863-58.12-12.035-111.703,2.596-163.044
		c-8.604,17.687-15.629,36.576-21.656,58.118L496.84,1048.049z"/>
	<path d="M620.673,1030.138l-1.896,0.426c-13.957,3.136-25.685,4.912-39.217,5.939l-2.821,0.214l0.135-2.827
		c0.304-6.345,1.378-16.643,2.498-23.952l0.31-2.02l2.041-0.099c4.55-0.22,9.987-0.668,15.311-1.262l3.163-0.354l-0.553,4.302
		c-0.313,2.432-0.54,4.188-0.771,6.463l-4.975-0.506c0.169-1.667,0.335-3.052,0.531-4.602c-3.601,0.36-7.17,0.649-10.409,0.842
		c-0.832,5.864-1.6,13.084-1.98,18.583c11.496-0.984,21.843-2.575,33.753-5.183c0.676-19.538,3.091-36.657,7.541-53.379
		c-29.615,4.806-59.321,3.643-92.944-3.618c-20.293,56.139-23.407,114.731-9.508,178.967c0.407,0.002,0.818,0.002,1.225,0.002
		c97.431,0,181.009-35.991,232.75-99.626c-27.039,23.38-61.606,40.766-101.524,50.376l-1.935,0.466l-0.888-1.782
		c-17.521-35.173-26.239-69.683-26.41-104.81c-1.908,11.146-3.008,22.787-3.37,35.496L620.673,1030.138z"/>
	<path d="M321.781,1030.175l-1.874-0.514c-27.242-7.471-49.337-15.247-73.883-26.001l-2.592-1.136l1.447-2.433
		c6.405-10.769,17.814-27.713,26.54-39.413l1.221-1.639l1.849,0.871c8.21,3.87,18.202,8.17,28.134,12.109l2.958,1.174l-3.179,4.484
		c-2.818,3.974-4.855,6.844-7.394,10.635l-4.154-2.781c2.423-3.619,4.383-6.395,6.972-10.045
		c-8.301-3.348-16.525-6.895-23.611-10.185c-7.807,10.6-17.395,24.808-23.572,34.915c22.72,9.825,43.538,17.126,68.718,24.105
		c20.296-35.428,41.417-64.317,66.155-90.468c-58.086-19.213-110.312-49.51-163.89-95.052
		c-89.501,80.387-150.427,181.539-186.18,309.112c182.361,98.268,375.73,110.023,532.296,32.63
		c-15.906,4.828-32.365,8.692-49.358,11.564c-23.601,3.989-48.112,5.974-73.119,5.975c-42.006,0-85.432-5.596-128.445-16.691
		l-1.927-0.497l0.053-1.99c2.334-87.933,23.604-163.872,64.882-231.413c-20.904,23.602-39.297,49.718-57.087,80.993
		L321.781,1030.175z"/>
	<path d="M381.36,540.288l-1.936,0.016l-0.5-1.87c-6.572-24.563-11.531-51.223-14.342-77.096l-0.311-2.859l3.115,0.098
		c14.159,0.447,24.389,0.769,47.138,3.215l2.039,0.219l0.319,3.544c0.698,7.781,1.159,12.921,3.39,28.95l0.433,3.109l-6.499-0.57
		c-4.253-0.375-4.253-0.375-8.294-0.682l-3.571-0.273l0.382-4.985l3.569,0.272c4.069,0.311,4.069,0.311,8.353,0.687l0.247,0.022
		c-1.835-13.407-2.308-18.501-2.94-25.539c-19.758-2.082-29.745-2.493-42.079-2.888c2.757,24.068,7.365,48.722,13.387,71.617
		c40.634-0.226,74.375,3.365,111.637,11.893c-12.372-59.128-12.322-121.219,0.147-189.597
		c-112.313-36.795-233.59-39.034-360.565-6.657c3.814,204.521,90.195,377.746,237.551,477.001
		c-12.015-11.192-23.484-23.301-34.378-36.33c-41.789-49.98-73.449-112.329-91.558-180.304l-0.507-1.903l1.732-0.938
		c76.098-41.223,153.977-61.193,231.844-59.507C447.291,542.625,417.04,539.994,381.36,540.288z"/>
	<path d="M793.322,839.764c0.195,0.34,0.384,0.679,0.565,1.044l0.972,1.962c0.69-0.288,1.376-0.626,2.063-1.013
		c-0.62-1.227-1.342-2.341-2.139-3.346C794.309,838.898,793.822,839.347,793.322,839.764z"/>
	<path d="M772.432,936.522l-1.954,2.047l-1.791-2.19c-1.467-1.795-3.69-4.849-5.171-7.104l-1.122-1.708l1.451-1.439
		c1.135-1.126,2.449-2.521,3.7-3.929l2.114-2.378l2.052,2.965c0.488,0.707,0.837,1.212,1.312,1.86l-2.801,2.05
		c-0.47,0.513-0.941,1.016-1.401,1.497c0.657,0.946,1.34,1.892,1.974,2.741c1.971-2.192,3.75-4.389,5.59-6.896
		c-3.622-4.414-6.562-8.703-9.04-13.2c-6.287,7.372-13.795,13.531-23.275,19.109c7.824,18.567,20.349,34.019,38.204,47.131
		c20.192-18.409,32.672-40.677,36.052-63.548c-2.625,7.373-6.358,14.67-11.185,21.702l-1.127,1.641l-1.852-0.73
		c-8.171-3.222-15.384-7.189-21.731-11.961l-0.843,1.189C778.582,929.613,775.843,932.948,772.432,936.522z"/>
	<path d="M795.22,875.609l-0.294,0.608l0.174,0.042C795.142,876.045,795.182,875.828,795.22,875.609z"/>
	<path d="M861.608,888.004l0.801,2.748l-2.831,0.424c-4.035,0.604-6.133,0.753-8.561,0.926l-2.155,0.153l-0.539-1.983
		c-0.688-2.529-1.131-3.87-1.486-4.947l-1.076-3.268l3.832-0.307c0.688-0.055,0.688-0.055,1.439-0.133l0.593-0.061l0.352,3.4
		c0.178,0.559,0.379,1.21,0.612,2.014c1.021-0.083,2.071-0.184,3.359-0.342c-0.921-2.809-1.993-5.61-3.17-8.277
		c-5.291,0.918-10.489,1.318-15.979,1.22c3.294,9.297,4.968,19.277,4.985,29.751c18.566,2.643,40.153-0.812,59.878-9.595
		c-5.857-26.672-19.208-48.987-37.283-63.247c5.2,6.039,9.758,13.019,13.469,20.786l0.852,1.782l-1.537,1.241
		c-6.576,5.311-13.832,9.661-21.276,12.858l0.622,1.327C858.509,878.741,860.272,883.419,861.608,888.004z"/>
	<path d="M703.025,996.342l-1.736,0.872c-9.11,4.574-16.914,7.824-26.094,10.867l-2.686,0.891l-0.553-2.775
		c-0.885-4.448-1.918-11.759-2.404-17.005l-0.188-2.035l1.957-0.589c3.074-0.926,6.728-2.163,10.287-3.484l2.983-1.107l0.468,4
		c0.2,1.714,0.343,2.94,0.573,4.54l-4.949,0.713c-0.123-0.854-0.222-1.606-0.317-2.378c-1.935,0.685-3.847,1.327-5.633,1.895
		c0.433,4.035,1.057,8.382,1.615,11.665c7.224-2.507,13.713-5.234,20.967-8.805c-2.733-13.002-3.987-24.768-3.886-36.566
		c-19.19,8.075-39.452,12.258-63.256,13.073c-4.163,41.624,3.673,82.029,23.926,123.379
		c63.914-15.866,113.538-52.107,139.392-101.031c-14.293,18.077-33.46,33.743-56.662,45.84l-1.765,0.92l-1.292-1.514
		c-16.204-18.986-27.46-38.823-34.097-60.092c0.688,5.423,1.654,10.99,2.935,16.831L703.025,996.342z"/>
	<path d="M754.025,958.7l-1.473,1.267c-5.513,4.736-10.356,8.335-16.194,12.032l-2.392,1.515l-1.207-2.561
		c-1.385-2.938-3.365-7.826-4.605-11.372l-0.674-1.928l1.754-1.045c1.959-1.167,4.25-2.64,6.451-4.145l2.627-1.797l1.334,3.535
		c0.431,1.143,0.738,1.959,1.169,3.018l-4.631,1.887c-0.108-0.266-0.208-0.516-0.305-0.76c-0.787,0.514-1.566,1.011-2.32,1.479
		c0.821,2.207,1.747,4.494,2.554,6.376c4.083-2.704,7.752-5.456,11.712-8.78c-3.833-7.975-6.584-15.439-8.505-23.1
		c-11.532,8.465-24.411,14.617-40.078,19.161c4.318,28.827,16.456,54.858,37.042,79.45c38.124-20.367,64.744-50.662,75.697-85.343
		c-6.716,12.41-16.087,24.122-27.88,34.569l-1.489,1.32l-1.62-1.156c-12.08-8.622-21.88-18.251-29.606-29.078
		c0.566,1.226,1.156,2.463,1.777,3.715L754.025,958.7z"/>
	<path d="M820.767,838.249c-0.166-0.144-0.332-0.286-0.498-0.427l0.374,0.556L820.767,838.249z"/>
	<path d="M864.169,786.504l2.794,0.686l-1.068,2.671c-0.946,2.364-1.681,4.199-3.533,7.975l-0.903,1.841l-2.232-0.592
		c-1.384-0.368-2.219-0.589-5.034-1.192l-3.069-0.657l1.61-3.452c0.305-0.652,0.305-0.652,0.618-1.343l0.242-0.536l3.141,1.424
		c0.846,0.188,1.477,0.335,2.024,0.47c0.572-1.212,1.005-2.182,1.388-3.085c-2.908-0.615-5.879-1.094-8.774-1.416
		c-1.997,5.343-4.168,9.893-6.918,14.47c9.465,1.741,18.756,5.224,28.24,10.581c11.978-15.803,19.27-34.835,21.698-56.634
		c-25.514-8.407-50.814-8.157-72.443,0.322c7.55-1.325,15.539-1.66,23.805-0.925l1.962,0.175l0.289,1.948
		c1.273,8.573,1.421,16.845,0.462,24.766l1.439,0.127C854.575,784.538,859.508,785.36,864.169,786.504z"/>
	<path d="M800.675,796.993c-0.21,0.072-0.419,0.145-0.627,0.219l0.677-0.042L800.675,796.993z"/>
	<path d="M871.567,914.994l0.377,1.917c1.271,6.46,2.08,13.399,2.342,20.068l0.112,2.86l-2.85-0.274
		c-5.688-0.547-8.451-1.03-11.949-1.644l-2.156-0.377l-0.044-2.055c-0.08-3.747-0.23-5.75-0.352-7.358l-0.261-3.499l4.003,0.664
		c1.007,0.167,1.007,0.167,2.032,0.313l0.895,0.128l-0.707,4.949l-0.787-0.111c0.043,0.782,0.084,1.682,0.12,2.748
		c2.005,0.342,3.995,0.648,6.8,0.966c-0.306-4.854-0.899-9.793-1.747-14.513c-8.245-0.545-16.09-1.896-24.29-4.193
		c1.582,14.449,0.454,29.338-3.361,44.345c25.004,10.382,56.575,13.112,87.301,7.54c1.407-43.207-11.916-82.212-36.417-108.666
		c7.561,12.17,13.173,26.345,16.345,41.87l0.396,1.935l-1.791,0.833c-12.949,6.017-26.769,9.799-40.16,11.164
		c1.39,0.12,2.786,0.222,4.199,0.293L871.567,914.994z"/>
	<path d="M1021.068,871.029l1.319,1.416c8.779,9.422,17.337,20.165,24.747,31.069l1.617,2.379l-2.687,1.321
		c-6.433,3.165-11.081,5.451-21.83,9.764l-1.902,0.764l-1.526-2.337c-2.146-3.287-3.563-5.458-8.337-12.05l-1.842-2.542l4.41-1.871
		c2.007-0.851,2.007-0.851,3.844-1.654l1.702-0.745l2.003,4.582l-1.7,0.743c-1.315,0.576-1.702,0.745-2.533,1.099
		c2.977,4.154,4.372,6.238,5.921,8.604c7.915-3.217,12.275-5.264,17.093-7.619c-6.504-9.336-13.815-18.484-21.329-26.683
		c-17.175,9.188-32.448,15.378-50.065,20.269c18.798,22.957,33.049,49.947,43.479,82.325
		c57.761-10.259,111.455-37.573,159.646-81.216c-47.127-84.284-120.066-138.988-202.461-152.61c3.264,1.14,6.523,2.343,9.775,3.664
		c30.599,12.426,59.597,32.788,83.859,58.886l1.341,1.442l-1.089,1.642c-21.36,32.206-47.278,57.354-77.26,75.04
		c10.621-3.939,20.928-8.695,32.104-14.759L1021.068,871.029z"/>
	<path d="M950.629,816.647l1.623,1.055c7.697,5.003,15.469,10.958,22.473,17.221l2.145,1.917l-2.197,1.855
		c-3.964,3.35-6.781,5.73-13.468,10.564l-1.662,1.201l-1.898-1.762c-2.033-1.887-3.376-3.134-7.777-6.837l-2.402-2.021l3.527-2.656
		c1.177-0.886,1.177-0.886,2.35-1.791l0.969-0.747l3.053,3.96l-0.968,0.746c-0.419,0.323-0.691,0.533-0.92,0.708
		c2.066,1.767,3.262,2.841,4.456,3.941c4.221-3.094,6.729-5.111,9.296-7.258c-5.736-4.963-11.919-9.678-18.092-13.793
		c-9.844,8.865-18.988,15.549-29.759,21.73c16.439,12.433,30.567,28.266,43.055,48.244c37.498-16.889,69.385-44.587,94.828-82.377
		c-44.529-47.193-100.444-72.028-156.416-70.168c23.029,3.421,46.278,12.441,67.295,26.134l1.649,1.075l-0.659,1.856
		c-8.231,23.172-19.961,43.067-34.965,59.459c4.324-3.292,8.597-6.886,13.039-10.952L950.629,816.647z"/>
	<path d="M892.542,791.326l1.83,0.631c6.198,2.137,12.609,4.919,18.542,8.047l2.544,1.341l-1.683,2.333
		c-2.154,2.987-3.695,5.125-7.498,9.635l-1.321,1.567l-2.124-1.17c-1.777-0.98-2.851-1.572-6.508-3.362l-2.82-1.38l2.47-3.047
		c0.709-0.874,0.709-0.874,1.315-1.642l0.606-0.766l3.92,3.104l-0.497,0.627c1.013,0.512,1.757,0.903,2.447,1.276
		c1.861-2.25,3.089-3.845,4.244-5.412c-4.378-2.181-8.957-4.149-13.457-5.784c-4.963,7.304-9.854,13.196-15.769,18.974
		c12.992,5.692,25.05,13.944,36.709,25.114c22.439-17.844,39.334-41.976,50.252-71.779c-35.794-22.796-74.964-30.757-110.751-23.066
		c13.892-0.29,28.388,2.031,42.908,7.055l1.861,0.645l-0.19,1.96c-1.416,14.559-4.914,27.961-10.411,40.1
		c0.77-1.096,1.539-2.221,2.312-3.388L892.542,791.326z"/>
	<path d="M1098.5,969.261l0.938,1.693c8.764,15.825,16.775,33.374,23.169,50.75l0.993,2.699l-2.979,0.644
		c-9.847,2.128-16.961,3.665-33.08,5.891l-2.031,0.28l-1.021-2.941c-1.815-5.233-3.015-8.691-7.298-19.335l-1.172-2.912l5.377-0.851
		c3.053-0.482,3.053-0.482,5.832-0.954l2.595-0.44l0.836,4.93l-2.593,0.44c-2.533,0.43-2.78,0.472-5.069,0.834
		c3.176,7.969,4.392,11.393,5.892,15.713c13.106-1.851,19.959-3.235,28.021-4.969c-5.899-15.635-13.087-31.33-20.915-45.665
		c-27.394,6.953-50.894,10.25-77.442,10.842c18.337,38.266,28.821,80.619,32.004,129.261
		c83.171,5.896,166.589-13.294,248.009-57.033c-36.862-136.376-122.548-238.8-236.526-283.554
		c7.508,4.485,14.895,9.366,22.148,14.655c37.463,27.32,70.053,64.914,94.247,108.716l0.952,1.725l-1.453,1.329
		c-43.194,39.503-90.812,66.02-141.842,79.06c19.934-1.475,38.976-4.757,60.535-10.324L1098.5,969.261z"/>
	<path d="M866.746,1066.157l-0.566,1.869c-3.751,12.37-8.747,25.156-14.448,36.976l-1.244,2.578l-2.388-1.579
		c-9.387-6.21-13.747-9.609-19.267-13.913l-1.808-1.409l0.925-1.834c3.39-6.72,5.008-10.405,6.307-13.366l1.527-3.475l3.979,3.043
		c1.585,1.215,1.585,1.215,3.324,2.482l1.365,0.995l-2.947,4.039l-1.362-0.993c-1.28-0.934-1.645-1.199-2.346-1.731
		c-1.041,2.333-2.384,5.243-4.462,9.419c4.329,3.368,8.255,6.356,15.126,10.975c4.798-10.255,9.036-21.158,12.361-31.8
		c-15.461-9.411-29.089-20.055-42.513-33.215c-10.811,28.424-27.438,54.9-49.486,78.786c34.729,43.019,89.282,78.433,150.277,97.546
		c49.124-84.538,60.07-177.503,30.515-252.819c6.745,35.252,4.617,74.282-6.963,113.492l-0.56,1.895l-1.972-0.106
		c-37.424-2.01-73.854-12.336-103.482-28.953c8.975,7.457,18.294,14.038,28.43,20.098L866.746,1066.157z"/>
	<path d="M878.659,977.964l-0.098,1.95c-0.462,9.206-1.713,18.911-3.618,28.066l-0.583,2.803l-2.698-0.955
		c-7.567-2.678-11.168-4.276-15.728-6.301l-2.02-0.896l0.454-2.004c1.173-5.174,1.652-7.978,2.037-10.23l0.615-3.589l4.09,1.771
		c1.307,0.566,1.307,0.566,2.697,1.131l1.137,0.461l-1.881,4.633l-1.135-0.46c-0.479-0.194-0.8-0.324-1.063-0.433
		c-0.278,1.522-0.641,3.372-1.173,5.813c3.164,1.396,6.165,2.672,10.918,4.413c1.414-7.414,2.388-15.115,2.848-22.537
		c-11.772-3.715-22.596-8.512-33.649-14.92c-2.653,20.959-9.44,41.582-20.208,61.393c31.033,23.269,74.097,38.071,118.811,40.832
		c18.186-63.267,11.309-125.787-18.129-171.783c8.656,21.614,12.805,46.368,11.683,72.544l-0.085,1.973l-1.939,0.375
		c-11.381,2.196-22.909,3.279-34.218,3.28c-11.947,0-23.649-1.214-34.695-3.592c5.118,2.157,10.328,4.048,15.761,5.696
		L878.659,977.964z"/>
	<path d="M820.34,1182.318l-1.003,1.677c-9.321,15.591-20.475,31.317-32.254,45.479l-1.83,2.201l-1.935-2.11
		c-10.679-11.649-15.467-17.764-21.528-25.504l-1.484-1.895l1.342-1.557c6.925-8.03,10.399-12.524,13.19-16.135l2.495-3.225
		l3.582,4.49c1.764,2.214,1.764,2.214,3.713,4.544l1.533,1.832l-3.836,3.207l-1.531-1.831c-1.835-2.191-1.977-2.361-3.401-4.149
		c-2.419,3.111-5.521,7.017-10.618,12.973c5.153,6.574,9.656,12.229,18.292,21.746c10.523-12.871,20.481-26.948,28.976-40.965
		c-18.472-18.599-33.826-38.292-48.015-61.597c-24.656,35.819-56.871,66.854-95.824,92.31
		c32.885,71.307,95.978,138.978,173.596,186.179c99.664-102.322,146.475-231.046,127.064-347.517
		c-0.876,53.642-17.208,110.187-48.449,163.323l-1.001,1.702l-1.889-0.58c-54.35-16.695-103.816-46.21-139.282-82.582
		c11.587,17,24.171,32.128,38.714,46.607L820.34,1182.318z"/>
	<path d="M717.338,1324.936l-1.378,1.384c-18.013,18.094-38.573,35.75-59.456,51.061l-2.309,1.692l-1.366-2.516
		c-10.608-19.53-15.062-29.502-20.7-42.127l-1.036-2.319l1.679-1.186c12.22-8.629,18.509-13.596,23.563-17.587l3.491-2.754
		l2.823,6.172c1.662,3.639,1.662,3.639,3.537,7.495l1.472,3.03l-4.498,2.184l-1.471-3.027c-1.901-3.911-1.901-3.911-3.587-7.604
		l-0.175-0.382c-4.617,3.639-10.486,8.192-20.593,15.37c5.058,11.32,9.361,20.815,18.522,37.822
		c19.353-14.366,38.35-30.709,55.183-47.474c-19.326-32.291-33.824-65.013-45.411-102.514
		c-46.25,41.152-101.419,72.975-164.08,94.639c20.552,109.341,84.139,224.125,174.814,315.556
		c175.347-108.267,284.553-273.266,293.942-443.322c-3.612,14.996-8.189,30.051-13.747,45.143
		c-22.576,61.301-60.812,120.512-110.573,171.231l-1.383,1.41l-1.691-1.02c-72.242-43.537-132.219-104.688-167.659-170.258
		c10.828,31.649,24.081,60.085,41.077,88.228L717.338,1324.936z"/>
	<path d="M749.907,811.682c-0.135-1.475-0.181-2.849-0.138-4.323l0.082-2.828l2.796,0.429c0.88,0.135,2.244,0.423,3.241,0.685
		l1.976,0.519l-0.001,0.018c0.187-0.965,0.417-1.941,0.69-2.928c-5.536-2.354-11.473-3.272-18.025-2.796
		c-0.336,4.756,0.082,9.279,1.179,13.426l0.755-0.282C744.988,812.658,747.461,812.029,749.907,811.682z"/>
	<path d="M782.651,801.625c1.17-0.823,2.425-1.602,3.689-2.28l2.535-1.36l0.993,2.701c0.329,0.896,0.581,1.583,1.008,3.083
		l0.56,1.973l-0.064,0.033c0.941-0.327,1.914-0.621,2.921-0.882c-0.73-5.897-2.944-11.603-6.601-17.011
		c-4.294,2.042-8.011,4.66-11.063,7.713l0.661,0.546C779.342,797.835,781.122,799.67,782.651,801.625z"/>
	<path d="M753.373,848.14c-0.815-0.177-1.629-0.379-2.411-0.63l-2.727-0.873l1.232-2.584c0.479-1.005,0.764-1.499,1.094-2.071
		l0.361-0.627c-0.228-0.124-0.454-0.252-0.68-0.383c-2.176,2.817-3.832,6.435-4.73,10.339c2.618,0.893,5.237,1.395,7.774,1.529
		C753.168,851.262,753.201,849.681,753.373,848.14z"/>
	<path d="M678.433,755.042l-0.377-1.917c-1.27-6.457-2.08-13.396-2.342-20.068l-0.112-2.86l2.85,0.273
		c5.69,0.547,8.456,1.031,11.957,1.645l2.148,0.376l0.044,2.055c0.08,3.75,0.23,5.753,0.352,7.362l0.261,3.494l-4.045-0.67
		c-0.981-0.164-0.981-0.164-2.038-0.313l-0.847-0.12l0.705-4.95l0.789,0.112c-0.043-0.783-0.084-1.683-0.12-2.749
		c-2.005-0.342-3.996-0.649-6.8-0.965c0.305,4.855,0.899,9.795,1.747,14.513c8.246,0.544,16.091,1.896,24.29,4.193
		c-1.583-14.455-0.455-29.343,3.361-44.345c-24.999-10.38-56.572-13.111-87.301-7.541c-1.406,43.203,11.917,82.208,36.418,108.665
		c-7.561-12.17-13.174-26.344-16.345-41.868l-0.396-1.936l1.791-0.832c12.965-6.024,26.797-9.799,40.202-11.16
		c-1.403-0.121-2.813-0.225-4.24-0.297L678.433,755.042z"/>
	<path d="M451.5,700.775l-0.938-1.694c-8.765-15.827-16.776-33.376-23.169-50.75l-0.993-2.699l2.987-0.646
		c9.844-2.127,16.957-3.664,33.071-5.889l2.031-0.28l1.024,2.95c1.814,5.23,3.013,8.685,7.295,19.326l1.172,2.912l-5.478,0.867
		c-2.988,0.472-2.988,0.472-5.823,0.954l-2.503,0.425l-0.836-4.93l2.501-0.424c2.615-0.444,2.842-0.483,5.161-0.85
		c-3.177-7.97-4.391-11.393-5.892-15.713c-13.108,1.851-19.957,3.235-28.021,4.968c5.898,15.634,13.086,31.329,20.915,45.666
		c27.394-6.954,50.894-10.251,77.443-10.843c-18.337-38.262-28.821-80.616-32.005-129.261
		c-83.167-5.889-166.589,13.294-248.007,57.035C288.308,748.275,373.99,850.698,487.953,895.45
		c-7.504-4.482-14.886-9.361-22.135-14.647c-37.458-27.316-70.05-64.912-94.253-108.722l-0.952-1.724l1.454-1.33
		c43.193-39.503,90.811-66.02,141.843-79.061c-19.934,1.475-38.977,4.757-60.536,10.324L451.5,700.775z"/>
	<path d="M688.392,782.033l-0.801-2.748l2.831-0.424c4.039-0.604,6.139-0.754,8.57-0.927l2.05-0.146l0.634,1.977
		c0.693,2.548,1.138,3.891,1.494,4.971l1.071,3.244l-3.81,0.305c-0.703,0.056-0.703,0.056-1.438,0.132l-0.62,0.064l-0.35-3.398
		c-0.179-0.56-0.379-1.211-0.614-2.016c-1.031,0.083-2.082,0.185-3.359,0.342c0.921,2.808,1.994,5.61,3.17,8.277
		c5.29-0.918,10.484-1.319,15.979-1.22c-3.295-9.299-4.969-19.28-4.986-29.752c-18.562-2.643-40.152,0.811-59.878,9.595
		c5.856,26.669,19.208,48.983,37.282,63.244c-5.199-6.039-9.756-13.018-13.468-20.783l-0.852-1.782l1.537-1.241
		c6.577-5.311,13.834-9.662,21.278-12.859l-0.622-1.327C691.492,791.297,689.728,786.618,688.392,782.033z"/>
	<path d="M767.349,868.411c-1.171,0.823-2.426,1.603-3.688,2.28l-2.535,1.359l-0.993-2.7c-0.328-0.89-0.581-1.578-1.008-3.081
		l-0.561-1.971l0.075-0.039c-0.944,0.329-1.92,0.624-2.931,0.885c0.731,5.897,2.944,11.603,6.601,17.011
		c4.294-2.042,8.011-4.661,11.062-7.713l-0.661-0.546C770.658,872.202,768.878,870.366,767.349,868.411z"/>
	<path d="M796.627,821.896c0.815,0.177,1.629,0.379,2.411,0.63l2.726,0.873l-1.231,2.584c-0.479,1.006-0.765,1.5-1.094,2.073
		l-0.361,0.626c0.228,0.124,0.454,0.251,0.68,0.383c2.176-2.818,3.832-6.435,4.729-10.339c-2.617-0.894-5.237-1.396-7.773-1.53
		C796.832,818.774,796.8,820.355,796.627,821.896z"/>
	<path d="M742.261,845.083c-1.308-0.603-2.616-1.299-3.831-2.051l-2.434-1.507l1.82-2.209c0.972-1.18,1.516-1.744,2.146-2.397
		l1.426-1.48l0.171,0.107c-0.802-0.684-1.58-1.411-2.332-2.181c-4.557,3.385-8.589,8.418-11.391,14.228
		c3.935,2.653,8.08,4.551,12.231,5.681l0.122-0.763C740.6,849.938,741.314,847.434,742.261,845.083z"/>
	<path d="M800.094,858.368c0.134,1.471,0.179,2.842,0.136,4.311l-0.083,2.829l-2.797-0.432c-0.887-0.137-2.249-0.425-3.239-0.685
		l-1.977-0.519l0.001-0.016c-0.187,0.965-0.416,1.939-0.689,2.926c5.535,2.353,11.468,3.274,18.025,2.796
		c0.336-4.756-0.082-9.279-1.178-13.427l-0.756,0.282C805.013,857.378,802.539,858.021,800.094,858.368z"/>
	<path d="M729.234,831.788c0.164,0.143,0.329,0.284,0.495,0.424l-0.372-0.553L729.234,831.788z"/>
	<path d="M657.458,878.71l-1.83-0.631c-6.199-2.138-12.611-4.92-18.542-8.047l-2.544-1.342l1.683-2.333
		c2.083-2.888,3.703-5.133,7.498-9.634l1.321-1.567l2.136,1.176c1.714,0.945,2.846,1.569,6.497,3.356l2.819,1.38l-2.561,3.161
		c-0.647,0.799-0.647,0.799-1.308,1.633l-0.523,0.661l-3.919-3.105l0.497-0.627c-1.012-0.512-1.756-0.903-2.447-1.276
		c-1.861,2.251-3.088,3.845-4.244,5.413c4.376,2.18,8.956,4.148,13.457,5.784c4.961-7.303,9.854-13.196,15.769-18.975
		c-12.991-5.692-25.05-13.943-36.709-25.113c-22.439,17.843-39.334,41.975-50.252,71.778c35.815,22.804,75.004,30.763,110.8,23.055
		c-0.786,0.017-1.569,0.044-2.359,0.044c-13.185,0.001-26.881-2.342-40.599-7.088l-1.862-0.644l0.191-1.961
		c1.416-14.558,4.913-27.959,10.411-40.099c-0.769,1.096-1.538,2.22-2.31,3.387L657.458,878.71z"/>
	<path d="M685.831,883.532l-2.793-0.686l1.068-2.671c0.941-2.353,1.677-4.191,3.533-7.976l0.903-1.841l2.227,0.591
		c1.384,0.368,2.22,0.59,5.039,1.193l3.07,0.656l-1.571,3.367c-0.331,0.709-0.331,0.709-0.62,1.348l-0.279,0.616l-3.139-1.423
		c-0.847-0.188-1.478-0.336-2.026-0.471c-0.573,1.212-1.005,2.183-1.388,3.085c2.908,0.615,5.878,1.095,8.776,1.416
		c1.996-5.343,4.167-9.893,6.917-14.469c-9.465-1.741-18.756-5.225-28.24-10.582c-11.977,15.803-19.27,34.836-21.698,56.635
		c25.552,8.418,50.892,8.155,72.542-0.361c-4.943,0.875-10.065,1.347-15.341,1.347c-2.816,0-5.671-0.127-8.562-0.384l-1.962-0.175
		l-0.289-1.948c-1.273-8.573-1.422-16.845-0.462-24.766l-1.439-0.127C695.422,885.498,690.489,884.676,685.831,883.532z"/>
	<path d="M528.932,799.008l-1.32-1.417c-8.782-9.425-17.339-20.169-24.748-31.069l-1.617-2.379l2.678-1.317
		c6.435-3.166,11.085-5.453,21.838-9.768l1.903-0.763l1.536,2.352c2.143,3.283,3.559,5.452,8.327,12.034l1.842,2.542l-4.438,1.883
		c-1.99,0.844-1.99,0.844-3.843,1.655l-1.673,0.732l-2.003-4.581l1.671-0.731c1.337-0.585,1.723-0.754,2.561-1.111
		c-2.978-4.154-4.371-6.236-5.921-8.604c-7.915,3.216-12.277,5.264-17.093,7.619c6.502,9.333,13.814,18.482,21.329,26.683
		c17.176-9.188,32.449-15.379,50.065-20.269c-18.796-22.955-33.047-49.945-43.478-82.326
		c-57.763,10.261-111.457,37.575-159.648,81.216c47.116,84.248,120.013,138.941,202.356,152.593
		c-3.227-1.129-6.449-2.338-9.664-3.644c-30.594-12.424-59.594-32.787-83.864-58.889l-1.341-1.442l1.089-1.642
		c21.362-32.207,47.281-57.355,77.264-75.041c-10.622,3.939-20.93,8.696-32.108,14.76L528.932,799.008z"/>
	<path d="M749.325,873.043c0.21-0.071,0.419-0.145,0.628-0.219l-0.678,0.043L749.325,873.043z"/>
	<path d="M599.372,853.389l-1.623-1.055c-7.696-5.002-15.467-10.956-22.474-17.221l-2.145-1.917l2.197-1.856
		c3.971-3.354,6.787-5.734,13.469-10.564l1.662-1.201l1.897,1.76c2.032,1.886,3.375,3.133,7.778,6.837l2.402,2.021l-3.469,2.613
		c-1.218,0.917-1.218,0.917-2.355,1.794l-1.022,0.788l-3.052-3.961l1.02-0.787c0.39-0.3,0.648-0.5,0.867-0.667
		c-2.067-1.767-3.262-2.841-4.455-3.94c-4.222,3.093-6.729,5.11-9.297,7.257c5.738,4.964,11.921,9.678,18.093,13.792
		c9.843-8.864,18.987-15.548,29.758-21.73c-16.438-12.431-30.565-28.263-43.055-48.243c-37.497,16.888-69.384,44.586-94.828,82.376
		c44.535,47.192,100.449,72.031,156.416,70.169c-23.025-3.421-46.274-12.44-67.294-26.134l-1.65-1.075l0.659-1.856
		c8.231-23.173,19.961-43.068,34.966-59.46c-4.324,3.292-8.597,6.886-13.038,10.952L599.372,853.389z"/>
	<path d="M683.253,603.879l0.567-1.869c3.753-12.375,8.75-25.161,14.45-36.976l1.244-2.578l2.387,1.58
		c9.377,6.204,13.737,9.602,19.257,13.904l1.818,1.417l-0.926,1.835c-3.378,6.695-4.995,10.375-6.293,13.333l-1.542,3.508
		l-3.975-3.041c-1.587-1.216-1.587-1.216-3.324-2.481l-1.369-0.998l2.947-4.039l1.366,0.996c1.277,0.931,1.642,1.196,2.342,1.729
		c1.042-2.333,2.383-5.243,4.462-9.42c-4.333-3.37-8.257-6.356-15.125-10.974c-4.797,10.252-9.036,21.155-12.362,31.801
		c15.462,9.412,29.092,20.057,42.513,33.214c10.811-28.429,27.44-54.905,49.485-78.787c-34.725-43.016-89.277-78.43-150.277-97.545
		c-49.121,84.534-60.065,177.503-30.51,252.827c-6.747-35.256-4.622-74.288,6.959-113.5l0.559-1.895l1.973,0.106
		c37.423,2.011,73.851,12.336,103.476,28.949c-8.972-7.455-18.29-14.034-28.424-20.093L683.253,603.879z"/>
	<path d="M671.341,692.073l0.098-1.951c0.462-9.206,1.713-18.911,3.617-28.066l0.583-2.803l2.699,0.955
		c7.555,2.674,11.155,4.272,15.712,6.294l2.036,0.904l-0.455,2.004c-1.174,5.181-1.654,7.985-2.039,10.238l-0.614,3.581
		l-4.104-1.777c-1.297-0.563-1.297-0.563-2.7-1.132l-1.118-0.454l1.882-4.632l1.116,0.453c0.489,0.198,0.814,0.33,1.081,0.44
		c0.279-1.522,0.641-3.372,1.174-5.813c-3.168-1.398-6.167-2.674-10.919-4.414c-1.414,7.414-2.387,15.115-2.847,22.537
		c11.773,3.715,22.597,8.512,33.65,14.921c2.653-20.963,9.44-41.586,20.207-61.394c-31.029-23.267-74.093-38.069-118.811-40.831
		c-18.183,63.262-11.305,125.782,18.131,171.783c-8.657-21.615-12.806-46.369-11.685-72.544l0.084-1.974l1.939-0.374
		c23.442-4.525,47.475-4.3,69.002,0.35c-5.147-2.173-10.386-4.077-15.85-5.735L671.341,692.073z"/>
	<path d="M729.66,487.719l1.002-1.676c9.319-15.588,20.473-31.314,32.255-45.48l1.831-2.201l1.934,2.11
		c10.677,11.647,15.467,17.764,21.531,25.508l1.481,1.891l-1.342,1.556c-6.926,8.029-10.398,12.522-13.189,16.133l-2.497,3.227
		l-3.578-4.485c-1.766-2.216-1.766-2.216-3.711-4.541l-1.539-1.84l3.837-3.206l1.537,1.838c1.829,2.185,1.972,2.356,3.395,4.142
		c2.419-3.111,5.52-7.016,10.618-12.973c-5.154-6.575-9.66-12.233-18.292-21.746c-10.527,12.875-20.485,26.952-28.977,40.965
		c18.471,18.598,33.827,38.291,48.016,61.596c24.658-35.826,56.873-66.86,95.823-92.31
		c-32.879-71.301-95.972-138.972-173.596-186.178c-99.659,102.317-146.469,231.047-127.06,347.533
		c0.872-53.649,17.202-110.2,48.445-163.338l1.001-1.703l1.888,0.58c54.352,16.696,103.818,46.209,139.281,82.579
		c-11.587-17-24.171-32.127-38.712-46.604L729.66,487.719z"/>
	<path d="M832.662,345.099l1.378-1.384c18.015-18.094,38.574-35.75,59.455-51.06l2.309-1.692l1.367,2.515
		c10.602,19.518,15.057,29.493,20.696,42.121l1.039,2.326l-1.679,1.186c-12.224,8.63-18.513,13.598-23.567,17.589l-3.487,2.752
		l-2.821-6.167c-1.662-3.642-1.662-3.642-3.535-7.494l-1.475-3.037l4.498-2.183l1.474,3.034c1.898,3.906,1.898,3.906,3.587,7.603
		l0.172,0.376c4.617-3.638,10.486-8.192,20.594-15.37c-5.061-11.325-9.366-20.825-18.522-37.823
		c-19.352,14.366-38.349,30.708-55.183,47.474c19.327,32.295,33.824,65.016,45.41,102.513
		c46.258-41.161,101.427-72.983,164.08-94.638c-20.545-109.331-84.132-224.115-174.813-315.555
		C698.306,146.445,589.1,311.446,579.695,481.511c3.655-15.172,8.296-30.403,13.944-45.671
		c22.611-61.125,60.778-120.154,110.376-170.708l1.383-1.41l1.692,1.02c72.246,43.54,132.222,104.691,167.657,170.253
		c-10.826-31.644-24.078-60.078-41.075-88.223L832.662,345.099z"/>
	<path d="M756.678,830.272c-0.195-0.34-0.384-0.68-0.565-1.045l-0.966-1.953c-0.693,0.288-1.381,0.624-2.065,1.008
		c0.62,1.226,1.341,2.338,2.137,3.342C755.691,831.138,756.178,830.689,756.678,830.272z"/>
	<path d="M807.74,824.954c1.307,0.602,2.615,1.298,3.831,2.051l2.435,1.507l-1.821,2.209c-0.973,1.18-1.517,1.744-2.146,2.397
		l-1.426,1.479l-0.171-0.107c0.802,0.684,1.579,1.411,2.331,2.181c4.557-3.384,8.59-8.417,11.392-14.227
		c-3.935-2.653-8.081-4.552-12.23-5.682l-0.122,0.764C809.4,820.099,808.686,822.603,807.74,824.954z"/>
	<path d="M752.159,820.452l-0.605-2.765l2.818-0.259c0.652-0.061,1.667-0.099,2.425-0.088l0.689,0.009
		c-0.006-0.253-0.008-0.507-0.007-0.764c-3.708-0.496-7.446-0.15-11.334,1.042c0.534,2.726,1.401,5.24,2.552,7.498
		c1.356-0.915,2.725-1.676,4.116-2.287C752.562,822.054,752.339,821.277,752.159,820.452z"/>
	<path d="M776.197,807.957l2.129-1.93l1.617,2.375c0.381,0.56,0.683,1.002,1.255,1.999l0.353,0.614
		c0.215-0.131,0.434-0.26,0.655-0.387c-1.421-3.421-3.625-6.537-6.581-9.298c-2.104,1.803-3.854,3.81-5.235,5.95
		c1.468,0.714,2.82,1.531,4.059,2.442C775.008,809.108,775.59,808.508,776.197,807.957z"/>
	<path d="M797.841,849.586l0.604,2.764l-2.816,0.259c-0.651,0.06-1.672,0.094-2.426,0.088l-0.688-0.009
		c0.006,0.253,0.008,0.508,0.007,0.764c3.707,0.495,7.445,0.15,11.334-1.043c-0.533-2.726-1.401-5.24-2.552-7.497
		c-1.356,0.916-2.725,1.676-4.116,2.287C797.438,847.983,797.661,848.761,797.841,849.586z"/>
	<path d="M754.78,794.424l0.293-0.606l-0.173-0.042C754.859,793.99,754.819,794.206,754.78,794.424z"/>
	<path d="M699.766,837.818l-1.258-1.522l1.191-1.576c3.501-4.633,7.593-8.758,12-12.192l-0.19-0.234
		c-2.134-2.623-4.174-5.575-5.901-8.536l-1.442-2.473l2.645-1.096c2.707-1.122,4.141-1.59,5.802-2.131l1.954-0.637l1.063,1.774
		c0.911,1.627,1.42,2.433,1.87,3.144l1.781,2.819l-3.454,1.163c-0.462,0.155-0.462,0.155-0.953,0.333l-0.408,0.148l-0.697-1.924
		l-0.415,0.262l-0.081-0.127c-0.268-0.422-0.573-0.905-0.974-1.579c-0.27,0.094-0.546,0.192-0.836,0.299
		c0.867,1.334,1.794,2.656,2.742,3.902c3.048-1.314,6.121-2.348,9.401-3.16c-3.521-5.523-6.178-11.686-7.924-18.385
		c-12.766,1.457-26.457,7.309-38.142,16.314c7.217,14.324,17.469,25.653,29.28,32.794
		C704.346,842.965,701.983,840.503,699.766,837.818z"/>
	<path d="M722.406,847.463c1.541-3.618,3.524-7.019,5.82-10.049c-1.81-1.39-3.601-2.974-5.202-4.618l-1.997-2.051l2.301-1.703
		c1.692-1.252,2.61-1.827,3.672-2.493l1.742-1.092l1.45,1.471c0.887,0.943,1.367,1.403,1.792,1.809l1.596,1.527
		c0.418-0.252,0.843-0.498,1.274-0.739c-2.982-2.96-5.572-6.387-7.733-10.236c-8.059,3.155-15.981,9.171-22.201,16.869
		c5.325,6.071,11.446,10.796,17.904,13.999l-1.191-0.88L722.406,847.463z"/>
	<path d="M759.444,886.762c-2.39-3.237-4.309-6.586-5.752-10.026c-2.103,0.862-4.367,1.616-6.595,2.179l-2.788,0.705l-0.311-2.858
		c-0.142-1.302-0.251-2.313-0.321-4.479l-0.066-2.048l2.146-0.503c0.658-0.153,1.097-0.257,2.441-0.641l1.996-0.569
		c-0.011-0.495-0.013-0.989-0.007-1.484c-3.96,1.074-8.177,1.59-12.713,1.558c-1.259,9.012-0.096,18.305,3.466,27.684
		c8.111-1.526,15.367-4.51,21.451-8.683l-1.777,0.751L759.444,886.762z"/>
	<path d="M770.575,815.766l1.207-1.803c-0.603-0.462-1.242-0.896-1.919-1.299c-0.759,1.143-1.364,2.324-1.835,3.521
		c0.662,0.169,1.302,0.369,1.922,0.598C770.151,816.438,770.356,816.094,770.575,815.766z"/>
	<path d="M766.647,847.638c0.009,0.052,0.018,0.104,0.027,0.155c0.382-0.094,0.746-0.215,1.107-0.338
		c-0.005-0.009-0.01-0.019-0.014-0.028c-0.096,0.02-0.192,0.042-0.287,0.059L766.647,847.638z"/>
	<path d="M790.112,835.945c0.04-0.034,0.08-0.067,0.12-0.102c-0.273-0.286-0.561-0.541-0.849-0.794
		c-0.006,0.009-0.011,0.018-0.017,0.027c0.064,0.073,0.129,0.142,0.192,0.217L790.112,835.945z"/>
	<path d="M783.354,822.399c-0.009-0.052-0.019-0.104-0.027-0.157c-0.382,0.094-0.746,0.215-1.108,0.337
		c0.005,0.01,0.01,0.019,0.014,0.029c0.097-0.02,0.194-0.042,0.29-0.059L783.354,822.399z"/>
	<path d="M768.249,821.472c-0.054-0.02-0.108-0.04-0.163-0.059c-0.113,0.38-0.185,0.758-0.26,1.135
		c0.015,0.001,0.029,0.001,0.044,0.002c0.031-0.093,0.059-0.187,0.092-0.279L768.249,821.472z"/>
	<path d="M781.752,848.564c0.054,0.021,0.107,0.04,0.162,0.059c0.115-0.387,0.189-0.77,0.264-1.154
		c-0.014-0.001-0.028-0.002-0.042-0.003c-0.033,0.099-0.063,0.199-0.097,0.296L781.752,848.564z"/>
	<path d="M779.425,854.27l-1.207,1.802c0.602,0.463,1.242,0.896,1.919,1.3c0.759-1.143,1.364-2.324,1.835-3.521
		c-0.662-0.169-1.302-0.368-1.921-0.598C779.849,853.598,779.644,853.943,779.425,854.27z"/>
	<path d="M789.461,821.559l2.168,0.142c0.098-0.751,0.152-1.52,0.163-2.296c-1.366-0.073-2.692-0.003-3.962,0.185
		c0.18,0.641,0.323,1.288,0.433,1.938C788.665,821.529,789.067,821.533,789.461,821.559z"/>
	<path d="M760.538,848.476l-2.167-0.143c-0.097,0.752-0.152,1.521-0.163,2.297c1.367,0.074,2.693,0.005,3.963-0.183
		c-0.181-0.642-0.323-1.289-0.433-1.939C761.334,848.508,760.931,848.503,760.538,848.476z"/>
	<path d="M760.441,834.742l-0.553-0.651c-0.04,0.034-0.08,0.067-0.12,0.102c0.273,0.286,0.56,0.541,0.848,0.794
		c0.006-0.009,0.012-0.018,0.018-0.027C760.569,834.887,760.505,834.818,760.441,834.742z"/>
	<path d="M773.802,862.079l-2.132,1.935l-1.616-2.383c-0.378-0.557-0.69-1.018-1.252-1.996l-0.352-0.613
		c-0.215,0.131-0.434,0.261-0.656,0.388c1.42,3.421,3.625,6.536,6.58,9.298c2.104-1.803,3.854-3.81,5.235-5.95
		c-1.467-0.714-2.82-1.531-4.058-2.442C774.991,860.928,774.41,861.528,773.802,862.079z"/>
	<path d="M765.899,687.877l1.49-1.32l1.62,1.157c12.078,8.621,21.878,18.249,29.604,29.076c-0.566-1.225-1.156-2.461-1.776-3.713
		l-0.862-1.74l1.474-1.266c5.442-4.676,10.437-8.386,16.194-12.031l2.391-1.514l1.207,2.559c1.382,2.929,3.362,7.818,4.605,11.372
		l0.675,1.929l-1.756,1.045c-1.945,1.158-4.236,2.629-6.45,4.143l-2.628,1.797l-1.313-3.484c-0.439-1.168-0.749-1.993-1.188-3.066
		l4.629-1.89c0.108,0.265,0.209,0.516,0.307,0.761c0.788-0.515,1.567-1.012,2.319-1.48c-0.821-2.209-1.747-4.496-2.553-6.375
		c-4.082,2.702-7.751,5.454-11.712,8.78c3.833,7.978,6.584,15.443,8.504,23.1c11.532-8.465,24.41-14.617,40.079-19.161
		c-4.319-28.83-16.457-54.862-37.043-79.45c-38.123,20.367-64.743,50.662-75.696,85.343
		C744.736,710.036,754.106,698.324,765.899,687.877z"/>
	<path d="M813.171,631.737l1.766-0.92l1.292,1.514c16.202,18.982,27.458,38.818,34.095,60.086
		c-0.688-5.42-1.654-10.985-2.934-16.825l-0.416-1.897l1.736-0.872c9.104-4.573,16.909-7.823,26.095-10.868l2.687-0.891l0.552,2.776
		c0.885,4.451,1.918,11.761,2.403,17.004l0.188,2.035l-1.956,0.589c-3.08,0.929-6.734,2.167-10.288,3.485l-2.983,1.107l-0.46-3.934
		c-0.204-1.749-0.348-2.987-0.581-4.606l4.949-0.713c0.123,0.855,0.222,1.606,0.317,2.378c1.934-0.683,3.845-1.326,5.633-1.894
		c-0.403-3.746-1.011-8.132-1.613-11.667c-7.229,2.509-13.718,5.236-20.969,8.806c2.734,13.006,3.988,24.771,3.887,36.567
		c19.19-8.075,39.451-12.258,63.257-13.073c4.163-41.628-3.672-82.034-23.926-123.378
		c-63.914,15.867-113.538,52.109-139.394,101.034C770.8,659.501,789.968,643.835,813.171,631.737z"/>
	<path d="M737.806,901.863l-0.752-1.821c-2.271-5.499-3.772-10.985-4.518-16.427l-0.284,0.045c-3.329,0.525-6.906,0.81-10.346,0.821
		l-2.876,0.01l0.39-2.85c0.248-1.809,0.44-3.211,1.074-6.155l0.431-2.004l2.238,0.033c1.005,0.017,1.611,0.024,3.632-0.044
		l3.137-0.104l-0.684,3.517c-0.101,0.518-0.101,0.518-0.193,1.022l-0.081,0.442l-2.028-0.371l0.017,0.492
		c-0.856,0.028-1.48,0.044-1.987,0.052c-0.06,0.313-0.114,0.604-0.162,0.881c1.601-0.08,3.207-0.22,4.772-0.415
		c0.42-3.473,1.039-6.579,1.946-9.731c-6.385,0.283-12.933-0.493-19.864-2.352c-5.223,12.506-6.902,26.345-5,41.195
		c15.93,1.08,30.675-2.044,42.85-8.829c-3.122,0.978-6.378,1.755-9.768,2.287L737.806,901.863z"/>
	<path d="M743.985,733.163l1.852,0.73c8.171,3.221,15.383,7.188,21.731,11.961l0.843-1.189c2.966-4.184,5.79-7.623,9.157-11.152
		l1.954-2.047l1.791,2.192c1.473,1.803,3.695,4.857,5.17,7.104l1.121,1.708l-1.45,1.438c-1.136,1.126-2.45,2.521-3.7,3.929
		l-2.114,2.379l-2.041-2.95c-0.493-0.715-0.844-1.223-1.322-1.876l2.804-2.053c0.469-0.512,0.938-1.014,1.398-1.495
		c-0.656-0.945-1.34-1.89-1.974-2.741c-1.972,2.194-3.751,4.39-5.591,6.896c3.621,4.413,6.561,8.701,9.04,13.2
		c6.286-7.372,13.796-13.532,23.274-19.109c-7.824-18.569-20.349-34.021-38.202-47.131c-20.192,18.409-32.672,40.678-36.052,63.549
		c2.625-7.373,6.359-14.669,11.185-21.702L743.985,733.163z"/>
	<path d="M735.661,769.382l1.974,0.26c5.977,0.789,11.459,2.211,16.522,4.278l0.109-0.28c1.339-3.428,2.708-6.312,4.438-9.35
		l1.4-2.459l2.268,1.693c1.361,1.016,3.396,2.721,4.841,4.054l1.502,1.386l-1.061,1.748c-0.58,0.956-1.238,2.128-1.852,3.302
		l-1.476,2.818l-2.619-2.302c-0.451-0.396-0.774-0.681-1.206-1.042l1.306-1.566l-0.435-0.228c0.312-0.596,0.636-1.194,0.957-1.769
		c-0.228-0.196-0.456-0.389-0.68-0.578c-0.719,1.403-1.37,2.811-2.009,4.337c2.792,2.107,5.223,4.246,7.43,6.538
		c2.962-5.698,6.844-10.877,11.97-15.986c-8.342-10.943-19.229-19.126-33.177-24.939c-8.858,13.487-13.52,27.882-13.76,41.725
		c0.701-3.242,1.642-6.508,2.862-9.776L735.661,769.382z"/>
	<path d="M1031.155,516.973l1.99,0.016l0.43,1.943c12.866,58.113,12.038,111.696-2.595,163.043
		c8.602-17.684,15.627-36.573,21.656-58.117l0.523-1.871l1.941,0.045c20.074,0.466,36.663,2.031,55.471,5.232l2.789,0.475
		l-0.815,2.71c-2.571,8.549-7.532,22.212-11.539,31.783l-0.789,1.885l-2.004-0.398c-6.301-1.252-13.906-2.496-21.417-3.502
		l-3.153-0.423l1.774-4.547c1.25-3.196,2.152-5.504,3.24-8.527l4.705,1.694c-0.948,2.633-1.752,4.719-2.752,7.282
		c5.779,0.822,11.508,1.765,16.561,2.727c3.382-8.264,7.265-18.914,9.744-26.698c-16.813-2.745-32.035-4.156-49.993-4.644
		c-7.769,27.306-17.167,50.437-29.392,72.313c42.81,3.373,83.587,15.195,127.797,37.036
		c47.445-70.366,71.885-150.048,74.671-243.439c-138.872-35.29-270.755-12.093-364.661,63.637
		C912.196,530.386,968.959,516.47,1031.155,516.973z"/>
	<path d="M1233.179,488.643l1.928,0.497l-0.053,1.99c-2.328,87.925-23.598,163.864-64.881,231.412
		c20.9-23.599,39.293-49.715,57.086-80.992l0.96-1.688l1.874,0.514c27.224,7.463,49.319,15.24,73.883,26.001l2.593,1.136
		l-1.447,2.432c-6.413,10.783-17.823,27.727-26.54,39.414l-1.222,1.638l-1.848-0.871c-8.202-3.866-18.194-8.167-28.135-12.109
		l-2.957-1.173l3.211-4.531c2.806-3.955,4.833-6.813,7.361-10.588l4.154,2.782c-2.423,3.619-4.38,6.389-6.973,10.044
		c8.308,3.35,16.53,6.896,23.611,10.184c7.801-10.589,17.39-24.798,23.572-34.914c-22.737-9.833-43.552-17.133-68.718-24.106
		c-20.3,35.431-41.42,64.321-66.155,90.469c58.084,19.211,110.31,49.508,163.89,95.051
		c89.513-80.396,150.438-181.548,186.18-309.112c-182.378-98.283-375.731-110.023-532.308-32.624
		c15.793-4.796,32.13-8.641,48.995-11.509C1094.572,467.219,1164.402,470.903,1233.179,488.643z"/>
	<path d="M898.605,570.744l0.888,1.782c17.521,35.169,26.239,69.678,26.411,104.805c1.907-11.144,3.007-22.783,3.37-35.491
		l0.056-1.942l1.896-0.426c13.944-3.135,25.673-4.911,39.216-5.939l2.822-0.214l-0.136,2.827c-0.306,6.36-1.38,16.658-2.499,23.953
		l-0.31,2.02l-2.041,0.099c-4.541,0.219-9.979,0.667-15.31,1.262l-3.162,0.353l0.552-4.293c0.314-2.434,0.541-4.193,0.772-6.471
		l4.975,0.506c-0.17,1.667-0.335,3.052-0.531,4.602c3.604-0.361,7.174-0.65,10.409-0.841c0.831-5.856,1.599-13.078,1.98-18.584
		c-11.504,0.986-21.853,2.577-33.753,5.182c-0.677,19.541-3.092,36.66-7.541,53.38c29.614-4.803,59.32-3.642,92.944,3.619
		c20.297-56.147,23.409-114.74,9.508-178.968c-0.4-0.001-0.812-0.002-1.212-0.002c-97.432,0-181.024,35.997-232.768,99.633
		c27.04-23.383,61.61-40.771,101.529-50.382L898.605,570.744z"/>
	<path d="M827.594,822.574c-1.542,3.618-3.524,7.018-5.82,10.048c1.81,1.39,3.6,2.973,5.203,4.618l1.998,2.051l-2.302,1.703
		c-1.697,1.256-2.617,1.832-3.682,2.499l-1.742,1.091l-1.441-1.477c-0.88-0.937-1.359-1.396-1.782-1.801l-1.603-1.536
		c-0.419,0.253-0.844,0.499-1.275,0.739c2.981,2.96,5.571,6.387,7.733,10.236c8.061-3.155,15.982-9.173,22.2-16.869
		c-5.323-6.068-11.44-10.79-17.895-13.993l1.182,0.873L827.594,822.574z"/>
	<path d="M814.339,900.655l-1.974-0.261c-5.977-0.789-11.46-2.212-16.522-4.278l-0.109,0.279c-1.338,3.425-2.707,6.309-4.438,9.351
		l-1.401,2.46l-2.268-1.694c-1.366-1.021-3.401-2.726-4.84-4.055l-1.5-1.386l1.059-1.746c0.578-0.954,1.235-2.127,1.852-3.304
		l1.476-2.817l2.629,2.311c0.444,0.391,0.765,0.673,1.193,1.029l-1.304,1.569l0.436,0.229c-0.313,0.597-0.636,1.194-0.957,1.768
		c0.228,0.196,0.455,0.39,0.68,0.578c0.72-1.404,1.372-2.813,2.011-4.338c-2.792-2.107-5.224-4.245-7.431-6.537
		c-2.961,5.697-6.844,10.877-11.97,15.985c8.341,10.941,19.228,19.125,33.177,24.94c8.859-13.488,13.521-27.884,13.76-41.727
		c-0.701,3.242-1.643,6.509-2.863,9.779L814.339,900.655z"/>
	<path d="M812.053,874.359c-2.018,0.229-3.985,0.344-5.907,0.344c-1.938,0-3.824-0.131-5.674-0.365
		c-0.33,2.408-0.763,4.535-1.398,6.802l-0.764,2.724l-2.609-1.093c-1.132-0.474-2.855-1.313-4.101-1.994l-1.794-0.982l0.608-1.953
		c0.23-0.742,0.478-1.646,0.695-2.545l0.492-2.039c-0.43-0.235-0.853-0.477-1.27-0.724c-1.057,3.961-2.714,7.849-5.012,11.765
		c7.271,5.682,15.718,9.245,25.706,10.849c2.628-7.723,3.664-15.379,3.183-22.588l-0.179,1.576L812.053,874.359z"/>
	<path d="M790.556,783.274c2.39,3.237,4.309,6.585,5.752,10.025c2.103-0.862,4.367-1.616,6.595-2.18l2.789-0.706l0.31,2.86
		c0.142,1.31,0.251,2.318,0.322,4.478l0.067,2.05l-2.12,0.495c-0.676,0.158-1.106,0.258-2.47,0.647l-1.996,0.569
		c0.012,0.495,0.014,0.989,0.008,1.485c3.961-1.075,8.188-1.581,12.713-1.558c1.259-9.013,0.096-18.307-3.467-27.684
		c-8.111,1.525-15.368,4.511-21.453,8.685l1.779-0.752L790.556,783.274z"/>
	<path d="M812.194,768.174l0.752,1.82c2.271,5.498,3.772,10.985,4.518,16.428l0.284-0.045c3.327-0.525,6.904-0.809,10.346-0.821
		l2.875-0.01l-0.39,2.849c-0.245,1.796-0.438,3.202-1.072,6.156l-0.432,2.005l-2.233-0.034c-1.005-0.016-1.61-0.024-3.638,0.043
		l-3.137,0.105l0.677-3.482c0.105-0.541,0.105-0.541,0.194-1.027l0.087-0.474l2.027,0.373l-0.017-0.492
		c0.855-0.029,1.48-0.044,1.987-0.052c0.061-0.313,0.113-0.604,0.162-0.881c-1.602,0.08-3.207,0.219-4.772,0.415
		c-0.421,3.473-1.039,6.579-1.946,9.731c6.389-0.285,12.935,0.492,19.864,2.351c5.222-12.505,6.901-26.344,4.999-41.195
		c-15.93-1.08-30.673,2.043-42.848,8.828c3.121-0.977,6.376-1.755,9.766-2.286L812.194,768.174z"/>
	<path d="M850.233,832.218l1.258,1.523l-1.19,1.576c-3.501,4.633-7.592,8.758-11.999,12.193l0.19,0.233
		c2.132,2.621,4.173,5.573,5.901,8.537l1.441,2.473l-2.645,1.096c-2.715,1.125-4.152,1.594-5.815,2.137l-1.954,0.637l-1.049-1.779
		c-0.907-1.622-1.417-2.427-1.866-3.138l-1.786-2.827l3.47-1.166c0.454-0.152,0.454-0.152,0.956-0.335l0.391-0.141l0.696,1.924
		l0.414-0.262l0.085,0.135c0.267,0.421,0.571,0.902,0.97,1.571c0.27-0.093,0.545-0.191,0.836-0.298
		c-0.867-1.336-1.795-2.657-2.741-3.903c-3.047,1.314-6.119,2.348-9.401,3.16c3.521,5.522,6.178,11.684,7.924,18.385
		c12.767-1.456,26.458-7.31,38.142-16.314c-7.22-14.331-17.478-25.664-29.295-32.804
		C845.644,827.064,848.013,829.528,850.233,832.218z"/>
	<path d="M737.947,795.678c4.053-0.461,7.893-0.433,11.579,0.034c0.331-2.414,0.764-4.545,1.401-6.816l0.764-2.726l2.61,1.095
		c1.134,0.476,2.858,1.314,4.099,1.995l1.792,0.982l-0.606,1.952c-0.231,0.742-0.478,1.647-0.696,2.548l-0.493,2.036
		c0.431,0.236,0.854,0.477,1.271,0.725c1.057-3.961,2.714-7.849,5.012-11.765c-7.271-5.682-15.718-9.246-25.706-10.848
		c-2.628,7.724-3.664,15.38-3.182,22.588l0.178-1.575L737.947,795.678z"/>
	<path d="M1168.641,1129.748l1.936-0.017l0.5,1.87c6.571,24.563,11.531,51.222,14.343,77.097l0.311,2.859l-3.101-0.098
		c-14.163-0.446-24.396-0.769-47.152-3.216l-2.038-0.219l-0.319-3.543c-0.699-7.783-1.161-12.926-3.392-28.951l-0.433-3.109
		l6.503,0.57c4.246,0.373,4.246,0.373,8.291,0.682l3.571,0.272l-0.383,4.986l-3.568-0.273c-4.073-0.311-4.073-0.311-8.349-0.686
		l-0.251-0.022c1.834,13.403,2.308,18.499,2.94,25.539c19.756,2.082,29.749,2.493,42.079,2.889
		c-2.758-24.069-7.365-48.725-13.388-71.617c-40.617,0.197-74.375-3.365-111.638-11.893c12.372,59.132,12.321,121.223-0.146,189.597
		c112.313,36.794,233.591,39.032,360.564,6.656c-3.8-204.518-90.186-377.747-237.564-477.01
		c12.021,11.198,23.497,23.313,34.396,36.348c41.794,49.987,73.452,112.332,91.554,180.295l0.507,1.903l-1.732,0.938
		c-73.135,39.617-147.931,59.61-222.762,59.613c-3.03,0-6.058-0.042-9.087-0.107
		C1102.707,1127.412,1132.954,1130.047,1168.641,1129.748z"/>
</g>
</svg>
