<?xml version="1.0" encoding="utf-8"?>

<!DOCTYPE svg PUBLIC "-//W3C//DTD SVG 1.1//EN" "http://www.w3.org/Graphics/SVG/1.1/DTD/svg11.dtd">
<svg version="1.1" id="Layer_1" xmlns="http://www.w3.org/2000/svg" xmlns:xlink="http://www.w3.org/1999/xlink" x="0px" y="0px"
	 viewBox="0 0 1774.012 1651.966" enable-background="new 0 0 1774.012 1651.966" xml:space="preserve">
<g>
	<g>
		<path fill="none" stroke="#6531FD" stroke-width="3" d="M27.951,951.421l739.349-739.349l456.575,456.657L941.102,951.419
			L767.138,777.455l108.728-108.726l65.237,65.237l-43.491,43.491l-21.746-21.746"/>
	</g>
	<g>
		<path fill="none" stroke="#156D59" stroke-width="3" d="M31.496,966.189l726.333-752.14l464.476,448.619L944.508,950.251
			L767.534,779.349l106.814-110.607l66.365,64.088l-42.726,44.244l-22.122-21.363"/>
	</g>
	<g>
		<path fill="none" stroke="#C173DB" stroke-width="3" d="M35.298,980.893l713.096-764.702l472.234,440.445L947.892,949.023
			l-179.93-167.787L872.83,668.781l67.474,62.92l-41.947,44.982l-22.491-20.973"/>
	</g>
	<g>
		<path fill="none" stroke="#811945" stroke-width="3" d="M39.356,995.529l699.641-777.031l479.849,432.136L951.255,947.737
			L768.425,783.115l102.888-114.268l68.562,61.733l-41.155,45.708l-22.854-20.578"/>
	</g>
	<g>
		<path fill="none" stroke="#638B65" stroke-width="3" d="M43.669,1010.091l685.974-789.123l487.318,423.695L954.595,946.392
			L768.919,784.986L869.798,668.94l69.628,60.527l-40.351,46.419l-23.209-20.176"/>
	</g>
	<g>
		<path fill="none" stroke="#F1D9CF" stroke-width="3" d="M48.235,1024.577l672.097-800.974l494.638,415.126l-257.06,306.261
			L769.446,786.848l98.838-117.789l70.674,59.303l-39.535,47.116l-23.558-19.768"/>
	</g>
	<g>
		<path fill="none" stroke="#550901" stroke-width="3" d="M53.054,1038.98L711.07,226.398l501.808,406.43l-251.676,310.7
			L770.006,788.701l96.767-119.496l71.698,58.06l-38.707,47.799l-23.899-19.353"/>
	</g>
	<g>
		<path fill="none" stroke="#77FB19" stroke-width="3" d="M58.123,1053.297l643.734-823.942l508.825,397.611L964.467,942.01
			L770.598,790.543l94.667-121.167l72.701,56.8l-37.867,48.467l-24.234-18.933"/>
	</g>
	<g>
		<path fill="none" stroke="#EFB141" stroke-width="3" d="M63.441,1067.523l629.257-835.052l515.686,388.67L967.705,940.435
			l-196.483-148.06l92.538-122.8l73.681,55.523l-37.015,49.121l-24.56-18.508"/>
	</g>
	<g>
		<path fill="none" stroke="#AFFF97" stroke-width="3" d="M69.006,1081.654l614.587-845.906l522.391,379.611l-235.07,323.446
			L771.878,794.196l90.381-124.397l74.639,54.228l-36.152,49.759l-24.88-18.076"/>
	</g>
	<g>
		<path fill="none" stroke="#B5B507" stroke-width="3" d="M74.818,1095.686l599.73-856.504l528.937,370.436l-229.389,327.5
			l-201.53-141.113l88.196-125.955l75.574,52.917l-35.278,50.383l-25.191-17.639"/>
	</g>
	<g>
		<path fill="none" stroke="#75C5CF" stroke-width="3" d="M80.873,1109.615l584.691-866.84l535.321,361.148L977.246,935.376
			L773.284,797.801l85.984-127.475l76.486,51.59l-34.394,50.991l-25.495-17.197"/>
	</g>
	<g>
		<path fill="none" stroke="#6FB7D5" stroke-width="3" d="M87.171,1123.435l569.473-876.912l541.542,351.751l-217.82,335.306
			L774.034,799.585l83.746-128.956l77.375,50.248l-33.498,51.583l-25.792-16.749"/>
	</g>
	<g>
		<path fill="none" stroke="#EB5999" stroke-width="3" d="M93.708,1137.144l554.082-886.717l547.599,342.246L983.455,931.728
			L774.816,801.356l81.483-130.398l78.24,48.89l-32.593,52.16l-26.08-16.297"/>
	</g>
	<g>
		<path fill="none" stroke="#890BED" stroke-width="3" d="M100.485,1150.736l538.523-896.252l553.489,332.637L986.51,929.824
			L775.628,803.112l79.195-131.8l79.081,47.517l-31.678,52.721l-26.36-15.839"/>
	</g>
	<g>
		<path fill="none" stroke="#FD0339" stroke-width="3" d="M107.497,1164.208l522.799-905.514l559.209,322.926L989.532,927.866
			L776.47,804.855l76.883-133.163l79.898,46.129l-30.753,53.266l-26.633-15.376"/>
	</g>
	<g>
		<path fill="none" stroke="#1B45EB" stroke-width="3" d="M114.743,1177.556l506.916-914.5l564.76,313.118l-193.9,349.683
			L777.343,806.582l74.547-134.484l80.691,44.728l-29.819,53.794l-26.897-14.909"/>
	</g>
	<g>
		<path fill="none" stroke="#2503CD" stroke-width="3" d="M122.221,1190.775L613.1,267.567l570.139,303.214L995.471,923.794
			L778.246,808.294l72.188-135.765l81.46,43.313l-28.875,54.306l-27.153-14.438"/>
	</g>
	<g>
		<path fill="none" stroke="#D5BF2F" stroke-width="3" d="M129.929,1203.862L604.62,272.227l575.344,293.217L998.386,921.681
			L779.178,809.989l69.808-137.004l82.203,41.885l-27.923,54.802l-27.401-13.962"/>
	</g>
	<g>
		<path fill="none" stroke="#D92F83" stroke-width="3" d="M137.864,1216.812l458.36-939.777l580.374,283.131l-175.333,359.352
			L780.14,811.668l67.406-138.201l82.922,40.444l-26.962,55.281l-27.641-13.481"/>
	</g>
	<g>
		<path fill="none" stroke="#3B8703" stroke-width="3" d="M146.024,1229.622l441.889-947.633l585.226,272.959l-169.035,362.357
			L781.132,813.331l64.984-139.357l83.615,38.99l-25.993,55.743l-27.872-12.997"/>
	</g>
	<g>
		<path fill="none" stroke="#0F6F1D" stroke-width="3" d="M154.406,1242.287l425.283-955.201L1169.59,549.79l-162.685,365.252
			L782.152,814.975l62.542-140.469l84.282,37.525l-25.017,56.188l-28.094-12.508"/>
	</g>
	<g>
		<path fill="none" stroke="#B93FA7" stroke-width="3" d="M163.007,1254.804l408.548-962.478l594.396,252.369L1009.666,912.73
			L783.2,816.602l60.081-141.54l84.924,36.048l-24.032,56.616l-28.308-12.016"/>
	</g>
	<g>
		<path fill="none" stroke="#6BB577" stroke-width="3" d="M171.826,1267.169l391.688-969.461l598.71,241.957l-149.839,370.707
			L784.277,818.21l57.602-142.567l85.541,34.561l-23.04,57.027l-28.514-11.52"/>
	</g>
	<g>
		<path fill="none" stroke="#F1C54D" stroke-width="3" d="M180.86,1279.378l374.709-976.15L1158.41,534.7l-143.346,373.266
			l-229.682-88.167l55.105-143.55l86.131,33.063l-22.042,57.421l-28.71-11.021"/>
	</g>
	<g>
		<path fill="none" stroke="#4FD189" stroke-width="3" d="M190.105,1291.428L547.72,308.888l606.789,220.915L1017.7,905.513
			l-231.186-84.145l52.591-144.49l86.695,31.554l-21.036,57.797l-28.898-10.518"/>
	</g>
	<g>
		<path fill="none" stroke="#8D213F" stroke-width="3" d="M199.559,1303.315l340.413-988.632l610.552,210.291l-130.232,378.041
			l-232.619-80.097l50.061-145.386l87.232,30.036l-20.024,58.155l-29.077-10.012"/>
	</g>
	<g>
		<path fill="none" stroke="#170DF7" stroke-width="3" d="M209.219,1315.034l323.107-994.423l614.13,199.603l-123.614,380.256
			L788.86,824.446l47.516-146.237l87.743,28.51l-19.006,58.495l-29.248-9.503"/>
	</g>
	<g>
		<path fill="none" stroke="#7D3F1F" stroke-width="3" d="M219.082,1326.584l305.703-999.91l617.52,188.855l-116.959,382.356
			l-235.273-71.93L835.03,678.91l88.227,26.974l-17.983,58.818l-29.409-8.991"/>
	</g>
	<g>
		<path fill="none" stroke="#F1D1E1" stroke-width="3" d="M229.145,1337.959L517.351,332.866l620.722,178.049l-110.268,384.339
			l-236.493-67.813l42.384-147.807l88.685,25.43l-16.953,59.123l-29.562-8.477"/>
	</g>
	<g>
		<path fill="none" stroke="#8915BF" stroke-width="3" d="M239.405,1349.157l270.621-1009.97l623.734,167.189l-103.544,386.205
			l-237.64-63.675l39.798-148.524l89.115,23.878l-15.919,59.41l-29.705-7.959"/>
	</g>
	<g>
		<path fill="none" stroke="#8FBDFB" stroke-width="3" d="M249.859,1360.175L502.812,345.636l626.557,156.278l-96.788,387.953
			l-238.715-59.518l37.2-149.196l89.518,22.319l-14.88,59.679l-29.839-7.44"/>
	</g>
	<g>
		<path fill="none" stroke="#9D7301" stroke-width="3" d="M260.504,1371.008L495.712,352.209l629.189,145.319l-90.002,389.583
			l-239.717-55.343l34.59-149.822l89.894,20.754l-13.836,59.929l-29.965-6.918"/>
	</g>
	<g>
		<path fill="none" stroke="#FBC3AF" stroke-width="3" d="M271.336,1381.654L488.728,358.905l631.63,134.316l-83.19,391.094
			l-240.647-51.151l31.97-150.403l90.243,19.182l-12.788,60.162l-30.081-6.394"/>
	</g>
	<g>
		<path fill="none" stroke="#653779" stroke-width="3" d="M282.352,1392.109L481.862,365.722l633.877,123.272l-76.351,392.487
			l-241.503-46.943l29.34-150.938l90.564,17.604l-11.736,60.376l-30.188-5.868"/>
	</g>
	<g>
		<path fill="none" stroke="#037DE3" stroke-width="3" d="M293.55,1402.37L475.116,372.658l635.932,112.191l-69.49,393.759
			l-242.285-42.721l26.702-151.427l90.857,16.021l-10.68,60.571l-30.286-5.34"/>
	</g>
	<g>
		<path fill="none" stroke="#4BCDF9" stroke-width="3" d="M304.924,1412.435L468.492,379.71l637.794,101.075l-62.607,394.912
			l-242.994-38.487l24.055-151.87l91.123,14.432l-9.622,60.748l-30.374-4.811"/>
	</g>
	<g>
		<path fill="none" stroke="#F16F73" stroke-width="3" d="M316.472,1422.299L461.991,386.877l639.46,89.929l-55.706,395.945
			l-243.629-34.24l21.401-152.267l91.361,12.84l-8.56,60.907l-30.454-4.28"/>
	</g>
	<g>
		<path fill="none" stroke="#D981B3" stroke-width="3" d="M328.191,1431.96L455.617,394.156l640.932,78.755l-48.787,396.857
			l-244.189-29.983l18.74-152.617l91.571,11.244l-7.496,61.047l-30.524-3.748"/>
	</g>
	<g>
		<path fill="none" stroke="#23D989" stroke-width="3" d="M340.077,1441.416l109.295-1039.87l642.209,67.557l-41.853,397.648
			l-244.675-25.716l16.074-152.921l91.753,9.644l-6.429,61.169l-30.584-3.215"/>
	</g>
	<g>
		<path fill="none" stroke="#AF7F1B" stroke-width="3" d="M352.126,1450.662l91.13-1041.619l643.291,56.339l-34.907,398.317
			l-245.087-21.442l13.402-153.178l91.908,8.041l-5.361,61.272l-30.636-2.68"/>
	</g>
	<g>
		<path fill="none" stroke="#FB678B" stroke-width="3" d="M364.334,1459.697l72.937-1043.051l644.176,45.103l-27.95,398.866
			l-245.424-17.162L818.8,690.064l92.034,6.436l-4.29,61.356l-30.678-2.145"/>
	</g>
	<g>
		<path fill="none" stroke="#8DA70D" stroke-width="3" d="M376.698,1468.517L431.42,424.352l644.865,33.854L1055.3,857.499
			l-245.686-12.876l8.048-153.553l92.132,4.828l-3.219,61.421l-30.711-1.609"/>
	</g>
	<g>
		<path fill="none" stroke="#2F47F1" stroke-width="3" d="M389.214,1477.12l36.491-1044.961l645.357,22.594l-14.013,399.598
			l-245.873-8.586l5.367-153.67l92.202,3.22l-2.147,61.468l-30.734-1.073"/>
	</g>
	<g>
		<path fill="none" stroke="#4D5500" stroke-width="3" d="M401.879,1485.503l18.248-1045.439l645.653,11.328l-7.037,399.782
			l-245.986-4.294l2.685-153.74l92.245,1.61l-1.073,61.496l-30.748-0.537"/>
	</g>
	<g>
		<path fill="none" stroke="#DBAF4B" stroke-width="3" d="M414.688,1493.664V448.066l645.753,0.058l-0.059,399.844H814.359
			l0.001-153.763h92.259v61.506h-30.753"/>
	</g>
	<g>
		<path fill="none" stroke="#51DBD7" stroke-width="3" d="M427.637,1501.601L409.389,456.162l645.655-11.212l6.92,399.784
			l-245.986,4.294l-2.683-153.74l92.245-1.61l1.073,61.496l-30.748,0.537"/>
	</g>
	<g>
		<path fill="none" stroke="#4D7309" stroke-width="3" d="M440.723,1509.31L404.232,464.349l645.361-22.479l13.896,399.603
			l-245.873,8.586l-5.365-153.67l92.202-3.22l2.146,61.468l-30.734,1.073"/>
	</g>
	<g>
		<path fill="none" stroke="#5D5331" stroke-width="3" d="M453.941,1516.789L399.219,472.624l644.871-33.739l20.868,399.299
			l-245.686,12.876l-8.046-153.553l92.132-4.828l3.219,61.421l-30.711,1.609"/>
	</g>
	<g>
		<path fill="none" stroke="#65EF73" stroke-width="3" d="M467.288,1524.037L394.351,480.986l644.184-44.988l27.833,398.874
			l-245.424,17.162l-10.725-153.389l92.034-6.436l4.29,61.356l-30.678,2.145"/>
	</g>
	<g>
		<path fill="none" stroke="#BFE783" stroke-width="3" d="M480.759,1531.05l-91.13-1041.619l643.301-56.224l34.79,398.328
			l-245.087,21.442l-13.4-153.178l91.908-8.041l5.361,61.272l-30.636,2.68"/>
	</g>
	<g>
		<path fill="none" stroke="#998757" stroke-width="3" d="M494.351,1537.828L385.056,497.958l642.221-67.442l41.737,397.66
			l-244.675,25.716l-16.072-152.921l91.753-9.644l6.429,61.169l-30.584,3.215"/>
	</g>
	<g>
		<path fill="none" stroke="#0121B3" stroke-width="3" d="M508.059,1544.367L380.633,506.563l640.946-78.64l48.671,396.871
			L826.06,854.776l-18.738-152.617l91.571-11.243l7.496,61.047l-30.524,3.748"/>
	</g>
	<g>
		<path fill="none" stroke="#EF8369" stroke-width="3" d="M521.879,1550.666L376.36,515.244l639.476-89.814l55.59,395.961
			l-243.629,34.24l-21.399-152.267l91.361-12.84l8.56,60.907l-30.454,4.28"/>
	</g>
	<g>
		<path fill="none" stroke="#47FF0F" stroke-width="3" d="M535.807,1556.723L372.239,523.998l637.812-100.961l62.492,394.931
			l-242.994,38.486l-24.053-151.87l91.123-14.432l9.622,60.749l-30.374,4.811"/>
	</g>
	<g>
		<path fill="none" stroke="#E193CF" stroke-width="3" d="M549.838,1562.536L368.272,532.823l635.952-112.077l69.375,393.78
			l-242.285,42.721l-26.7-151.428l90.857-16.021l10.68,60.571l-30.286,5.34"/>
	</g>
	<g>
		<path fill="none" stroke="#174F55" stroke-width="3" d="M563.969,1568.103L364.459,541.716l633.9-123.159l76.236,392.509
			l-241.503,46.943l-29.339-150.939l90.564-17.604l11.736,60.376l-30.188,5.868"/>
	</g>
	<g>
		<path fill="none" stroke="#55DD0B" stroke-width="3" d="M578.195,1573.422L360.803,550.673L992.456,416.47l83.075,391.119
			L834.884,858.74l-31.968-150.404l90.243-19.182l12.788,60.162l-30.081,6.394"/>
	</g>
	<g>
		<path fill="none" stroke="#63214D" stroke-width="3" d="M592.511,1578.493L357.303,559.694l629.215-145.207l89.888,389.609
			L836.689,859.44L802.1,709.617l89.894-20.754l13.836,59.929l-29.965,6.918"/>
	</g>
	<g>
		<path fill="none" stroke="#5D4389" stroke-width="3" d="M606.914,1583.313L353.961,568.774l626.585-156.166l96.674,387.981
			l-238.715,59.518l-37.198-149.196l89.518-22.319l14.88,59.679l-29.839,7.44"/>
	</g>
	<g>
		<path fill="none" stroke="#A3854D" stroke-width="3" d="M621.398,1587.881L350.778,577.911l623.764-167.077l103.431,386.235
			l-237.64,63.675l-39.796-148.524l89.115-23.878l15.919,59.41l-29.705,7.959"/>
	</g>
	<g>
		<path fill="none" stroke="#19CD39" stroke-width="3" d="M635.96,1592.195L347.755,587.102l620.753-177.938l110.156,384.371
			l-236.492,67.813l-42.382-147.807l88.685-25.43l16.953,59.123l-29.562,8.477"/>
	</g>
	<g>
		<path fill="none" stroke="#F5D3AF" stroke-width="3" d="M650.596,1596.255l-305.703-999.91L962.446,407.6l116.847,382.39
			L844.02,861.92l-44.955-147.045l88.227-26.974l17.983,58.818l-29.409,8.991"/>
	</g>
	<g>
		<path fill="none" stroke="#83E37F" stroke-width="3" d="M665.299,1600.058L342.192,605.635l614.165-199.494l123.503,380.292
			l-233.982,76.025l-47.515-146.238l87.743-28.509l19.006,58.495l-29.248,9.503"/>
	</g>
	<g>
		<path fill="none" stroke="#C9457B" stroke-width="3" d="M680.067,1603.604L339.654,614.972l610.59-210.182l130.121,378.079
			l-232.619,80.097l-50.06-145.386l87.232-30.036l20.024,58.155l-29.077,10.012"/>
	</g>
	<g>
		<path fill="none" stroke="#D94D47" stroke-width="3" d="M694.895,1606.892L337.279,624.352l606.829-220.806l136.7,375.751
			l-231.186,84.145L797.033,718.95l86.695-31.554l21.036,57.797l-28.898,10.518"/>
	</g>
	<g>
		<path fill="none" stroke="#73C183" stroke-width="3" d="M709.778,1609.921l-374.709-976.15l602.883-231.363l143.237,373.308
			l-229.682,88.167l-55.103-143.551l86.131-33.063l22.042,57.421l-28.71,11.021"/>
	</g>
	<g>
		<path fill="none" stroke="#67D1AD" stroke-width="3" d="M724.711,1612.69L333.023,643.228l598.753-241.85l149.73,370.751
			l-228.109,92.162l-57.6-142.567l85.541-34.561l23.04,57.027l-28.514,11.52"/>
	</g>
	<g>
		<path fill="none" stroke="#B549AD" stroke-width="3" d="M739.69,1615.197L331.143,652.719l594.441-252.263l156.178,368.081
			l-226.465,96.129l-60.079-141.54l84.924-36.048l24.032,56.616l-28.308,12.016"/>
	</g>
	<g>
		<path fill="none" stroke="#33C3B1" stroke-width="3" d="M754.711,1617.443L329.428,662.242l589.948-262.599l162.578,365.3
			L857.201,865.009l-62.54-140.47l84.282-37.525l25.017,56.188l-28.094,12.508"/>
	</g>
	<g>
		<path fill="none" stroke="#6BED61" stroke-width="3" d="M769.769,1619.426L327.88,671.792l585.275-272.855l168.928,362.407
			L859.111,865.318l-64.982-139.357l83.615-38.99l25.993,55.743l-27.872,12.997"/>
	</g>
	<g>
		<path fill="none" stroke="#7137F9" stroke-width="3" d="M784.859,1621.146l-458.36-939.777l580.424-283.028l175.227,359.403
			L861.027,865.594l-67.405-138.202l82.922-40.443l26.962,55.281l-27.641,13.481"/>
	</g>
	<g>
		<path fill="none" stroke="#59F987" stroke-width="3" d="M799.977,1622.603L325.285,690.968l575.396-293.114l181.473,356.29
			L862.947,865.836L793.14,728.832l82.203-41.885l27.923,54.802l-27.401,13.961"/>
	</g>
	<g>
		<path fill="none" stroke="#0053E3" stroke-width="3" d="M815.118,1623.795L324.239,700.587l570.193-303.112l187.664,353.069
			L864.87,866.045l-72.187-135.766l81.46-43.313l28.875,54.306l-27.153,14.438"/>
	</g>
	<g>
		<path fill="none" stroke="#BD55D5" stroke-width="3" d="M830.277,1624.723l-506.916-914.5l564.816-313.017l193.797,349.74
			L866.798,866.22l-74.545-134.485l80.691-44.728l29.819,53.794l-26.897,14.909"/>
	</g>
	<g>
		<path fill="none" stroke="#8DADC5" stroke-width="3" d="M845.451,1625.386L322.652,719.872l559.267-322.826L1081.79,743.35
			L868.728,866.361l-76.881-133.164l79.898-46.129l30.753,53.266l-26.633,15.376"/>
	</g>
	<g>
		<path fill="none" stroke="#33998F" stroke-width="3" d="M860.633,1625.785L322.11,729.532l553.548-332.538l205.885,342.764
			L870.66,866.469l-79.193-131.801l79.081-47.517l31.678,52.721l-26.36,15.839"/>
	</g>
	<g>
		<path fill="none" stroke="#97F743" stroke-width="3" d="M875.82,1625.918L321.738,739.201l547.66-342.148l211.835,339.118
			L872.594,866.543l-81.481-130.399l78.24-48.89l32.593,52.16l-26.08,16.297"/>
	</g>
	<g>
		<path fill="none" stroke="#ADD3C1" stroke-width="3" d="M891.008,1625.786L321.534,748.874L863.139,397.22l217.721,335.369
			L874.529,866.583l-83.745-128.957l77.375-50.248l33.498,51.583l-25.792,16.749"/>
	</g>
	<g>
		<path fill="none" stroke="#57CB9F" stroke-width="3" d="M906.19,1625.389l-584.691-866.84l535.386-361.053l223.541,331.519
			L876.464,866.59l-85.983-127.476l76.486-51.59l34.394,50.991l-25.495,17.197"/>
	</g>
	<g>
		<path fill="none" stroke="#576FD5" stroke-width="3" d="M921.363,1624.728l-599.73-856.504l529.003-370.341l229.293,327.567
			l-201.53,141.113l-88.194-125.956l75.574-52.917l35.278,50.383l-25.191,17.639"/>
	</g>
	<g>
		<path fill="none" stroke="#D5DFAF" stroke-width="3" d="M936.523,1623.801L321.936,777.895l522.459-379.517l234.975,323.515
			L880.333,866.501l-90.379-124.398l74.639-54.228l36.152,49.759l-24.88,18.076"/>
	</g>
	<g>
		<path fill="none" stroke="#1F3B35" stroke-width="3" d="M951.664,1622.61L322.408,787.559l515.756-388.578l240.585,319.365
			l-196.483,148.06L789.73,743.605l73.681-55.523l37.015,49.121l-24.56,18.508"/>
	</g>
	<g>
		<path fill="none" stroke="#11DBB3" stroke-width="3" d="M966.782,1621.155L323.048,797.213l508.896-397.52l246.122,315.118
			L884.197,866.278L789.531,745.11l72.701-56.8l37.867,48.467l-24.234,18.933"/>
	</g>
	<g>
		<path fill="none" stroke="#CB5D29" stroke-width="3" d="M981.872,1619.437L323.856,806.855l501.88-406.341l251.584,310.774
			L886.125,866.116L789.36,746.618l71.698-58.06l38.707,47.799l-23.899,19.353"/>
	</g>
	<g>
		<path fill="none" stroke="#694FCF" stroke-width="3" d="M996.93,1617.455L324.833,816.481l494.712-415.038l256.97,306.336
			L888.051,865.92l-98.836-117.79l70.674-59.303l39.535,47.116l-23.558,19.768"/>
	</g>
	<g>
		<path fill="none" stroke="#51FDB5" stroke-width="3" d="M1011.951,1615.211L325.977,826.088L813.371,402.48l262.277,301.805
			L889.972,865.69L789.095,749.643l69.628-60.527l40.351,46.419l-23.209,20.176"/>
	</g>
	<g>
		<path fill="none" stroke="#E95121" stroke-width="3" d="M1026.931,1612.705L327.289,835.675l479.926-432.05l267.504,297.181
			L891.889,865.427L789.002,751.158l68.562-61.733l41.155,45.708l-22.854,20.578"/>
	</g>
	<g>
		<path fill="none" stroke="#2177C9" stroke-width="3" d="M1041.865,1609.938L328.768,845.236l472.313-440.36l272.65,292.467
			l-179.93,167.787L788.936,752.675l67.474-62.92l41.947,44.982l-22.491,20.973"/>
	</g>
	<g>
		<path fill="none" stroke="#991BA7" stroke-width="3" d="M1056.748,1606.911l-726.333-752.14L794.97,406.235l277.713,287.665
			L895.709,864.801L788.896,754.192l66.365-64.088l42.725,44.244l-22.122,21.363"/>
	</g>
	<g>
		<path fill="none" stroke="#B35381" stroke-width="3" d="M1071.575,1603.625L332.226,864.275L788.883,407.7l282.691,282.774
			L897.61,864.438L788.883,755.711l65.237-65.237l43.491,43.491l-21.746,21.746"/>
	</g>
	<g>
		<path fill="none" stroke="#93F965" stroke-width="3" d="M1086.344,1600.08l-752.14-726.333l448.619-464.476l287.583,277.797
			L899.504,864.042L788.896,757.229l64.088-66.365l44.244,42.725l-21.363,22.122"/>
	</g>
	<g>
		<path fill="none" stroke="#4F5D71" stroke-width="3" d="M1101.048,1596.278L336.346,883.182l440.445-472.234l292.388,272.736
			l-167.787,179.93L788.936,758.746l62.92-67.474l44.982,41.947l-20.973,22.491"/>
	</g>
	<g>
		<path fill="none" stroke="#673FFD" stroke-width="3" d="M1115.684,1592.22L338.653,892.578l432.136-479.849l297.103,267.591
			L903.27,863.151L789.002,760.263l61.733-68.562l45.708,41.155l-20.578,22.854"/>
	</g>
	<g>
		<path fill="none" stroke="#579F3F" stroke-width="3" d="M1130.246,1587.907L341.124,901.933l423.695-487.318l301.728,262.366
			L905.141,862.657L789.095,761.778l60.527-69.628l46.419,40.351l-20.176,23.209"/>
	</g>
	<g>
		<path fill="none" stroke="#21195F" stroke-width="3" d="M1144.731,1583.341L343.757,911.243l415.126-494.638l306.261,257.06
			L907.003,862.13l-117.789-98.838l59.303-70.674l47.116,39.535l-19.768,23.558"/>
	</g>
	<g>
		<path fill="none" stroke="#73213B" stroke-width="3" d="M1159.135,1578.522L346.552,920.506l406.43-501.808l310.7,251.676
			L908.856,861.57L789.36,764.803l58.06-71.698l47.799,38.707l-19.353,23.899"/>
	</g>
	<g>
		<path fill="none" stroke="#B52747" stroke-width="3" d="M1173.451,1573.453L349.509,929.719L747.12,420.894l315.045,246.215
			L910.698,860.978l-121.167-94.667l56.8-72.701l48.467,37.867l-18.933,24.234"/>
	</g>
	<g>
		<path fill="none" stroke="#C3C537" stroke-width="3" d="M1187.678,1568.135L352.626,938.879l388.67-515.686l319.294,240.679
			L912.53,860.354l-122.8-92.538l55.523-73.681l49.121,37.015l-18.508,24.56"/>
	</g>
	<g>
		<path fill="none" stroke="#B3D3B9" stroke-width="3" d="M1201.809,1562.57L355.903,947.983l379.611-522.391l323.446,235.07
			L914.351,859.698l-124.397-90.381l54.228-74.639l49.759,36.152l-18.076,24.88"/>
	</g>
	<g>
		<path fill="none" stroke="#AF7F7F" stroke-width="3" d="M1215.841,1556.758l-856.504-599.73l370.436-528.937l327.499,229.389
			L916.16,859.011l-125.955-88.196l52.917-75.574l50.383,35.278l-17.639,25.191"/>
	</g>
	<g>
		<path fill="none" stroke="#A759CF" stroke-width="3" d="M1229.769,1550.703l-866.84-584.691l361.148-535.321l331.453,223.639
			L917.956,858.292l-127.475-85.984l51.59-76.486l50.991,34.394l-17.197,25.495"/>
	</g>
	<g>
		<path fill="none" stroke="#F1E307" stroke-width="3" d="M1243.59,1544.405L366.678,974.932l351.751-541.542l335.305,217.82
			L919.74,857.542l-128.956-83.746l50.248-77.375l51.583,33.498l-16.749,25.792"/>
	</g>
	<g>
		<path fill="none" stroke="#B11FEB" stroke-width="3" d="M1257.299,1537.867L370.581,983.785l342.246-547.599l339.056,211.935
			L921.511,856.76l-130.398-81.483l48.89-78.24l52.16,32.593l-16.297,26.08"/>
	</g>
	<g>
		<path fill="none" stroke="#8187C1" stroke-width="3" d="M1270.891,1531.091L374.639,992.569L707.275,439.08l342.703,205.985
			L923.267,855.948l-131.8-79.195l47.517-79.081l52.721,31.678l-15.839,26.36"/>
	</g>
	<g>
		<path fill="none" stroke="#3B53FD" stroke-width="3" d="M1284.363,1524.079L378.849,1001.28l322.926-559.209l346.246,199.973
			L925.01,855.106l-133.163-76.883l46.129-79.898l53.266,30.753l-15.376,26.633"/>
	</g>
	<g>
		<path fill="none" stroke="#BF25D7" stroke-width="3" d="M1297.711,1516.833l-914.5-506.916l313.118-564.76l349.683,193.9
			L926.737,854.233l-134.484-74.547l44.728-80.691l53.794,29.819l-14.909,26.897"/>
	</g>
	<g>
		<path fill="none" stroke="#B52D01" stroke-width="3" d="M1310.93,1509.355l-923.208-490.878l303.214-570.139l353.014,187.767
			L928.448,853.33l-135.765-72.188l43.313-81.46l54.306,28.875l-14.438,27.153"/>
	</g>
	<g>
		<path fill="none" stroke="#C9810F" stroke-width="3" d="M1324.017,1501.647l-931.635-474.692l293.217-575.344l356.237,181.578
			L930.144,852.398L793.14,782.59l41.885-82.203l54.802,27.923l-13.962,27.401"/>
	</g>
	<g>
		<path fill="none" stroke="#4B4B09" stroke-width="3" d="M1336.967,1493.712l-939.777-458.36l283.131-580.374l359.352,175.333
			L931.823,851.435l-138.201-67.406l40.444-82.922l55.281,26.962l-13.481,27.641"/>
	</g>
	<g>
		<path fill="none" stroke="#0B5BE9" stroke-width="3" d="M1349.776,1485.552l-947.633-441.889l272.959-585.226l362.357,169.035
			L933.485,850.444L794.129,785.46l38.99-83.615l55.743,25.993l-12.997,27.872"/>
	</g>
	<g>
		<path fill="none" stroke="#E7F347" stroke-width="3" d="M1362.442,1477.17l-955.201-425.283l262.704-589.901l365.252,162.685
			L935.13,849.424L794.66,786.882l37.525-84.282l56.188,25.017l-12.508,28.094"/>
	</g>
	<g>
		<path fill="none" stroke="#6D85A3" stroke-width="3" d="M1374.959,1468.568l-962.478-408.548L664.85,465.625l368.036,156.286
			l-96.129,226.465l-141.54-60.081l36.048-84.925l56.616,24.032l-12.016,28.308"/>
	</g>
	<g>
		<path fill="none" stroke="#9587A7" stroke-width="3" d="M1387.324,1459.75l-969.461-391.688l241.957-598.71l370.707,149.839
			l-92.162,228.109l-142.567-57.602l34.561-85.541l57.027,23.04l-11.52,28.514"/>
	</g>
	<g>
		<path fill="none" stroke="#4DD3CF" stroke-width="3" d="M1399.533,1450.716l-976.15-374.709l231.471-602.841l373.266,143.346
			l-88.167,229.682l-143.55-55.105l33.063-86.131L886.886,727l-11.021,28.71"/>
	</g>
	<g>
		<path fill="none" stroke="#CDBBE9" stroke-width="3" d="M1411.583,1441.471l-982.541-357.615l220.915-606.789l375.71,136.81
			l-84.145,231.186l-144.49-52.591l31.554-86.695l57.797,21.036l-10.518,28.898"/>
	</g>
	<g>
		<path fill="none" stroke="#296D9D" stroke-width="3" d="M1423.469,1432.017l-988.632-340.413l210.291-610.552l378.041,130.232
			l-80.097,232.619l-145.386-50.061l30.036-87.232l58.155,20.024l-10.012,29.077"/>
	</g>
	<g>
		<path fill="none" stroke="#990185" stroke-width="3" d="M1435.189,1422.357L440.767,1099.25L640.37,485.12l380.256,123.614
			l-76.025,233.982L798.364,795.2l28.51-87.743l58.495,19.006l-9.503,29.248"/>
	</g>
	<g>
		<path fill="none" stroke="#A3AB6F" stroke-width="3" d="M1446.739,1412.494l-999.91-305.703l188.855-617.52l382.356,116.959
			l-71.93,235.273l-147.044-44.957l26.974-88.227l58.818,17.983l-8.991,29.409"/>
	</g>
	<g>
		<path fill="none" stroke="#5B25A3" stroke-width="3" d="M1458.114,1402.431L453.021,1114.225L631.07,493.503l384.339,110.268
			l-67.813,236.492L799.789,797.88l25.43-88.685l59.123,16.953l-8.477,29.562"/>
	</g>
	<g>
		<path fill="none" stroke="#7725D9" stroke-width="3" d="M1469.312,1392.171L459.342,1121.55l167.189-623.734l386.205,103.544
			L949.06,839l-148.524-39.798l23.878-89.115l59.41,15.919l-7.959,29.705"/>
	</g>
	<g>
		<path fill="none" stroke="#23C991" stroke-width="3" d="M1480.33,1381.717L465.791,1128.764l156.278-626.557l387.953,96.788
			l-59.518,238.715l-149.196-37.2l22.319-89.518l59.679,14.88l-7.44,29.839"/>
	</g>
	<g>
		<path fill="none" stroke="#C3D95B" stroke-width="3" d="M1491.163,1371.072L472.364,1135.864l145.319-629.189l389.583,90.002
			l-55.343,239.717L802.1,801.804l20.754-89.894l59.929,13.836l-6.918,29.965"/>
	</g>
	<g>
		<path fill="none" stroke="#F1490F" stroke-width="3" d="M1501.809,1360.24L479.06,1142.848l134.316-631.63l391.094,83.19
			l-51.151,240.647l-150.403-31.97l19.182-90.243l60.162,12.788l-6.394,30.081"/>
	</g>
	<g>
		<path fill="none" stroke="#311F25" stroke-width="3" d="M1512.264,1349.224l-1026.387-199.51l123.272-633.878l392.487,76.351
			l-46.943,241.503l-150.938-29.34l17.604-90.564l60.376,11.736l-5.868,30.188"/>
	</g>
	<g>
		<path fill="none" stroke="#EF0D0F" stroke-width="3" d="M1522.525,1338.026L492.812,1156.46l112.191-635.932l393.759,69.49
			l-42.721,242.285l-151.427-26.702l16.021-90.857l60.571,10.68l-5.34,30.286"/>
	</g>
	<g>
		<path fill="none" stroke="#E9D3D5" stroke-width="3" d="M1532.59,1326.652L499.865,1163.084L600.94,525.291l394.912,62.607
			l-38.487,242.994l-151.87-24.055l14.432-91.123l60.748,9.622l-4.811,30.374"/>
	</g>
	<g>
		<path fill="none" stroke="#77511D" stroke-width="3" d="M1542.454,1315.104L507.032,1169.584l89.929-639.46l395.945,55.706
			l-34.24,243.629l-152.267-21.401l12.84-91.361l60.907,8.56l-4.28,30.454"/>
	</g>
	<g>
		<path fill="none" stroke="#DD29F7" stroke-width="3" d="M1552.115,1303.385L514.311,1175.958l78.755-640.932l396.857,48.787
			L959.94,828.002l-152.617-18.74l11.244-91.571l61.047,7.496l-3.748,30.524"/>
	</g>
	<g>
		<path fill="none" stroke="#679B49" stroke-width="3" d="M1561.57,1291.499L521.7,1182.204l67.557-642.209l397.648,41.853
			l-25.716,244.675L808.267,810.45l9.644-91.753l61.169,6.429l-3.215,30.584"/>
	</g>
	<g>
		<path fill="none" stroke="#8F27C7" stroke-width="3" d="M1570.817,1279.45l-1041.619-91.13l56.339-643.291l398.318,34.907
			l-21.442,245.087l-153.178-13.402l8.041-91.908l61.272,5.361l-2.68,30.636"/>
	</g>
	<g>
		<path fill="none" stroke="#ED59D5" stroke-width="3" d="M1579.851,1267.242l-1043.051-72.937l45.103-644.176l398.866,27.95
			l-17.162,245.424l-153.389-10.727l6.436-92.034l61.356,4.29l-2.145,30.678"/>
	</g>
	<g>
		<path fill="none" stroke="#950537" stroke-width="3" d="M1588.672,1254.878l-1044.165-54.722l33.854-644.865l399.293,20.985
			l-12.876,245.686l-153.553-8.048l4.828-92.132L877.475,725l-1.609,30.711"/>
	</g>
	<g>
		<path fill="none" stroke="#89DF19" stroke-width="3" d="M1597.275,1242.362l-1044.961-36.491l22.594-645.357l399.598,14.013
			L965.92,820.4l-153.67-5.367l3.22-92.202l61.468,2.147l-1.073,30.734"/>
	</g>
	<g>
		<path fill="none" stroke="#3301F7" stroke-width="3" d="M1605.658,1229.697l-1045.439-18.248l11.328-645.653l399.782,7.037
			l-4.294,245.986l-153.74-2.685l1.61-92.245l61.496,1.073l-0.537,30.748"/>
	</g>
	<g>
		<path fill="none" stroke="#7DC16D" stroke-width="3" d="M1613.819,1216.888H568.221l0.058-645.753l399.844,0.059v246.023
			l-153.763-0.001v-92.259h61.506v30.753"/>
	</g>
	<g>
		<path fill="none" stroke="#456F77" stroke-width="3" d="M1621.755,1203.939l-1045.439,18.248l-11.212-645.655l399.784-6.92
			l4.294,245.986l-153.74,2.683l-1.61-92.245l61.496-1.073l0.537,30.748"/>
	</g>
	<g>
		<path fill="none" stroke="#53A5F3" stroke-width="3" d="M1629.464,1190.853l-1044.961,36.491l-22.479-645.361l399.603-13.896
			l8.586,245.873l-153.67,5.365l-3.22-92.202l61.468-2.147l1.073,30.734"/>
	</g>
	<g>
		<path fill="none" stroke="#097D31" stroke-width="3" d="M1636.944,1177.635l-1044.165,54.722l-33.738-644.871l399.299-20.868
			l12.876,245.686l-153.553,8.046l-4.828-92.132L874.256,725l1.609,30.711"/>
	</g>
	<g>
		<path fill="none" stroke="#4D535D" stroke-width="3" d="M1644.192,1164.288l-1043.051,72.937l-44.988-644.184l398.874-27.833
			l17.162,245.424L818.8,821.357l-6.436-92.034l61.356-4.29l2.145,30.678"/>
	</g>
	<g>
		<path fill="none" stroke="#696B47" stroke-width="3" d="M1651.205,1150.817l-1041.619,91.13l-56.224-643.301l398.328-34.79
			l21.442,245.087l-153.178,13.4l-8.041-91.908l61.272-5.361l2.68,30.636"/>
	</g>
	<g>
		<path fill="none" stroke="#B59F53" stroke-width="3" d="M1657.983,1137.225L618.113,1246.52l-67.442-642.221l397.66-41.737
			l25.716,244.675l-152.921,16.072l-9.644-91.753l61.169-6.429l3.215,30.584"/>
	</g>
	<g>
		<path fill="none" stroke="#51299F" stroke-width="3" d="M1664.522,1123.517L626.718,1250.943l-78.64-640.946l396.871-48.671
			l29.983,244.189l-152.617,18.738l-11.243-91.571l61.047-7.496l3.748,30.524"/>
	</g>
	<g>
		<path fill="none" stroke="#83D3F7" stroke-width="3" d="M1670.821,1109.697L635.399,1255.216L545.584,615.74l395.961-55.589
			l34.24,243.629l-152.267,21.399l-12.84-91.361l60.907-8.56l4.28,30.454"/>
	</g>
	<g>
		<path fill="none" stroke="#69D99D" stroke-width="3" d="M1676.878,1095.769L644.153,1259.337L543.192,621.525l394.931-62.492
			l38.486,242.994l-151.87,24.053l-14.432-91.123l60.749-9.622l4.811,30.374"/>
	</g>
	<g>
		<path fill="none" stroke="#1FDF3B" stroke-width="3" d="M1682.691,1081.738L652.978,1263.304L540.901,627.352l393.78-69.374
			l42.721,242.285l-151.428,26.7l-16.021-90.857l60.571-10.68l5.34,30.286"/>
	</g>
	<g>
		<path fill="none" stroke="#574959" stroke-width="3" d="M1688.258,1067.607L661.87,1267.116L538.712,633.217l392.509-76.236
			l46.943,241.503l-150.939,29.339l-17.604-90.564l60.376-11.736l5.868,30.188"/>
	</g>
	<g>
		<path fill="none" stroke="#67298F" stroke-width="3" d="M1693.577,1053.381L670.828,1270.773L536.625,639.12l391.119-83.075
			l51.151,240.647L828.491,828.66l-19.182-90.243l60.162-12.788l6.394,30.081"/>
	</g>
	<g>
		<path fill="none" stroke="#5DD749" stroke-width="3" d="M1698.648,1039.065L679.849,1274.273L534.642,645.058l389.609-89.888
			l55.343,239.717l-149.823,34.588l-20.754-89.894l59.929-13.836l6.918,29.965"/>
	</g>
	<g>
		<path fill="none" stroke="#F15F91" stroke-width="3" d="M1703.468,1024.662L688.929,1277.615L532.763,651.03l387.981-96.674
			l59.518,238.715l-149.196,37.198l-22.319-89.518l59.679-14.88l7.44,29.839"/>
	</g>
	<g>
		<path fill="none" stroke="#0F6717" stroke-width="3" d="M1708.036,1010.178l-1009.97,270.621L530.988,657.034l386.235-103.431
			l63.675,237.64l-148.524,39.796l-23.878-89.115l59.41-15.919l7.959,29.705"/>
	</g>
	<g>
		<path fill="none" stroke="#F3EBFD" stroke-width="3" d="M1712.35,995.615L707.257,1283.821L529.319,663.068L913.69,552.912
			l67.813,236.492l-147.807,42.382l-25.43-88.685l59.123-16.953l8.477,29.562"/>
	</g>
	<g>
		<path fill="none" stroke="#C5F34B" stroke-width="3" d="M1716.409,980.98l-999.91,305.703L527.755,669.13l382.39-116.847
			l71.93,235.273L835.03,832.511l-26.974-88.227l58.818-17.983l8.991,29.409"/>
	</g>
	<g>
		<path fill="none" stroke="#0779ED" stroke-width="3" d="M1720.213,966.276L725.79,1289.384L526.297,675.219l380.292-123.503
			l76.025,233.982l-146.238,47.515l-28.509-87.743l58.495-19.006l9.503,29.248"/>
	</g>
	<g>
		<path fill="none" stroke="#3F1D7F" stroke-width="3" d="M1723.759,951.508l-988.632,340.413l-210.182-610.59l378.079-130.121
			l80.097,232.619l-145.386,50.06l-30.036-87.232l58.155-20.024l10.012,29.077"/>
	</g>
	<g>
		<path fill="none" stroke="#C74BBD" stroke-width="3" d="M1727.047,936.681l-982.541,357.615L523.7,687.468l375.751-136.7
			l84.145,231.186l-144.491,52.589l-31.554-86.695l57.797-21.036l10.518,28.898"/>
	</g>
	<g>
		<path fill="none" stroke="#535791" stroke-width="3" d="M1730.076,921.798l-976.15,374.709L522.563,693.624l373.308-143.237
			l88.167,229.682l-143.551,55.103l-33.063-86.131L864.845,727l11.021,28.71"/>
	</g>
	<g>
		<path fill="none" stroke="#A9DF3D" stroke-width="3" d="M1732.844,906.865l-969.461,391.688L521.533,699.8l370.751-149.73
			l92.162,228.109l-142.567,57.6l-34.561-85.541l57.027-23.04l11.52,28.514"/>
	</g>
	<g>
		<path fill="none" stroke="#A93323" stroke-width="3" d="M1735.352,891.885l-962.478,408.548L520.611,705.992l368.081-156.178
			l96.129,226.465l-141.54,60.079l-36.048-84.924l56.616-24.032l12.016,28.308"/>
	</g>
	<g>
		<path fill="none" stroke="#792351" stroke-width="3" d="M1737.598,876.865l-955.201,425.283L519.798,712.2l365.3-162.578
			l100.067,224.753l-140.47,62.54l-37.525-84.282l56.188-25.017l12.508,28.094"/>
	</g>
	<g>
		<path fill="none" stroke="#5DC5A9" stroke-width="3" d="M1739.581,861.807l-947.633,441.889L519.093,718.42l362.407-168.928
			l103.974,222.973l-139.357,64.982l-38.99-83.615l55.743-25.993l12.997,27.872"/>
	</g>
	<g>
		<path fill="none" stroke="#8BDFBD" stroke-width="3" d="M1741.301,846.717l-939.777,458.36L518.496,724.653l359.403-175.227
			l107.849,221.124l-138.202,67.405l-40.443-82.922l55.281-26.962l13.481,27.641"/>
	</g>
	<g>
		<path fill="none" stroke="#876B8F" stroke-width="3" d="M1742.757,831.599l-931.635,474.692L518.009,730.894l356.29-181.473
			l111.692,219.208l-137.005,69.806l-41.885-82.203l54.802-27.923l13.961,27.401"/>
	</g>
	<g>
		<path fill="none" stroke="#DD57A3" stroke-width="3" d="M1743.95,816.458l-923.208,490.878L517.63,737.144L870.699,549.48
			L986.2,766.705l-135.766,72.187l-43.313-81.46l54.306-28.875l14.438,27.153"/>
	</g>
	<g>
		<path fill="none" stroke="#FB8965" stroke-width="3" d="M1744.878,801.299l-914.5,506.916L517.361,743.398L867.1,549.602
			l119.274,215.177L851.89,839.323l-44.728-80.691l53.794-29.819l14.909,26.897"/>
	</g>
	<g>
		<path fill="none" stroke="#7D192D" stroke-width="3" d="M1745.541,786.125l-905.514,522.799L517.2,749.657l346.304-199.871
			l123.012,213.062l-133.164,76.881l-46.129-79.898l53.266-30.753l15.376,26.633"/>
	</g>
	<g>
		<path fill="none" stroke="#5B2B2B" stroke-width="3" d="M1745.939,770.943l-896.252,538.523L517.149,755.918l342.763-205.885
			l126.711,210.883l-131.801,79.193l-47.517-79.081l52.721-31.678l15.839,26.36"/>
	</g>
	<g>
		<path fill="none" stroke="#030DC7" stroke-width="3" d="M1746.073,755.756l-886.717,554.082l-342.148-547.66l339.118-211.835
			l130.372,208.639l-130.399,81.481l-48.89-78.24l52.16-32.593l16.297,26.08"/>
	</g>
	<g>
		<path fill="none" stroke="#198369" stroke-width="3" d="M1745.941,740.568l-876.912,569.473L517.375,768.437l335.369-217.722
			l133.994,206.332l-128.957,83.745l-50.248-77.375l51.583-33.498l16.749,25.792"/>
	</g>
	<g>
		<path fill="none" stroke="#4B4351" stroke-width="3" d="M1745.544,725.386l-866.84,584.691L517.652,774.691L849.17,551.15
			l137.574,203.962l-127.476,85.983l-51.59-76.486l50.991-34.394l17.197,25.495"/>
	</g>
	<g>
		<path fill="none" stroke="#133971" stroke-width="3" d="M1744.882,710.212l-856.504,599.73L518.037,780.94l327.567-229.293
			l141.113,201.53l-125.956,88.194l-52.917-75.574l50.383-35.278l17.639,25.191"/>
	</g>
	<g>
		<path fill="none" stroke="#9FCB6B" stroke-width="3" d="M1743.956,695.053L898.05,1309.64L518.532,787.181l323.515-234.975
			l144.609,199.037l-124.398,90.379l-54.228-74.639l49.759-36.152l18.076,24.88"/>
	</g>
	<g>
		<path fill="none" stroke="#25C93D" stroke-width="3" d="M1742.765,679.912l-835.052,629.256L519.136,793.413l319.365-240.585
			l148.06,196.483L863.76,841.846l-55.523-73.681l49.121-37.015l18.508,24.56"/>
	</g>
	<g>
		<path fill="none" stroke="#99D327" stroke-width="3" d="M1741.31,664.794l-823.942,643.734l-397.52-508.896L834.966,553.51
			l151.467,193.869l-121.168,94.665l-56.8-72.701l48.467-37.867l18.933,24.234"/>
	</g>
	<g>
		<path fill="none" stroke="#094DD5" stroke-width="3" d="M1739.592,649.704L927.01,1307.72l-406.341-501.88l310.774-251.585
			L986.27,745.451l-119.497,96.766l-58.06-71.698l47.799-38.707l19.353,23.899"/>
	</g>
	<g>
		<path fill="none" stroke="#955547" stroke-width="3" d="M1737.61,634.646l-800.974,672.097L521.598,812.031l306.336-256.97
			l158.141,188.465l-117.79,98.836l-59.303-70.674l47.116-39.535l19.768,23.558"/>
	</g>
	<g>
		<path fill="none" stroke="#1509D7" stroke-width="3" d="M1735.366,619.625l-789.123,685.974L522.635,818.205L824.44,555.928
			l161.406,185.676L869.798,842.481l-60.527-69.628l46.419-40.351l20.176,23.209"/>
	</g>
	<g>
		<path fill="none" stroke="#433D13" stroke-width="3" d="M1732.86,604.645l-777.031,699.641L523.779,824.36l297.181-267.504
			l164.622,182.831L871.313,842.574l-61.733-68.562l45.708-41.155l20.578,22.854"/>
	</g>
	<g>
		<path fill="none" stroke="#C131CF" stroke-width="3" d="M1730.093,589.711l-764.702,713.096l-440.36-472.313l292.467-272.65
			l167.787,179.93L872.83,842.64l-62.92-67.474l44.982-41.947l20.973,22.491"/>
	</g>
	<g>
		<path fill="none" stroke="#65AB11" stroke-width="3" d="M1727.066,574.828l-752.14,726.333L526.39,836.606l287.664-277.713
			l170.902,176.974L874.347,842.68l-64.088-66.365l44.244-42.726l21.363,22.122"/>
	</g>
	<g>
		<path fill="none" stroke="#BD8B9B" stroke-width="3" d="M1723.779,560L984.43,1299.35L527.855,842.693l282.774-282.691
			l173.965,173.965L875.865,842.693l-65.237-65.237l43.491-43.491l21.746,21.746"/>
	</g>
	<g>
		<path fill="none" stroke="#0F513F" stroke-width="3" d="M1720.235,545.232l-726.333,752.14L529.426,848.753L807.223,561.17
			l176.974,170.902L877.383,842.68l-66.365-64.088l42.725-44.244l22.122,21.363"/>
	</g>
	<g>
		<path fill="none" stroke="#999B19" stroke-width="3" d="M1716.433,530.528l-713.096,764.702L531.102,854.785l272.736-292.388
			l179.93,167.787L878.901,842.64l-67.474-62.92l41.947-44.982l22.491,20.973"/>
	</g>
	<g>
		<path fill="none" stroke="#E9177F" stroke-width="3" d="M1712.375,515.892l-699.642,777.031L532.884,860.787l267.591-297.103
			l182.831,164.622L880.418,842.574l-68.562-61.733l41.155-45.708l22.854,20.578"/>
	</g>
	<g>
		<path fill="none" stroke="#4FA9E5" stroke-width="3" d="M1708.062,501.33l-685.974,789.123L534.77,866.757l262.366-301.728
			l185.676,161.406L881.933,842.481l-69.628-60.527l40.351-46.419l23.209,20.176"/>
	</g>
	<g>
		<path fill="none" stroke="#DB298D" stroke-width="3" d="M1703.496,486.845l-672.097,800.974L536.76,872.693l257.06-306.261
			l188.465,158.141l-98.838,117.789l-70.674-59.303l39.535-47.116l23.558,19.768"/>
	</g>
	<g>
		<path fill="none" stroke="#C98727" stroke-width="3" d="M1698.677,472.441l-658.016,812.582l-501.808-406.43l251.676-310.7
			L981.725,722.72l-96.767,119.496l-71.698-58.06l38.707-47.799l23.899,19.353"/>
	</g>
	<g>
		<path fill="none" stroke="#19EBB5" stroke-width="3" d="M1693.608,458.124l-643.734,823.942l-508.825-397.61l246.215-315.045
			l193.869,151.467l-94.667,121.167l-72.701-56.8l37.867-48.467l24.234,18.933"/>
	</g>
	<g>
		<path fill="none" stroke="#534D7D" stroke-width="3" d="M1688.29,443.898l-629.256,835.052L543.347,890.28l240.679-319.294
			l196.483,148.06l-92.538,122.8l-73.681-55.523l37.015-49.121l24.56,18.508"/>
	</g>
	<g>
		<path fill="none" stroke="#8B61D3" stroke-width="3" d="M1682.724,429.767l-614.587,845.906L545.746,896.063l235.07-323.446
			l199.037,144.609l-90.381,124.397l-74.639-54.228l36.152-49.759l24.88,18.076"/>
	</g>
	<g>
		<path fill="none" stroke="#87D91D" stroke-width="3" d="M1676.913,415.735l-599.73,856.504L548.246,901.803l229.389-327.499
			l201.53,141.113L890.97,841.371l-75.574-52.917l35.278-50.383l25.191,17.639"/>
	</g>
	<g>
		<path fill="none" stroke="#1BD50B" stroke-width="3" d="M1670.858,401.807l-584.691,866.84L550.846,907.498l223.639-331.453
			L978.447,713.62l-85.984,127.475l-76.486-51.59l34.394-50.991l25.495,17.197"/>
	</g>
	<g>
		<path fill="none" stroke="#51BBE7" stroke-width="3" d="M1664.56,387.986l-569.473,876.912L553.544,913.148l217.82-335.306
			l206.332,133.994L893.95,840.792l-77.375-50.248l33.498-51.583l25.792,16.749"/>
	</g>
	<g>
		<path fill="none" stroke="#956F13" stroke-width="3" d="M1658.022,374.277l-554.082,886.717L556.341,918.749l211.935-339.056
			l208.639,130.372l-81.483,130.398l-78.24-48.89l32.593-52.16l26.08,16.297"/>
	</g>
	<g>
		<path fill="none" stroke="#056D97" stroke-width="3" d="M1651.246,360.685l-538.523,896.252L559.235,924.3L765.22,581.597
			l210.883,126.711l-79.195,131.801l-79.081-47.517l31.678-52.721l26.36,15.839"/>
	</g>
	<g>
		<path fill="none" stroke="#ABA905" stroke-width="3" d="M1644.234,347.213l-522.799,905.514L562.226,929.801l199.973-346.246
			l213.062,123.012l-76.883,133.163L818.48,793.6l30.753-53.266l26.633,15.376"/>
	</g>
	<g>
		<path fill="none" stroke="#FD9773" stroke-width="3" d="M1636.988,333.865l-506.916,914.5l-564.76-313.118l193.9-349.683
			l215.177,119.274l-74.547,134.484l-80.691-44.728l29.819-53.794l26.897,14.909"/>
	</g>
	<g>
		<path fill="none" stroke="#7785B9" stroke-width="3" d="M1629.51,320.646l-490.878,923.208L568.492,940.641l187.767-353.014
			l217.225,115.501l-72.188,135.765l-81.46-43.313l28.875-54.306l27.153,14.438"/>
	</g>
	<g>
		<path fill="none" stroke="#BF0337" stroke-width="3" d="M1621.802,307.559l-474.692,931.634L571.767,945.977L753.344,589.74
			l219.208,111.692l-69.808,137.004l-82.203-41.885l27.923-54.802l27.401,13.961"/>
	</g>
	<g>
		<path fill="none" stroke="#151B23" stroke-width="3" d="M1613.867,294.609l-458.36,939.777L575.133,951.255l175.333-359.352
			L971.59,699.753l-67.406,138.201l-82.922-40.443l26.962-55.281l27.641,13.481"/>
	</g>
	<g>
		<path fill="none" stroke="#754DB1" stroke-width="3" d="M1605.707,281.799l-441.889,947.634L578.592,956.474l169.035-362.357
			l222.973,103.974l-64.984,139.357L822,798.457l25.993-55.743l27.872,12.997"/>
	</g>
	<g>
		<path fill="none" stroke="#EDAD1B" stroke-width="3" d="M1597.325,269.134l-425.283,955.201L582.141,961.631l162.685-365.252
			l224.753,100.067l-62.542,140.469l-84.282-37.525l25.017-56.188l28.094,12.508"/>
	</g>
	<g>
		<path fill="none" stroke="#576BCD" stroke-width="3" d="M1588.723,256.617l-408.548,962.478L585.78,966.726l156.285-368.036
			l226.465,96.129l-60.081,141.54l-84.925-36.048l24.032-56.616l28.308,12.016"/>
	</g>
	<g>
		<path fill="none" stroke="#0DEBA5" stroke-width="3" d="M1579.904,244.252l-391.688,969.461l-598.71-241.957L739.345,601.05
			l228.109,92.162l-57.602,142.567l-85.541-34.561l23.04-57.027l28.514,11.52"/>
	</g>
	<g>
		<path fill="none" stroke="#070165" stroke-width="3" d="M1570.871,232.043l-374.709,976.15L593.321,976.721l143.346-373.266
			l229.682,88.167l-55.105,143.55l-86.131-33.063l22.042-57.421l28.71,11.021"/>
	</g>
	<g>
		<path fill="none" stroke="#BB9BAB" stroke-width="3" d="M1561.626,219.993l-357.616,982.541L597.221,981.619l136.81-375.711
			l231.186,84.145l-52.591,144.49l-86.695-31.554l21.036-57.797l28.898,10.518"/>
	</g>
	<g>
		<path fill="none" stroke="#4755AF" stroke-width="3" d="M1552.172,208.106l-340.413,988.632L601.206,986.448l130.232-378.041
			l232.619,80.097L913.996,833.89l-87.232-30.036l20.024-58.155l29.077,10.012"/>
	</g>
	<g>
		<path fill="none" stroke="#BBA3CF" stroke-width="3" d="M1542.512,196.387l-323.108,994.423l-614.13-199.603L728.889,610.95
			l233.982,76.025l-47.516,146.237l-87.743-28.509l19.006-58.495l29.248,9.503"/>
	</g>
	<g>
		<path fill="none" stroke="#1939CF" stroke-width="3" d="M1532.649,184.837l-305.703,999.91l-617.52-188.855l116.959-382.356
			l235.273,71.93l-44.957,147.044l-88.227-26.974l17.983-58.818l29.409,8.991"/>
	</g>
	<g>
		<path fill="none" stroke="#C9776B" stroke-width="3" d="M1522.586,173.462L1234.38,1178.555l-620.721-178.049l110.268-384.339
			l236.492,67.813l-42.384,147.807l-88.685-25.43l16.953-59.123l29.562,8.477"/>
	</g>
	<g>
		<path fill="none" stroke="#15271D" stroke-width="3" d="M1512.325,162.264l-270.621,1009.97L617.97,1005.045L721.514,618.84
			l237.64,63.675l-39.798,148.524l-89.115-23.878l15.919-59.41l29.705,7.959"/>
	</g>
	<g>
		<path fill="none" stroke="#CF23AF" stroke-width="3" d="M1501.871,151.246l-252.953,1014.539l-626.557-156.278l96.788-387.953
			l238.715,59.518l-37.2,149.196l-89.518-22.319l14.88-59.679l29.839,7.44"/>
	</g>
	<g>
		<path fill="none" stroke="#FDE125" stroke-width="3" d="M1491.227,140.413l-235.208,1018.799l-629.189-145.319l90.003-389.583
			l239.717,55.343l-34.59,149.822l-89.894-20.754l13.836-59.929l29.965,6.918"/>
	</g>
	<g>
		<path fill="none" stroke="#35D94B" stroke-width="3" d="M1480.395,129.767l-217.392,1022.749L631.373,1018.2l83.19-391.094
			l240.647,51.151l-31.97,150.403l-90.243-19.182l12.788-60.162l30.081,6.394"/>
	</g>
	<g>
		<path fill="none" stroke="#234FCD" stroke-width="3" d="M1469.378,119.312l-199.51,1026.387l-633.877-123.272l76.351-392.487
			l241.503,46.943l-29.34,150.938l-90.564-17.604l11.736-60.376l30.188,5.868"/>
	</g>
	<g>
		<path fill="none" stroke="#453F6B" stroke-width="3" d="M1458.181,109.051l-181.566,1029.713l-635.932-112.191l69.49-393.759
			l242.285,42.721l-26.702,151.427l-90.857-16.021l10.68-60.571l30.286,5.34"/>
	</g>
	<g>
		<path fill="none" stroke="#9DBB73" stroke-width="3" d="M1446.807,98.986l-163.568,1032.725l-637.794-101.075l62.607-394.912
			l242.994,38.486l-24.055,151.87l-91.123-14.432l9.622-60.749l30.374,4.811"/>
	</g>
	<g>
		<path fill="none" stroke="#AD31F7" stroke-width="3" d="M1435.258,89.122l-145.519,1035.422l-639.46-89.928l55.706-395.945
			l243.629,34.24l-21.401,152.267l-91.361-12.84l8.56-60.907l30.454,4.28"/>
	</g>
	<g>
		<path fill="none" stroke="#DD7F77" stroke-width="3" d="M1423.54,79.461l-127.426,1037.804l-640.932-78.755l48.787-396.857
			l244.189,29.983l-18.74,152.617l-91.571-11.243l7.496-61.047l30.524,3.748"/>
	</g>
	<g>
		<path fill="none" stroke="#EFBF43" stroke-width="3" d="M1411.654,70.006l-109.295,1039.87l-642.209-67.557l41.853-397.648
			l244.675,25.716l-16.074,152.921l-91.753-9.644l6.429-61.169l30.584,3.215"/>
	</g>
	<g>
		<path fill="none" stroke="#4563BF" stroke-width="3" d="M1399.605,60.759l-91.13,1041.619l-643.29-56.339l34.907-398.318
			l245.087,21.442l-13.402,153.178l-91.908-8.041l5.361-61.272l30.636,2.68"/>
	</g>
	<g>
		<path fill="none" stroke="#6DB7E5" stroke-width="3" d="M1387.397,51.725l-72.937,1043.051l-644.176-45.103l27.95-398.866
			l245.424,17.162l-10.727,153.389l-92.034-6.436l4.29-61.356l30.678,2.145"/>
	</g>
	<g>
		<path fill="none" stroke="#29135B" stroke-width="3" d="M1375.033,42.904l-54.722,1044.165l-644.865-33.854l20.985-399.293
			l245.686,12.876l-8.048,153.553l-92.132-4.828l3.219-61.422l30.711,1.609"/>
	</g>
	<g>
		<path fill="none" stroke="#A9ADEB" stroke-width="3" d="M1362.516,34.301l-36.491,1044.961l-645.357-22.594l14.013-399.598
			l245.873,8.586l-5.367,153.67l-92.202-3.22l2.147-61.468l30.734,1.073"/>
	</g>
	<g>
		<path fill="none" stroke="#9B1777" stroke-width="3" d="M1349.852,25.918l-18.248,1045.439l-645.653-11.328l7.037-399.782
			l245.986,4.294l-2.685,153.74l-92.245-1.61l1.073-61.496l30.748,0.537"/>
	</g>
</g>
</svg>
